Comic Neue Light.ufo
<glyph name="quotedbl" format="1">
  <advance width="303"/>
  <unicode hex="0022"/>
  <outline>
    <contour>
      <point x="103" y="521"/>
      <point x="112" y="529"/>
      <point x="112" y="540" type="curve" smooth="yes"/>
      <point x="112" y="679" type="line" smooth="yes"/>
      <point x="112" y="690"/>
      <point x="103" y="698"/>
      <point x="93" y="698" type="curve" smooth="yes"/>
      <point x="82" y="698"/>
      <point x="74" y="690"/>
      <point x="74" y="679" type="curve" smooth="yes"/>
      <point x="74" y="540" type="line" smooth="yes"/>
      <point x="74" y="529"/>
      <point x="82" y="521"/>
      <point x="93" y="521" type="curve" smooth="yes"/>
    </contour>
    <contour>
      <point x="227" y="521"/>
      <point x="236" y="529"/>
      <point x="236" y="540" type="curve" smooth="yes"/>
      <point x="236" y="679" type="line" smooth="yes"/>
      <point x="236" y="690"/>
      <point x="227" y="698"/>
      <point x="217" y="698" type="curve" smooth="yes"/>
      <point x="206" y="698"/>
      <point x="198" y="690"/>
      <point x="198" y="679" type="curve" smooth="yes"/>
      <point x="198" y="540" type="line" smooth="yes"/>
      <point x="198" y="529"/>
      <point x="206" y="521"/>
      <point x="217" y="521" type="curve" smooth="yes"/>
    </contour>
  </outline>
</glyph>
<glyph name="parenright" format="1">
  <advance width="359"/>
  <unicode hex="0029"/>
  <outline>
    <contour>
      <point x="154" y="-62"/>
      <point x="297" y="109"/>
      <point x="297" y="355" type="curve" smooth="yes"/>
      <point x="297" y="522"/>
      <point x="215" y="687"/>
      <point x="104" y="798" type="curve" smooth="yes"/>
      <point x="100" y="802"/>
      <point x="93" y="808"/>
      <point x="87" y="808" type="curve" smooth="yes"/>
      <point x="77" y="808"/>
      <point x="69" y="799"/>
      <point x="69" y="789" type="curve" smooth="yes"/>
      <point x="69" y="784"/>
      <point x="71" y="779"/>
      <point x="75" y="775" type="curve" smooth="yes"/>
      <point x="79" y="771"/>
      <point x="259" y="612"/>
      <point x="259" y="355" type="curve" smooth="yes"/>
      <point x="259" y="97"/>
      <point x="92" y="-77"/>
      <point x="89" y="-80" type="curve" smooth="yes"/>
      <point x="85" y="-84"/>
      <point x="83" y="-90"/>
      <point x="83" y="-95" type="curve" smooth="yes"/>
      <point x="83" y="-104"/>
      <point x="92" y="-113"/>
      <point x="101" y="-113" type="curve" smooth="yes"/>
      <point x="108" y="-113"/>
      <point x="115" y="-108"/>
      <point x="119" y="-104" type="curve"/>
    </contour>
  </outline>
</glyph>
<glyph name="plus" format="1">
  <advance width="433"/>
  <unicode hex="002B"/>
  <outline>
    <contour>
      <point x="368" y="233" type="line" smooth="yes"/>
      <point x="377" y="233"/>
      <point x="385" y="242"/>
      <point x="385" y="251" type="curve" smooth="yes"/>
      <point x="385" y="261"/>
      <point x="377" y="269"/>
      <point x="368" y="269" type="curve" smooth="yes"/>
      <point x="238" y="269" type="line"/>
      <point x="238" y="386" type="line" smooth="yes"/>
      <point x="238" y="395"/>
      <point x="230" y="403"/>
      <point x="221" y="403" type="curve" smooth="yes"/>
      <point x="211" y="403"/>
      <point x="203" y="395"/>
      <point x="203" y="386" type="curve" smooth="yes"/>
      <point x="203" y="269" type="line"/>
      <point x="75" y="269" type="line" smooth="yes"/>
      <point x="65" y="269"/>
      <point x="57" y="261"/>
      <point x="57" y="251" type="curve" smooth="yes"/>
      <point x="57" y="242"/>
      <point x="65" y="233"/>
      <point x="75" y="233" type="curve" smooth="yes"/>
      <point x="203" y="233" type="line"/>
      <point x="203" y="106" type="line" smooth="yes"/>
      <point x="203" y="97"/>
      <point x="211" y="89"/>
      <point x="221" y="89" type="curve" smooth="yes"/>
      <point x="230" y="89"/>
      <point x="238" y="97"/>
      <point x="238" y="106" type="curve" smooth="yes"/>
      <point x="238" y="233" type="line"/>
    </contour>
  </outline>
</glyph>
<glyph name="period" format="1">
  <advance width="204"/>
  <unicode hex="002E"/>
  <outline>
    <contour>
      <point x="116" y="0"/>
      <point x="130" y="18"/>
      <point x="130" y="39" type="curve" smooth="yes"/>
      <point x="130" y="53"/>
      <point x="120" y="66"/>
      <point x="107" y="66" type="curve" smooth="yes"/>
      <point x="91" y="66"/>
      <point x="76" y="48"/>
      <point x="76" y="29" type="curve" smooth="yes"/>
      <point x="76" y="14"/>
      <point x="86" y="0"/>
      <point x="99" y="0" type="curve" smooth="yes"/>
    </contour>
  </outline>
</glyph>
<glyph name="one" format="1">
  <advance width="394"/>
  <unicode hex="0031"/>
  <outline>
    <contour>
      <point x="227" y="38" type="line"/>
      <point x="237" y="669" type="line" smooth="yes"/>
      <point x="237" y="677"/>
      <point x="228" y="688"/>
      <point x="217" y="688" type="curve" smooth="yes"/>
      <point x="213" y="688"/>
      <point x="207" y="686"/>
      <point x="203" y="681" type="curve"/>
      <point x="70" y="537" type="line"/>
      <point x="67" y="534"/>
      <point x="65" y="528"/>
      <point x="65" y="524" type="curve" smooth="yes"/>
      <point x="65" y="514"/>
      <point x="73" y="505"/>
      <point x="84" y="505" type="curve" smooth="yes"/>
      <point x="89" y="505"/>
      <point x="94" y="507"/>
      <point x="98" y="512" type="curve"/>
      <point x="198" y="620" type="line"/>
      <point x="190" y="38" type="line"/>
      <point x="87" y="38" type="line" smooth="yes"/>
      <point x="76" y="38"/>
      <point x="68" y="29"/>
      <point x="68" y="19" type="curve" smooth="yes"/>
      <point x="68" y="8"/>
      <point x="76" y="0"/>
      <point x="87" y="0" type="curve" smooth="yes"/>
      <point x="314" y="0" type="line" smooth="yes"/>
      <point x="324" y="0"/>
      <point x="333" y="8"/>
      <point x="333" y="19" type="curve" smooth="yes"/>
      <point x="333" y="29"/>
      <point x="325" y="38"/>
      <point x="312" y="38" type="curve" smooth="yes"/>
    </contour>
  </outline>
</glyph>
<glyph name="four" format="1">
  <advance width="498"/>
  <unicode hex="0034"/>
  <outline>
    <contour>
      <point x="62" y="206" type="line"/>
      <point x="59" y="200"/>
      <point x="57" y="197"/>
      <point x="57" y="192" type="curve" smooth="yes"/>
      <point x="57" y="186"/>
      <point x="61" y="177"/>
      <point x="73" y="177" type="curve" smooth="yes"/>
      <point x="348" y="173" type="line"/>
      <point x="348" y="18" type="line" smooth="yes"/>
      <point x="348" y="7"/>
      <point x="356" y="-1"/>
      <point x="367" y="-1" type="curve" smooth="yes"/>
      <point x="377" y="-1"/>
      <point x="386" y="7"/>
      <point x="386" y="18" type="curve" smooth="yes"/>
      <point x="386" y="172" type="line"/>
      <point x="431" y="171" type="line" smooth="yes"/>
      <point x="442" y="171"/>
      <point x="450" y="179"/>
      <point x="450" y="190" type="curve" smooth="yes"/>
      <point x="450" y="200"/>
      <point x="443" y="208"/>
      <point x="431" y="208" type="curve" smooth="yes"/>
      <point x="386" y="209" type="line"/>
      <point x="386" y="673" type="line" smooth="yes"/>
      <point x="386" y="684"/>
      <point x="376" y="692"/>
      <point x="365" y="692" type="curve" smooth="yes"/>
      <point x="359" y="692"/>
      <point x="354" y="689"/>
      <point x="351" y="684" type="curve" smooth="yes"/>
    </contour>
    <contour>
      <point x="348" y="606" type="line"/>
      <point x="348" y="210" type="line"/>
      <point x="110" y="214" type="line"/>
    </contour>
  </outline>
</glyph>
<glyph name="five" format="1">
  <advance width="549"/>
  <unicode hex="0035"/>
  <outline>
    <contour>
      <point x="101" y="129"/>
      <point x="97" y="133"/>
      <point x="88" y="133" type="curve" smooth="yes"/>
      <point x="78" y="133"/>
      <point x="69" y="125"/>
      <point x="69" y="115" type="curve" smooth="yes"/>
      <point x="69" y="110"/>
      <point x="70" y="107"/>
      <point x="71" y="104" type="curve"/>
      <point x="86" y="74"/>
      <point x="155" y="-3"/>
      <point x="267" y="-3" type="curve" smooth="yes"/>
      <point x="386" y="-3"/>
      <point x="494" y="113"/>
      <point x="494" y="253" type="curve" smooth="yes"/>
      <point x="494" y="391"/>
      <point x="406" y="482"/>
      <point x="288" y="482" type="curve" smooth="yes"/>
      <point x="233" y="482"/>
      <point x="180" y="457"/>
      <point x="139" y="433" type="curve"/>
      <point x="160" y="643" type="line"/>
      <point x="447" y="643" type="line" smooth="yes"/>
      <point x="457" y="643"/>
      <point x="465" y="651"/>
      <point x="465" y="662" type="curve" smooth="yes"/>
      <point x="465" y="672"/>
      <point x="457" y="680"/>
      <point x="447" y="680" type="curve" smooth="yes"/>
      <point x="143" y="680" type="line" smooth="yes"/>
      <point x="134" y="680"/>
      <point x="126" y="673"/>
      <point x="125" y="664" type="curve" smooth="yes"/>
      <point x="96" y="390" type="line" smooth="yes"/>
      <point x="95" y="378"/>
      <point x="103" y="367"/>
      <point x="116" y="367" type="curve" smooth="yes"/>
      <point x="121" y="367"/>
      <point x="126" y="369"/>
      <point x="132" y="375" type="curve"/>
      <point x="142" y="386"/>
      <point x="197" y="445"/>
      <point x="288" y="445" type="curve" smooth="yes"/>
      <point x="405" y="445"/>
      <point x="457" y="348"/>
      <point x="457" y="253" type="curve" smooth="yes"/>
      <point x="457" y="135"/>
      <point x="367" y="34"/>
      <point x="267" y="34" type="curve" smooth="yes"/>
      <point x="193" y="34"/>
      <point x="145" y="66"/>
      <point x="106" y="122" type="curve" smooth="yes"/>
    </contour>
  </outline>
</glyph>
<glyph name="semicolon" format="1">
  <advance width="261"/>
  <unicode hex="003B"/>
  <outline>
    <contour>
      <point x="184" y="373"/>
      <point x="198" y="391"/>
      <point x="198" y="412" type="curve" smooth="yes"/>
      <point x="198" y="426"/>
      <point x="188" y="439"/>
      <point x="175" y="439" type="curve" smooth="yes"/>
      <point x="159" y="439"/>
      <point x="144" y="421"/>
      <point x="144" y="402" type="curve" smooth="yes"/>
      <point x="144" y="387"/>
      <point x="153" y="373"/>
      <point x="167" y="373" type="curve" smooth="yes"/>
    </contour>
    <contour>
      <point x="94" y="-76" type="line" smooth="yes"/>
      <point x="92" y="-81"/>
      <point x="92" y="-83"/>
      <point x="92" y="-86" type="curve" smooth="yes"/>
      <point x="92" y="-91"/>
      <point x="98" y="-96"/>
      <point x="105" y="-96" type="curve" smooth="yes"/>
      <point x="116" y="-96"/>
      <point x="127" y="-67"/>
      <point x="143" y="-27" type="curve" smooth="yes"/>
      <point x="158" y="11"/>
      <point x="161" y="18"/>
      <point x="161" y="36" type="curve" smooth="yes"/>
      <point x="161" y="47"/>
      <point x="151" y="59"/>
      <point x="138" y="59" type="curve" smooth="yes"/>
      <point x="122" y="59"/>
      <point x="107" y="43"/>
      <point x="107" y="23" type="curve" smooth="yes"/>
      <point x="107" y="14"/>
      <point x="112" y="3"/>
      <point x="121" y="-5" type="curve"/>
    </contour>
  </outline>
</glyph>
<glyph name="equal" format="1">
  <advance width="483"/>
  <unicode hex="003D"/>
  <outline>
    <contour>
      <point x="396" y="312" type="line" smooth="yes"/>
      <point x="407" y="312"/>
      <point x="415" y="320"/>
      <point x="415" y="329" type="curve" smooth="yes"/>
      <point x="415" y="340"/>
      <point x="407" y="348"/>
      <point x="396" y="348" type="curve" smooth="yes"/>
      <point x="98" y="348" type="line" smooth="yes"/>
      <point x="89" y="348"/>
      <point x="80" y="340"/>
      <point x="80" y="329" type="curve" smooth="yes"/>
      <point x="80" y="320"/>
      <point x="89" y="312"/>
      <point x="98" y="312" type="curve" smooth="yes"/>
    </contour>
    <contour>
      <point x="396" y="151" type="line" smooth="yes"/>
      <point x="407" y="151"/>
      <point x="415" y="159"/>
      <point x="415" y="169" type="curve" smooth="yes"/>
      <point x="415" y="179"/>
      <point x="407" y="188"/>
      <point x="396" y="188" type="curve" smooth="yes"/>
      <point x="98" y="188" type="line" smooth="yes"/>
      <point x="89" y="188"/>
      <point x="80" y="179"/>
      <point x="80" y="169" type="curve" smooth="yes"/>
      <point x="80" y="159"/>
      <point x="89" y="151"/>
      <point x="98" y="151" type="curve" smooth="yes"/>
    </contour>
  </outline>
</glyph>
<glyph name="greater" format="1">
  <advance width="530"/>
  <unicode hex="003E"/>
  <outline>
    <contour>
      <point x="461" y="231" type="line" smooth="yes"/>
      <point x="467" y="235"/>
      <point x="470" y="240"/>
      <point x="470" y="248" type="curve" smooth="yes"/>
      <point x="470" y="254"/>
      <point x="466" y="260"/>
      <point x="460" y="264" type="curve" smooth="yes"/>
      <point x="108" y="489" type="line" smooth="yes"/>
      <point x="103" y="492"/>
      <point x="99" y="492"/>
      <point x="97" y="492" type="curve" smooth="yes"/>
      <point x="87" y="492"/>
      <point x="78" y="482"/>
      <point x="78" y="472" type="curve" smooth="yes"/>
      <point x="78" y="466"/>
      <point x="81" y="460"/>
      <point x="87" y="456" type="curve" smooth="yes"/>
      <point x="415" y="247" type="line"/>
      <point x="108" y="44" type="line" smooth="yes"/>
      <point x="102" y="40"/>
      <point x="98" y="33"/>
      <point x="98" y="27" type="curve" smooth="yes"/>
      <point x="98" y="17"/>
      <point x="107" y="8"/>
      <point x="117" y="8" type="curve" smooth="yes"/>
      <point x="120" y="8"/>
      <point x="123" y="9"/>
      <point x="130" y="13" type="curve"/>
    </contour>
  </outline>
</glyph>
<glyph name="B" format="1">
  <advance width="593"/>
  <unicode hex="0042"/>
  <outline>
    <contour>
      <point x="403" y="-2"/>
      <point x="550" y="72"/>
      <point x="550" y="200" type="curve" smooth="yes"/>
      <point x="550" y="279"/>
      <point x="498" y="335"/>
      <point x="406" y="368" type="curve"/>
      <point x="447" y="398"/>
      <point x="489" y="446"/>
      <point x="489" y="518" type="curve" smooth="yes"/>
      <point x="489" y="547"/>
      <point x="467" y="681"/>
      <point x="274" y="681" type="curve" smooth="yes"/>
      <point x="86" y="681" type="line" smooth="yes"/>
      <point x="76" y="681"/>
      <point x="68" y="673"/>
      <point x="68" y="662" type="curve" smooth="yes"/>
      <point x="68" y="23" type="line" smooth="yes"/>
      <point x="68" y="2"/>
      <point x="80" y="-2"/>
      <point x="97" y="-2" type="curve" smooth="yes"/>
    </contour>
    <contour>
      <point x="106" y="340" type="line"/>
      <point x="328" y="340" type="line" smooth="yes"/>
      <point x="411" y="340"/>
      <point x="513" y="300"/>
      <point x="513" y="200" type="curve" smooth="yes"/>
      <point x="513" y="84"/>
      <point x="326" y="35"/>
      <point x="106" y="35" type="curve"/>
    </contour>
    <contour>
      <point x="106" y="643" type="line"/>
      <point x="274" y="643" type="line" smooth="yes"/>
      <point x="440" y="643"/>
      <point x="452" y="536"/>
      <point x="452" y="515" type="curve" smooth="yes"/>
      <point x="452" y="446"/>
      <point x="395" y="378"/>
      <point x="318" y="378" type="curve" smooth="yes"/>
      <point x="106" y="378" type="line"/>
    </contour>
  </outline>
</glyph>
<glyph name="C" format="1">
  <advance width="622"/>
  <unicode hex="0043"/>
  <outline>
    <contour>
      <point x="554" y="145"/>
      <point x="549" y="142"/>
      <point x="545" y="138" type="curve"/>
      <point x="489" y="68"/>
      <point x="414" y="36"/>
      <point x="338" y="36" type="curve" smooth="yes"/>
      <point x="242" y="36"/>
      <point x="90" y="110"/>
      <point x="90" y="295" type="curve" smooth="yes"/>
      <point x="90" y="469"/>
      <point x="226" y="646"/>
      <point x="347" y="646" type="curve" smooth="yes"/>
      <point x="438" y="646"/>
      <point x="481" y="607"/>
      <point x="503" y="583" type="curve"/>
      <point x="503" y="574" type="line" smooth="yes"/>
      <point x="503" y="564"/>
      <point x="512" y="554"/>
      <point x="522" y="554" type="curve" smooth="yes"/>
      <point x="532" y="554"/>
      <point x="541" y="564"/>
      <point x="541" y="574" type="curve" smooth="yes"/>
      <point x="541" y="640" type="line" smooth="yes"/>
      <point x="541" y="650"/>
      <point x="533" y="658"/>
      <point x="523" y="658" type="curve" smooth="yes"/>
      <point x="515" y="658"/>
      <point x="506" y="650"/>
      <point x="501" y="639" type="curve"/>
      <point x="466" y="661"/>
      <point x="416" y="684"/>
      <point x="347" y="684" type="curve" smooth="yes"/>
      <point x="210" y="684"/>
      <point x="52" y="500"/>
      <point x="52" y="295" type="curve" smooth="yes"/>
      <point x="52" y="126"/>
      <point x="182" y="-2"/>
      <point x="338" y="-2" type="curve" smooth="yes"/>
      <point x="434" y="-2"/>
      <point x="519" y="40"/>
      <point x="575" y="115" type="curve"/>
      <point x="577" y="118"/>
      <point x="579" y="123"/>
      <point x="579" y="127" type="curve" smooth="yes"/>
      <point x="579" y="139"/>
      <point x="569" y="145"/>
      <point x="559" y="145" type="curve" smooth="yes"/>
    </contour>
  </outline>
</glyph>
<glyph name="D" format="1">
  <advance width="610"/>
  <unicode hex="0044"/>
  <outline>
    <contour>
      <point x="399" y="-21"/>
      <point x="557" y="76"/>
      <point x="557" y="299" type="curve" smooth="yes"/>
      <point x="557" y="625"/>
      <point x="252" y="681"/>
      <point x="87" y="681" type="curve" smooth="yes"/>
      <point x="77" y="681"/>
      <point x="68" y="673"/>
      <point x="68" y="662" type="curve" smooth="yes"/>
      <point x="68" y="15" type="line" smooth="yes"/>
      <point x="68" y="7"/>
      <point x="74" y="-1"/>
      <point x="82" y="-3" type="curve" smooth="yes"/>
      <point x="90" y="-5"/>
      <point x="148" y="-21"/>
      <point x="207" y="-21" type="curve" smooth="yes"/>
    </contour>
    <contour>
      <point x="106" y="643" type="line"/>
      <point x="326" y="633"/>
      <point x="519" y="545"/>
      <point x="519" y="299" type="curve" smooth="yes"/>
      <point x="519" y="109"/>
      <point x="396" y="18"/>
      <point x="207" y="18" type="curve" smooth="yes"/>
      <point x="173" y="18"/>
      <point x="132" y="25"/>
      <point x="106" y="31" type="curve"/>
    </contour>
  </outline>
</glyph>
<glyph name="F" format="1">
  <advance width="535"/>
  <unicode hex="0046"/>
  <outline>
    <contour>
      <point x="101" y="333" type="line"/>
      <point x="431" y="333" type="line" smooth="yes"/>
      <point x="442" y="333"/>
      <point x="450" y="341"/>
      <point x="450" y="351" type="curve" smooth="yes"/>
      <point x="450" y="362"/>
      <point x="442" y="371"/>
      <point x="431" y="371" type="curve" smooth="yes"/>
      <point x="101" y="371" type="line"/>
      <point x="101" y="643" type="line"/>
      <point x="523" y="643" type="line" smooth="yes"/>
      <point x="533" y="643"/>
      <point x="542" y="651"/>
      <point x="542" y="661" type="curve" smooth="yes"/>
      <point x="542" y="672"/>
      <point x="533" y="681"/>
      <point x="523" y="681" type="curve" smooth="yes"/>
      <point x="82" y="681" type="line" smooth="yes"/>
      <point x="72" y="681"/>
      <point x="63" y="672"/>
      <point x="63" y="661" type="curve" smooth="yes"/>
      <point x="63" y="19" type="line" smooth="yes"/>
      <point x="63" y="8"/>
      <point x="72" y="-1"/>
      <point x="82" y="-1" type="curve" smooth="yes"/>
      <point x="92" y="-1"/>
      <point x="101" y="8"/>
      <point x="101" y="19" type="curve" smooth="yes"/>
    </contour>
  </outline>
</glyph>
<glyph name="H" format="1">
  <advance width="675"/>
  <unicode hex="0048"/>
  <outline>
    <contour>
      <point x="589" y="681"/>
      <point x="580" y="673"/>
      <point x="580" y="662" type="curve" smooth="yes"/>
      <point x="580" y="400" type="line"/>
      <point x="105" y="335" type="line"/>
      <point x="105" y="662" type="line" smooth="yes"/>
      <point x="105" y="673"/>
      <point x="96" y="681"/>
      <point x="86" y="681" type="curve" smooth="yes"/>
      <point x="75" y="681"/>
      <point x="67" y="673"/>
      <point x="67" y="662" type="curve" smooth="yes"/>
      <point x="67" y="19" type="line" smooth="yes"/>
      <point x="67" y="8"/>
      <point x="75" y="0"/>
      <point x="86" y="0" type="curve" smooth="yes"/>
      <point x="96" y="0"/>
      <point x="105" y="8"/>
      <point x="105" y="19" type="curve" smooth="yes"/>
      <point x="105" y="296" type="line"/>
      <point x="580" y="361" type="line"/>
      <point x="580" y="19" type="line" smooth="yes"/>
      <point x="580" y="8"/>
      <point x="589" y="0"/>
      <point x="600" y="0" type="curve" smooth="yes"/>
      <point x="610" y="0"/>
      <point x="618" y="8"/>
      <point x="618" y="19" type="curve" smooth="yes"/>
      <point x="618" y="662" type="line" smooth="yes"/>
      <point x="618" y="673"/>
      <point x="610" y="681"/>
      <point x="600" y="681" type="curve" smooth="yes"/>
    </contour>
  </outline>
</glyph>
<glyph name="I" format="1">
  <advance width="423"/>
  <unicode hex="0049"/>
  <outline>
    <contour>
      <point x="235" y="37" type="line"/>
      <point x="235" y="643" type="line"/>
      <point x="347" y="643" type="line" smooth="yes"/>
      <point x="357" y="643"/>
      <point x="366" y="652"/>
      <point x="366" y="662" type="curve" smooth="yes"/>
      <point x="366" y="673"/>
      <point x="357" y="681"/>
      <point x="347" y="681" type="curve" smooth="yes"/>
      <point x="83" y="681" type="line" smooth="yes"/>
      <point x="73" y="681"/>
      <point x="64" y="673"/>
      <point x="64" y="662" type="curve" smooth="yes"/>
      <point x="64" y="652"/>
      <point x="73" y="643"/>
      <point x="83" y="643" type="curve" smooth="yes"/>
      <point x="197" y="643" type="line"/>
      <point x="197" y="37" type="line"/>
      <point x="83" y="37" type="line" smooth="yes"/>
      <point x="73" y="37"/>
      <point x="64" y="29"/>
      <point x="64" y="19" type="curve" smooth="yes"/>
      <point x="64" y="8"/>
      <point x="73" y="-1"/>
      <point x="83" y="-1" type="curve" smooth="yes"/>
      <point x="347" y="-1" type="line" smooth="yes"/>
      <point x="357" y="-1"/>
      <point x="366" y="8"/>
      <point x="366" y="19" type="curve" smooth="yes"/>
      <point x="366" y="29"/>
      <point x="359" y="37"/>
      <point x="347" y="37" type="curve" smooth="yes"/>
    </contour>
  </outline>
</glyph>
<glyph name="M" format="1">
  <advance width="847"/>
  <unicode hex="004D"/>
  <outline>
    <contour>
      <point x="228" y="669" type="line" smooth="yes"/>
      <point x="226" y="676"/>
      <point x="219" y="681"/>
      <point x="211" y="681" type="curve" smooth="yes"/>
      <point x="202" y="681"/>
      <point x="195" y="676"/>
      <point x="193" y="667" type="curve" smooth="yes"/>
      <point x="54" y="38" type="line" smooth="yes"/>
      <point x="52" y="30"/>
      <point x="50" y="20"/>
      <point x="50" y="15" type="curve" smooth="yes"/>
      <point x="50" y="7"/>
      <point x="57" y="0"/>
      <point x="68" y="0" type="curve" smooth="yes"/>
      <point x="76" y="0"/>
      <point x="84" y="5"/>
      <point x="86" y="14" type="curve" smooth="yes"/>
      <point x="214" y="595" type="line"/>
      <point x="398" y="12" type="line" smooth="yes"/>
      <point x="401" y="3"/>
      <point x="408" y="0"/>
      <point x="415" y="0" type="curve" smooth="yes"/>
      <point x="424" y="0"/>
      <point x="430" y="3"/>
      <point x="433" y="11" type="curve" smooth="yes"/>
      <point x="644" y="596" type="line"/>
      <point x="773" y="14" type="line" smooth="yes"/>
      <point x="775" y="4"/>
      <point x="782" y="0"/>
      <point x="791" y="0" type="curve" smooth="yes"/>
      <point x="804" y="0"/>
      <point x="809" y="8"/>
      <point x="809" y="14" type="curve" smooth="yes"/>
      <point x="809" y="21"/>
      <point x="808" y="29"/>
      <point x="805" y="41" type="curve" smooth="yes"/>
      <point x="663" y="670" type="line"/>
      <point x="662" y="676"/>
      <point x="656" y="681"/>
      <point x="647" y="681" type="curve" smooth="yes"/>
      <point x="638" y="681"/>
      <point x="632" y="678"/>
      <point x="629" y="670" type="curve" smooth="yes"/>
      <point x="415" y="76" type="line"/>
    </contour>
  </outline>
</glyph>
<glyph name="O" format="1">
  <advance width="650"/>
  <unicode hex="004F"/>
  <outline>
    <contour>
      <point x="464" y="-2"/>
      <point x="598" y="167"/>
      <point x="598" y="368" type="curve" smooth="yes"/>
      <point x="598" y="540"/>
      <point x="494" y="682"/>
      <point x="352" y="682" type="curve" smooth="yes"/>
      <point x="196" y="682"/>
      <point x="62" y="513"/>
      <point x="62" y="312" type="curve" smooth="yes"/>
      <point x="62" y="142"/>
      <point x="165" y="-2"/>
      <point x="308" y="-2" type="curve" smooth="yes"/>
    </contour>
    <contour>
      <point x="473" y="649"/>
      <point x="564" y="508"/>
      <point x="564" y="364" type="curve" smooth="yes"/>
      <point x="564" y="183"/>
      <point x="440" y="31"/>
      <point x="308" y="31" type="curve" smooth="yes"/>
      <point x="185" y="31"/>
      <point x="96" y="159"/>
      <point x="96" y="312" type="curve" smooth="yes"/>
      <point x="96" y="500"/>
      <point x="213" y="649"/>
      <point x="344" y="649" type="curve" smooth="yes"/>
    </contour>
  </outline>
</glyph>
<glyph name="V" format="1">
  <advance width="525"/>
  <unicode hex="0056"/>
  <outline>
    <contour>
      <point x="257" y="0"/>
      <point x="263" y="4"/>
      <point x="266" y="12" type="curve" smooth="yes"/>
      <point x="519" y="652" type="line"/>
      <point x="520" y="655"/>
      <point x="521" y="658"/>
      <point x="521" y="664" type="curve" smooth="yes"/>
      <point x="521" y="674"/>
      <point x="511" y="680"/>
      <point x="501" y="680" type="curve" smooth="yes"/>
      <point x="493" y="680"/>
      <point x="487" y="676"/>
      <point x="484" y="669" type="curve" smooth="yes"/>
      <point x="251" y="74" type="line"/>
      <point x="50" y="668" type="line" smooth="yes"/>
      <point x="47" y="676"/>
      <point x="41" y="680"/>
      <point x="32" y="680" type="curve" smooth="yes"/>
      <point x="20" y="680"/>
      <point x="13" y="672"/>
      <point x="13" y="662" type="curve" smooth="yes"/>
      <point x="13" y="659"/>
      <point x="14" y="654"/>
      <point x="15" y="650" type="curve"/>
      <point x="230" y="12" type="line" smooth="yes"/>
      <point x="233" y="3"/>
      <point x="241" y="0"/>
      <point x="249" y="0" type="curve" smooth="yes"/>
    </contour>
  </outline>
</glyph>
<glyph name="X" format="1">
  <advance width="671"/>
  <unicode hex="0058"/>
  <outline>
    <contour>
      <point x="592" y="6" type="line" smooth="yes"/>
      <point x="596" y="1"/>
      <point x="601" y="0"/>
      <point x="606" y="0" type="curve" smooth="yes"/>
      <point x="615" y="0"/>
      <point x="623" y="8"/>
      <point x="623" y="19" type="curve" smooth="yes"/>
      <point x="623" y="23"/>
      <point x="622" y="27"/>
      <point x="620" y="30" type="curve"/>
      <point x="369" y="345" type="line"/>
      <point x="625" y="650" type="line" smooth="yes"/>
      <point x="629" y="655"/>
      <point x="630" y="659"/>
      <point x="630" y="664" type="curve" smooth="yes"/>
      <point x="630" y="673"/>
      <point x="621" y="681"/>
      <point x="611" y="681" type="curve" smooth="yes"/>
      <point x="606" y="681"/>
      <point x="601" y="680"/>
      <point x="597" y="675" type="curve" smooth="yes"/>
      <point x="345" y="375" type="line"/>
      <point x="107" y="675" type="line" smooth="yes"/>
      <point x="103" y="680"/>
      <point x="98" y="681"/>
      <point x="93" y="681" type="curve" smooth="yes"/>
      <point x="83" y="681"/>
      <point x="73" y="673"/>
      <point x="73" y="664" type="curve" smooth="yes"/>
      <point x="73" y="659"/>
      <point x="76" y="654"/>
      <point x="78" y="651" type="curve"/>
      <point x="322" y="346" type="line"/>
      <point x="57" y="31" type="line"/>
      <point x="54" y="28"/>
      <point x="52" y="23"/>
      <point x="52" y="19" type="curve" smooth="yes"/>
      <point x="52" y="9"/>
      <point x="60" y="0"/>
      <point x="71" y="0" type="curve" smooth="yes"/>
      <point x="76" y="0"/>
      <point x="82" y="2"/>
      <point x="85" y="6" type="curve"/>
      <point x="344" y="316" type="line"/>
    </contour>
  </outline>
</glyph>
<glyph name="Y" format="1">
  <advance width="583"/>
  <unicode hex="0059"/>
  <outline>
    <contour>
      <point x="565" y="681"/>
      <point x="559" y="678"/>
      <point x="556" y="672" type="curve"/>
      <point x="304" y="246" type="line"/>
      <point x="55" y="672" type="line"/>
      <point x="52" y="678"/>
      <point x="46" y="681"/>
      <point x="41" y="681" type="curve" smooth="yes"/>
      <point x="31" y="681"/>
      <point x="21" y="675"/>
      <point x="21" y="664" type="curve" smooth="yes"/>
      <point x="21" y="659"/>
      <point x="24" y="653"/>
      <point x="26" y="649" type="curve"/>
      <point x="282" y="210" type="line"/>
      <point x="176" y="32" type="line" smooth="yes"/>
      <point x="173" y="27"/>
      <point x="171" y="23"/>
      <point x="171" y="17" type="curve" smooth="yes"/>
      <point x="171" y="9"/>
      <point x="179" y="0"/>
      <point x="191" y="0" type="curve" smooth="yes"/>
      <point x="196" y="0"/>
      <point x="201" y="2"/>
      <point x="205" y="9" type="curve" smooth="yes"/>
      <point x="583" y="646" type="line" smooth="yes"/>
      <point x="589" y="656"/>
      <point x="590" y="660"/>
      <point x="590" y="664" type="curve" smooth="yes"/>
      <point x="590" y="674"/>
      <point x="581" y="681"/>
      <point x="571" y="681" type="curve" smooth="yes"/>
    </contour>
  </outline>
</glyph>
<glyph name="backslash" format="1">
  <advance width="535"/>
  <unicode hex="005C"/>
  <outline>
    <contour>
      <point x="442" y="6" type="line" smooth="yes"/>
      <point x="446" y="-1"/>
      <point x="451" y="-2"/>
      <point x="457" y="-2" type="curve" smooth="yes"/>
      <point x="466" y="-2"/>
      <point x="476" y="6"/>
      <point x="476" y="17" type="curve" smooth="yes"/>
      <point x="476" y="19"/>
      <point x="475" y="24"/>
      <point x="472" y="29" type="curve" smooth="yes"/>
      <point x="105" y="692" type="line"/>
      <point x="102" y="698"/>
      <point x="96" y="700"/>
      <point x="90" y="700" type="curve" smooth="yes"/>
      <point x="78" y="700"/>
      <point x="71" y="692"/>
      <point x="71" y="680" type="curve" smooth="yes"/>
      <point x="71" y="677"/>
      <point x="72" y="674"/>
      <point x="73" y="672" type="curve"/>
    </contour>
  </outline>
</glyph>
<glyph name="bracketright" format="1">
  <advance width="305"/>
  <unicode hex="005D"/>
  <outline>
    <contour>
      <point x="101" y="819" type="line" smooth="yes"/>
      <point x="91" y="819"/>
      <point x="82" y="811"/>
      <point x="82" y="800" type="curve" smooth="yes"/>
      <point x="82" y="790"/>
      <point x="91" y="782"/>
      <point x="101" y="782" type="curve" smooth="yes"/>
      <point x="208" y="782" type="line"/>
      <point x="208" y="-92" type="line"/>
      <point x="84" y="-92" type="line" smooth="yes"/>
      <point x="74" y="-92"/>
      <point x="66" y="-100"/>
      <point x="66" y="-110" type="curve" smooth="yes"/>
      <point x="66" y="-121"/>
      <point x="74" y="-129"/>
      <point x="84" y="-129" type="curve" smooth="yes"/>
      <point x="227" y="-129" type="line" smooth="yes"/>
      <point x="238" y="-129"/>
      <point x="246" y="-121"/>
      <point x="246" y="-110" type="curve" smooth="yes"/>
      <point x="246" y="800" type="line" smooth="yes"/>
      <point x="246" y="811"/>
      <point x="238" y="819"/>
      <point x="227" y="819" type="curve" smooth="yes"/>
    </contour>
  </outline>
</glyph>
<glyph name="underscore" format="1">
  <advance width="480"/>
  <unicode hex="005F"/>
  <outline>
    <contour>
      <point x="500" y="-58" type="line" smooth="yes"/>
      <point x="511" y="-58"/>
      <point x="519" y="-50"/>
      <point x="519" y="-40" type="curve" smooth="yes"/>
      <point x="519" y="-29"/>
      <point x="511" y="-21"/>
      <point x="500" y="-21" type="curve" smooth="yes"/>
      <point x="-10" y="-21" type="line" smooth="yes"/>
      <point x="-21" y="-21"/>
      <point x="-29" y="-29"/>
      <point x="-29" y="-40" type="curve" smooth="yes"/>
      <point x="-29" y="-50"/>
      <point x="-21" y="-58"/>
      <point x="-10" y="-58" type="curve" smooth="yes"/>
    </contour>
  </outline>
</glyph>
<glyph name="a" format="1">
  <advance width="495"/>
  <unicode hex="0061"/>
  <outline>
    <contour>
      <point x="438" y="476" type="line"/>
      <point x="413" y="489"/>
      <point x="352" y="515"/>
      <point x="291" y="515" type="curve" smooth="yes"/>
      <point x="117" y="515"/>
      <point x="52" y="327"/>
      <point x="52" y="223" type="curve" smooth="yes"/>
      <point x="52" y="95"/>
      <point x="132" y="8"/>
      <point x="238" y="8" type="curve" smooth="yes"/>
      <point x="293" y="8"/>
      <point x="357" y="39"/>
      <point x="400" y="66" type="curve"/>
      <point x="400" y="23" type="line" smooth="yes"/>
      <point x="400" y="10"/>
      <point x="407" y="0"/>
      <point x="419" y="0" type="curve" smooth="yes"/>
      <point x="430" y="0"/>
      <point x="438" y="9"/>
      <point x="438" y="21" type="curve" smooth="yes"/>
    </contour>
    <contour>
      <point x="398" y="110" type="line"/>
      <point x="372" y="93"/>
      <point x="301" y="45"/>
      <point x="236" y="45" type="curve" smooth="yes"/>
      <point x="129" y="45"/>
      <point x="91" y="148"/>
      <point x="91" y="225" type="curve" smooth="yes"/>
      <point x="91" y="316"/>
      <point x="144" y="478"/>
      <point x="294" y="478" type="curve" smooth="yes"/>
      <point x="331" y="478"/>
      <point x="380" y="463"/>
      <point x="402" y="452" type="curve"/>
    </contour>
  </outline>
</glyph>
<glyph name="c" format="1">
  <advance width="499"/>
  <unicode hex="0063"/>
  <outline>
    <contour>
      <point x="458" y="117"/>
      <point x="449" y="124"/>
      <point x="440" y="124" type="curve" smooth="yes"/>
      <point x="431" y="124"/>
      <point x="425" y="117"/>
      <point x="421" y="111" type="curve"/>
      <point x="391" y="71"/>
      <point x="342" y="33"/>
      <point x="263" y="33" type="curve" smooth="yes"/>
      <point x="214" y="33"/>
      <point x="87" y="75"/>
      <point x="87" y="217" type="curve" smooth="yes"/>
      <point x="87" y="246"/>
      <point x="92" y="281"/>
      <point x="108" y="323" type="curve" smooth="yes"/>
      <point x="133" y="386"/>
      <point x="201" y="467"/>
      <point x="275" y="467" type="curve" smooth="yes"/>
      <point x="332" y="467"/>
      <point x="366" y="441"/>
      <point x="396" y="405" type="curve"/>
      <point x="399" y="402"/>
      <point x="404" y="400"/>
      <point x="409" y="400" type="curve" smooth="yes"/>
      <point x="418" y="400"/>
      <point x="426" y="408"/>
      <point x="426" y="418" type="curve" smooth="yes"/>
      <point x="426" y="422"/>
      <point x="424" y="427"/>
      <point x="421" y="430" type="curve"/>
      <point x="383" y="474"/>
      <point x="345" y="500"/>
      <point x="273" y="500" type="curve" smooth="yes"/>
      <point x="180" y="500"/>
      <point x="104" y="401"/>
      <point x="76" y="334" type="curve" smooth="yes"/>
      <point x="66" y="308"/>
      <point x="52" y="263"/>
      <point x="52" y="215" type="curve" smooth="yes"/>
      <point x="52" y="89"/>
      <point x="161" y="-6"/>
      <point x="277" y="0" type="curve" smooth="yes"/>
      <point x="351" y="3"/>
      <point x="417" y="43"/>
      <point x="451" y="93" type="curve"/>
      <point x="454" y="97"/>
      <point x="458" y="103"/>
      <point x="458" y="108" type="curve" smooth="yes"/>
    </contour>
  </outline>
</glyph>
<glyph name="d" format="1">
  <advance width="520"/>
  <unicode hex="0064"/>
  <outline>
    <contour>
      <point x="464" y="685" type="line" smooth="yes"/>
      <point x="464" y="695"/>
      <point x="456" y="705"/>
      <point x="445" y="705" type="curve" smooth="yes"/>
      <point x="435" y="705"/>
      <point x="425" y="696"/>
      <point x="425" y="686" type="curve" smooth="yes"/>
      <point x="420" y="461" type="line"/>
      <point x="380" y="478"/>
      <point x="323" y="498"/>
      <point x="266" y="498" type="curve" smooth="yes"/>
      <point x="111" y="498"/>
      <point x="53" y="368"/>
      <point x="53" y="225" type="curve" smooth="yes"/>
      <point x="53" y="116"/>
      <point x="106" y="4"/>
      <point x="222" y="4" type="curve" smooth="yes"/>
      <point x="300" y="4"/>
      <point x="368" y="55"/>
      <point x="412" y="96" type="curve"/>
      <point x="410" y="22" type="line" smooth="yes"/>
      <point x="410" y="9"/>
      <point x="416" y="0"/>
      <point x="428" y="0" type="curve" smooth="yes"/>
      <point x="439" y="0"/>
      <point x="448" y="7"/>
      <point x="448" y="18" type="curve" smooth="yes"/>
    </contour>
    <contour>
      <point x="90" y="323"/>
      <point x="118" y="463"/>
      <point x="268" y="463" type="curve" smooth="yes"/>
      <point x="331" y="463"/>
      <point x="397" y="430"/>
      <point x="419" y="419" type="curve"/>
      <point x="414" y="157" type="line" smooth="yes"/>
      <point x="413" y="122"/>
      <point x="336" y="34"/>
      <point x="222" y="34" type="curve" smooth="yes"/>
      <point x="118" y="34"/>
      <point x="90" y="148"/>
      <point x="90" y="228" type="curve" smooth="yes"/>
    </contour>
  </outline>
</glyph>
<glyph name="f" format="1">
  <advance width="361"/>
  <unicode hex="0066"/>
  <outline>
    <contour>
      <point x="37" y="501" type="line" smooth="yes"/>
      <point x="30" y="501"/>
      <point x="22" y="494"/>
      <point x="22" y="485" type="curve" smooth="yes"/>
      <point x="22" y="475"/>
      <point x="30" y="468"/>
      <point x="39" y="468" type="curve" smooth="yes"/>
      <point x="128" y="468" type="line"/>
      <point x="128" y="17" type="line" smooth="yes"/>
      <point x="128" y="7"/>
      <point x="136" y="0"/>
      <point x="146" y="0" type="curve" smooth="yes"/>
      <point x="157" y="0"/>
      <point x="165" y="7"/>
      <point x="165" y="17" type="curve" smooth="yes"/>
      <point x="165" y="468" type="line"/>
      <point x="319" y="468" type="line" smooth="yes"/>
      <point x="328" y="468"/>
      <point x="335" y="475"/>
      <point x="335" y="485" type="curve" smooth="yes"/>
      <point x="335" y="493"/>
      <point x="327" y="500"/>
      <point x="319" y="500" type="curve" smooth="yes"/>
      <point x="165" y="501" type="line"/>
      <point x="165" y="646"/>
      <point x="206" y="665"/>
      <point x="339" y="665" type="curve" smooth="yes"/>
      <point x="351" y="665"/>
      <point x="357" y="673"/>
      <point x="357" y="683" type="curve" smooth="yes"/>
      <point x="357" y="696"/>
      <point x="343" y="699"/>
      <point x="327" y="699" type="curve" smooth="yes"/>
      <point x="187" y="699"/>
      <point x="128" y="650"/>
      <point x="128" y="501" type="curve"/>
    </contour>
  </outline>
</glyph>
<glyph name="j" format="1">
  <advance width="323"/>
  <unicode hex="006A"/>
  <outline>
    <contour>
      <point x="253" y="483" type="line"/>
      <point x="253" y="497"/>
      <point x="243" y="502"/>
      <point x="233" y="502" type="curve" smooth="yes"/>
      <point x="221" y="502"/>
      <point x="213" y="493"/>
      <point x="213" y="482" type="curve" smooth="yes"/>
      <point x="220" y="-18" type="line" smooth="yes"/>
      <point x="220" y="-42"/>
      <point x="217" y="-156"/>
      <point x="142" y="-156" type="curve" smooth="yes"/>
      <point x="87" y="-156"/>
      <point x="50" y="-87"/>
      <point x="30" y="-36" type="curve" smooth="yes"/>
      <point x="25" y="-24"/>
      <point x="19" y="-21"/>
      <point x="11" y="-21" type="curve" smooth="yes"/>
      <point x="0" y="-21"/>
      <point x="-9" y="-28"/>
      <point x="-9" y="-38" type="curve" smooth="yes"/>
      <point x="-9" y="-42"/>
      <point x="-8" y="-44"/>
      <point x="-7" y="-47" type="curve"/>
      <point x="4" y="-73"/>
      <point x="51" y="-189"/>
      <point x="142" y="-189" type="curve" smooth="yes"/>
      <point x="238" y="-189"/>
      <point x="259" y="-75"/>
      <point x="258" y="-13" type="curve" smooth="yes"/>
    </contour>
    <contour>
      <point x="234" y="698"/>
      <point x="225" y="695"/>
      <point x="224" y="685" type="curve" smooth="yes"/>
      <point x="218" y="635" type="line" smooth="yes"/>
      <point x="217" y="627"/>
      <point x="224" y="618"/>
      <point x="235" y="618" type="curve" smooth="yes"/>
      <point x="245" y="618"/>
      <point x="254" y="623"/>
      <point x="255" y="633" type="curve" smooth="yes"/>
      <point x="260" y="676" type="line" smooth="yes"/>
      <point x="262" y="690"/>
      <point x="255" y="698"/>
      <point x="241" y="698" type="curve" smooth="yes"/>
    </contour>
  </outline>
</glyph>
<glyph name="l" format="1">
  <advance width="216"/>
  <unicode hex="006C"/>
  <outline>
    <contour>
      <point x="129" y="680" type="line" smooth="yes"/>
      <point x="129" y="690"/>
      <point x="120" y="698"/>
      <point x="110" y="698" type="curve" smooth="yes"/>
      <point x="100" y="698"/>
      <point x="91" y="690"/>
      <point x="91" y="680" type="curve" smooth="yes"/>
      <point x="91" y="16" type="line" smooth="yes"/>
      <point x="91" y="7"/>
      <point x="101" y="0"/>
      <point x="110" y="0" type="curve" smooth="yes"/>
      <point x="119" y="0"/>
      <point x="129" y="7"/>
      <point x="129" y="16" type="curve" smooth="yes"/>
    </contour>
  </outline>
</glyph>
<glyph name="o" format="1">
  <advance width="525"/>
  <unicode hex="006F"/>
  <outline>
    <contour>
      <point x="378" y="0"/>
      <point x="484" y="123"/>
      <point x="484" y="271" type="curve" smooth="yes"/>
      <point x="484" y="395"/>
      <point x="397" y="500"/>
      <point x="284" y="500" type="curve" smooth="yes"/>
      <point x="158" y="500"/>
      <point x="52" y="376"/>
      <point x="52" y="229" type="curve" smooth="yes"/>
      <point x="52" y="103"/>
      <point x="138" y="0"/>
      <point x="252" y="0" type="curve" smooth="yes"/>
    </contour>
    <contour>
      <point x="372" y="471"/>
      <point x="445" y="375"/>
      <point x="445" y="266" type="curve" smooth="yes"/>
      <point x="445" y="140"/>
      <point x="352" y="29"/>
      <point x="252" y="29" type="curve" smooth="yes"/>
      <point x="155" y="29"/>
      <point x="90" y="123"/>
      <point x="90" y="231" type="curve" smooth="yes"/>
      <point x="90" y="358"/>
      <point x="177" y="471"/>
      <point x="279" y="471" type="curve" smooth="yes"/>
    </contour>
  </outline>
</glyph>
<glyph name="s" format="1">
  <advance width="448"/>
  <unicode hex="0073"/>
  <outline>
    <contour>
      <point x="365" y="364"/>
      <point x="371" y="355"/>
      <point x="383" y="355" type="curve" smooth="yes"/>
      <point x="396" y="355"/>
      <point x="402" y="369"/>
      <point x="402" y="393" type="curve" smooth="yes"/>
      <point x="402" y="457"/>
      <point x="348" y="499"/>
      <point x="251" y="499" type="curve" smooth="yes"/>
      <point x="181" y="499"/>
      <point x="84" y="476"/>
      <point x="84" y="386" type="curve" smooth="yes"/>
      <point x="84" y="319"/>
      <point x="134" y="280"/>
      <point x="236" y="249" type="curve" smooth="yes"/>
      <point x="341" y="217"/>
      <point x="366" y="188"/>
      <point x="366" y="135" type="curve" smooth="yes"/>
      <point x="366" y="102"/>
      <point x="334" y="32"/>
      <point x="233" y="32" type="curve" smooth="yes"/>
      <point x="161" y="32"/>
      <point x="107" y="69"/>
      <point x="87" y="128" type="curve"/>
      <point x="85" y="135"/>
      <point x="80" y="141"/>
      <point x="71" y="141" type="curve" smooth="yes"/>
      <point x="62" y="141"/>
      <point x="54" y="132"/>
      <point x="54" y="123" type="curve" smooth="yes"/>
      <point x="54" y="91"/>
      <point x="112" y="-2"/>
      <point x="233" y="-2" type="curve" smooth="yes"/>
      <point x="336" y="-2"/>
      <point x="401" y="70"/>
      <point x="401" y="134" type="curve" smooth="yes"/>
      <point x="401" y="230"/>
      <point x="329" y="252"/>
      <point x="236" y="282" type="curve" smooth="yes"/>
      <point x="191" y="296"/>
      <point x="117" y="317"/>
      <point x="117" y="385" type="curve" smooth="yes"/>
      <point x="117" y="438"/>
      <point x="173" y="468"/>
      <point x="254" y="468" type="curve" smooth="yes"/>
      <point x="333" y="468"/>
      <point x="367" y="439"/>
      <point x="367" y="394" type="curve" smooth="yes"/>
      <point x="367" y="382"/>
      <point x="365" y="378"/>
      <point x="365" y="373" type="curve" smooth="yes"/>
    </contour>
  </outline>
</glyph>
<glyph name="v" format="1">
  <advance width="426"/>
  <unicode hex="0076"/>
  <outline>
    <contour>
      <point x="422" y="473" type="line" smooth="yes"/>
      <point x="424" y="478"/>
      <point x="424" y="480"/>
      <point x="424" y="484" type="curve" smooth="yes"/>
      <point x="424" y="493"/>
      <point x="415" y="500"/>
      <point x="404" y="500" type="curve" smooth="yes"/>
      <point x="394" y="500"/>
      <point x="389" y="496"/>
      <point x="386" y="489" type="curve" smooth="yes"/>
      <point x="219" y="59" type="line"/>
      <point x="49" y="486" type="line" smooth="yes"/>
      <point x="46" y="494"/>
      <point x="40" y="499"/>
      <point x="32" y="499" type="curve" smooth="yes"/>
      <point x="22" y="499"/>
      <point x="11" y="493"/>
      <point x="11" y="482" type="curve" smooth="yes"/>
      <point x="11" y="479"/>
      <point x="12" y="475"/>
      <point x="13" y="472" type="curve"/>
      <point x="200" y="13" type="line" smooth="yes"/>
      <point x="204" y="4"/>
      <point x="208" y="-1"/>
      <point x="218" y="-1" type="curve" smooth="yes"/>
      <point x="227" y="-1"/>
      <point x="232" y="4"/>
      <point x="235" y="11" type="curve" smooth="yes"/>
    </contour>
  </outline>
</glyph>
<glyph name="w" format="1">
  <advance width="584"/>
  <unicode hex="0077"/>
  <outline>
    <contour>
      <point x="129" y="61" type="line"/>
      <point x="46" y="483" type="line" smooth="yes"/>
      <point x="44" y="494"/>
      <point x="37" y="500"/>
      <point x="27" y="500" type="curve" smooth="yes"/>
      <point x="18" y="500"/>
      <point x="10" y="492"/>
      <point x="10" y="481" type="curve" smooth="yes"/>
      <point x="10" y="479"/>
      <point x="11" y="473"/>
      <point x="12" y="469" type="curve"/>
      <point x="108" y="17" type="line"/>
      <point x="111" y="5"/>
      <point x="118" y="0"/>
      <point x="127" y="0" type="curve" smooth="yes"/>
      <point x="136" y="0"/>
      <point x="142" y="6"/>
      <point x="145" y="15" type="curve" smooth="yes"/>
      <point x="295" y="433" type="line"/>
      <point x="402" y="15" type="line" smooth="yes"/>
      <point x="404" y="6"/>
      <point x="411" y="0"/>
      <point x="420" y="0" type="curve" smooth="yes"/>
      <point x="428" y="0"/>
      <point x="435" y="6"/>
      <point x="438" y="16" type="curve" smooth="yes"/>
      <point x="585" y="474" type="line" smooth="yes"/>
      <point x="586" y="477"/>
      <point x="587" y="480"/>
      <point x="587" y="484" type="curve" smooth="yes"/>
      <point x="587" y="493"/>
      <point x="579" y="499"/>
      <point x="568" y="499" type="curve" smooth="yes"/>
      <point x="560" y="499"/>
      <point x="553" y="493"/>
      <point x="550" y="483" type="curve" smooth="yes"/>
      <point x="421" y="61" type="line"/>
      <point x="318" y="481" type="line" smooth="yes"/>
      <point x="315" y="495"/>
      <point x="308" y="500"/>
      <point x="298" y="500" type="curve" smooth="yes"/>
      <point x="287" y="500"/>
      <point x="280" y="494"/>
      <point x="277" y="486" type="curve" smooth="yes"/>
    </contour>
  </outline>
</glyph>
<glyph name="x" format="1">
  <advance width="500"/>
  <unicode hex="0078"/>
  <outline>
    <contour>
      <point x="494" y="467" type="line" smooth="yes"/>
      <point x="497" y="470"/>
      <point x="499" y="475"/>
      <point x="499" y="479" type="curve" smooth="yes"/>
      <point x="499" y="490"/>
      <point x="491" y="498"/>
      <point x="480" y="498" type="curve" smooth="yes"/>
      <point x="476" y="498"/>
      <point x="471" y="497"/>
      <point x="467" y="493" type="curve" smooth="yes"/>
      <point x="262" y="279" type="line"/>
      <point x="85" y="495" type="line"/>
      <point x="81" y="499"/>
      <point x="78" y="500"/>
      <point x="72" y="500" type="curve" smooth="yes"/>
      <point x="63" y="500"/>
      <point x="54" y="492"/>
      <point x="54" y="481" type="curve" smooth="yes"/>
      <point x="54" y="476"/>
      <point x="57" y="471"/>
      <point x="60" y="467" type="curve"/>
      <point x="236" y="258" type="line"/>
      <point x="17" y="33" type="line" smooth="yes"/>
      <point x="13" y="29"/>
      <point x="12" y="25"/>
      <point x="12" y="20" type="curve" smooth="yes"/>
      <point x="12" y="9"/>
      <point x="20" y="1"/>
      <point x="29" y="1" type="curve" smooth="yes"/>
      <point x="34" y="1"/>
      <point x="39" y="2"/>
      <point x="43" y="6" type="curve" smooth="yes"/>
      <point x="261" y="234" type="line"/>
      <point x="446" y="6" type="line"/>
      <point x="449" y="2"/>
      <point x="454" y="0"/>
      <point x="461" y="0" type="curve" smooth="yes"/>
      <point x="471" y="0"/>
      <point x="479" y="8"/>
      <point x="479" y="19" type="curve" smooth="yes"/>
      <point x="479" y="23"/>
      <point x="478" y="26"/>
      <point x="475" y="30" type="curve"/>
      <point x="288" y="255" type="line"/>
    </contour>
  </outline>
</glyph>
<glyph name="y" format="1">
  <advance width="479"/>
  <unicode hex="0079"/>
  <outline>
    <contour>
      <point x="465" y="470" type="line" smooth="yes"/>
      <point x="467" y="474"/>
      <point x="468" y="479"/>
      <point x="468" y="482" type="curve" smooth="yes"/>
      <point x="468" y="493"/>
      <point x="460" y="501"/>
      <point x="449" y="501" type="curve" smooth="yes"/>
      <point x="441" y="501"/>
      <point x="434" y="496"/>
      <point x="431" y="489" type="curve" smooth="yes"/>
      <point x="251" y="98" type="line"/>
      <point x="59" y="487" type="line"/>
      <point x="54" y="496"/>
      <point x="47" y="500"/>
      <point x="40" y="500" type="curve" smooth="yes"/>
      <point x="29" y="500"/>
      <point x="21" y="491"/>
      <point x="21" y="480" type="curve" smooth="yes"/>
      <point x="21" y="476"/>
      <point x="22" y="473"/>
      <point x="24" y="469" type="curve" smooth="yes"/>
      <point x="231" y="53" type="line"/>
      <point x="127" y="-173" type="line"/>
      <point x="125" y="-178"/>
      <point x="123" y="-183"/>
      <point x="123" y="-187" type="curve" smooth="yes"/>
      <point x="123" y="-197"/>
      <point x="133" y="-205"/>
      <point x="143" y="-205" type="curve" smooth="yes"/>
      <point x="151" y="-205"/>
      <point x="157" y="-201"/>
      <point x="161" y="-193" type="curve" smooth="yes"/>
    </contour>
  </outline>
</glyph>
<glyph name="z" format="1">
  <advance width="499"/>
  <unicode hex="007A"/>
  <outline>
    <contour>
      <point x="57" y="30" type="line"/>
      <point x="53" y="24"/>
      <point x="52" y="22"/>
      <point x="52" y="18" type="curve" smooth="yes"/>
      <point x="52" y="7"/>
      <point x="61" y="-1"/>
      <point x="71" y="-1" type="curve" smooth="yes"/>
      <point x="439" y="-1" type="line" smooth="yes"/>
      <point x="449" y="-1"/>
      <point x="458" y="7"/>
      <point x="458" y="18" type="curve" smooth="yes"/>
      <point x="458" y="28"/>
      <point x="449" y="36"/>
      <point x="439" y="36" type="curve" smooth="yes"/>
      <point x="104" y="36" type="line"/>
      <point x="448" y="470" type="line"/>
      <point x="451" y="473"/>
      <point x="452" y="477"/>
      <point x="452" y="481" type="curve" smooth="yes"/>
      <point x="452" y="492"/>
      <point x="444" y="500"/>
      <point x="434" y="500" type="curve" smooth="yes"/>
      <point x="82" y="500" type="line" smooth="yes"/>
      <point x="72" y="500"/>
      <point x="64" y="492"/>
      <point x="64" y="481" type="curve" smooth="yes"/>
      <point x="64" y="471"/>
      <point x="72" y="463"/>
      <point x="82" y="463" type="curve" smooth="yes"/>
      <point x="400" y="463" type="line"/>
    </contour>
  </outline>
</glyph>
<glyph name="asciitilde" format="1">
  <advance width="630"/>
  <unicode hex="007E"/>
  <outline>
    <contour>
      <point x="574" y="302"/>
      <point x="574" y="305"/>
      <point x="574" y="309" type="curve" smooth="yes"/>
      <point x="574" y="319"/>
      <point x="567" y="326"/>
      <point x="558" y="326" type="curve" smooth="yes"/>
      <point x="550" y="326"/>
      <point x="543" y="320"/>
      <point x="537" y="306" type="curve"/>
      <point x="522" y="266"/>
      <point x="485" y="192"/>
      <point x="424" y="192" type="curve" smooth="yes"/>
      <point x="385" y="192"/>
      <point x="363" y="219"/>
      <point x="331" y="262" type="curve" smooth="yes"/>
      <point x="302" y="301"/>
      <point x="270" y="346"/>
      <point x="210" y="346" type="curve" smooth="yes"/>
      <point x="139" y="346"/>
      <point x="94" y="286"/>
      <point x="69" y="220" type="curve"/>
      <point x="68" y="217"/>
      <point x="66" y="213"/>
      <point x="66" y="207" type="curve" smooth="yes"/>
      <point x="66" y="199"/>
      <point x="74" y="192"/>
      <point x="84" y="192" type="curve" smooth="yes"/>
      <point x="94" y="192"/>
      <point x="99" y="197"/>
      <point x="101" y="205" type="curve" smooth="yes"/>
      <point x="113" y="248"/>
      <point x="150" y="311"/>
      <point x="210" y="311" type="curve" smooth="yes"/>
      <point x="249" y="311"/>
      <point x="272" y="284"/>
      <point x="302" y="242" type="curve" smooth="yes"/>
      <point x="332" y="201"/>
      <point x="364" y="156"/>
      <point x="424" y="156" type="curve" smooth="yes"/>
      <point x="511" y="156"/>
      <point x="555" y="248"/>
      <point x="572" y="296" type="curve" smooth="yes"/>
    </contour>
  </outline>
</glyph>
<glyph name="exclamdown" format="1">
  <advance width="186"/>
  <unicode hex="00A1"/>
  <outline>
    <contour>
      <point x="103" y="318" type="line" smooth="yes"/>
      <point x="103" y="328"/>
      <point x="93" y="338"/>
      <point x="83" y="338" type="curve" smooth="yes"/>
      <point x="72" y="338"/>
      <point x="63" y="328"/>
      <point x="63" y="318" type="curve" smooth="yes"/>
      <point x="63" y="-184" type="line" smooth="yes"/>
      <point x="63" y="-196"/>
      <point x="72" y="-205"/>
      <point x="83" y="-205" type="curve" smooth="yes"/>
      <point x="93" y="-205"/>
      <point x="103" y="-196"/>
      <point x="103" y="-184" type="curve" smooth="yes"/>
    </contour>
    <contour>
      <point x="61" y="443"/>
      <point x="70" y="430"/>
      <point x="84" y="430" type="curve" smooth="yes"/>
      <point x="101" y="430"/>
      <point x="115" y="448"/>
      <point x="115" y="468" type="curve" smooth="yes"/>
      <point x="115" y="483"/>
      <point x="106" y="496"/>
      <point x="92" y="496" type="curve" smooth="yes"/>
      <point x="77" y="496"/>
      <point x="61" y="479"/>
      <point x="61" y="457" type="curve" smooth="yes"/>
    </contour>
  </outline>
</glyph>
<glyph name="cent" format="1">
  <advance width="546"/>
  <unicode hex="00A2"/>
  <outline>
    <contour>
      <point x="456" y="227"/>
      <point x="450" y="219"/>
      <point x="446" y="214" type="curve" smooth="yes"/>
      <point x="412" y="169"/>
      <point x="358" y="139"/>
      <point x="291" y="135" type="curve"/>
      <point x="302" y="572" type="line"/>
      <point x="351" y="568"/>
      <point x="391" y="547"/>
      <point x="421" y="510" type="curve" smooth="yes"/>
      <point x="425" y="505"/>
      <point x="429" y="504"/>
      <point x="434" y="504" type="curve" smooth="yes"/>
      <point x="443" y="504"/>
      <point x="451" y="512"/>
      <point x="451" y="521" type="curve" smooth="yes"/>
      <point x="451" y="553"/>
      <point x="361" y="604"/>
      <point x="304" y="602" type="curve"/>
      <point x="306" y="683" type="line" smooth="yes"/>
      <point x="306" y="692"/>
      <point x="300" y="699"/>
      <point x="291" y="699" type="curve" smooth="yes"/>
      <point x="283" y="699"/>
      <point x="275" y="694"/>
      <point x="275" y="684" type="curve" smooth="yes"/>
      <point x="273" y="601" type="line"/>
      <point x="149" y="563"/>
      <point x="77" y="440"/>
      <point x="77" y="317" type="curve" smooth="yes"/>
      <point x="77" y="252"/>
      <point x="109" y="142"/>
      <point x="258" y="105" type="curve"/>
      <point x="256" y="17" type="line" smooth="yes"/>
      <point x="256" y="7"/>
      <point x="263" y="0"/>
      <point x="272" y="0" type="curve" smooth="yes"/>
      <point x="280" y="0"/>
      <point x="287" y="6"/>
      <point x="287" y="15" type="curve" smooth="yes"/>
      <point x="289" y="104" type="line"/>
      <point x="369" y="104"/>
      <point x="438" y="143"/>
      <point x="476" y="196" type="curve" smooth="yes"/>
      <point x="479" y="200"/>
      <point x="481" y="204"/>
      <point x="481" y="208" type="curve" smooth="yes"/>
      <point x="481" y="219"/>
      <point x="473" y="227"/>
      <point x="463" y="227" type="curve" smooth="yes"/>
    </contour>
    <contour>
      <point x="111" y="387"/>
      <point x="153" y="529"/>
      <point x="271" y="568" type="curve"/>
      <point x="260" y="138" type="line"/>
      <point x="175" y="158"/>
      <point x="111" y="228"/>
      <point x="111" y="319" type="curve" smooth="yes"/>
    </contour>
  </outline>
</glyph>
<glyph name="yen" format="1">
  <advance width="563"/>
  <unicode hex="00A5"/>
  <outline>
    <contour>
      <point x="495" y="674" type="line" smooth="yes"/>
      <point x="497" y="678"/>
      <point x="498" y="681"/>
      <point x="498" y="685" type="curve" smooth="yes"/>
      <point x="498" y="695"/>
      <point x="488" y="702"/>
      <point x="478" y="702" type="curve" smooth="yes"/>
      <point x="472" y="702"/>
      <point x="466" y="699"/>
      <point x="462" y="692" type="curve" smooth="yes"/>
      <point x="277" y="350" type="line"/>
      <point x="107" y="691" type="line" smooth="yes"/>
      <point x="104" y="697"/>
      <point x="97" y="700"/>
      <point x="91" y="700" type="curve" smooth="yes"/>
      <point x="80" y="700"/>
      <point x="71" y="691"/>
      <point x="71" y="681" type="curve" smooth="yes"/>
      <point x="71" y="678"/>
      <point x="72" y="676"/>
      <point x="73" y="673" type="curve"/>
      <point x="241" y="336" type="line"/>
      <point x="126" y="336" type="line" smooth="yes"/>
      <point x="116" y="336"/>
      <point x="108" y="327"/>
      <point x="108" y="318" type="curve" smooth="yes"/>
      <point x="108" y="308"/>
      <point x="116" y="300"/>
      <point x="126" y="300" type="curve" smooth="yes"/>
      <point x="257" y="300" type="line"/>
      <point x="257" y="175" type="line"/>
      <point x="126" y="175" type="line" smooth="yes"/>
      <point x="116" y="175"/>
      <point x="108" y="167"/>
      <point x="108" y="157" type="curve" smooth="yes"/>
      <point x="108" y="148"/>
      <point x="116" y="140"/>
      <point x="126" y="140" type="curve" smooth="yes"/>
      <point x="257" y="140" type="line"/>
      <point x="257" y="19" type="line" smooth="yes"/>
      <point x="257" y="8"/>
      <point x="265" y="0"/>
      <point x="276" y="0" type="curve" smooth="yes"/>
      <point x="286" y="0"/>
      <point x="294" y="8"/>
      <point x="294" y="19" type="curve" smooth="yes"/>
      <point x="294" y="140" type="line"/>
      <point x="427" y="140" type="line" smooth="yes"/>
      <point x="436" y="140"/>
      <point x="444" y="148"/>
      <point x="444" y="157" type="curve" smooth="yes"/>
      <point x="444" y="167"/>
      <point x="436" y="175"/>
      <point x="427" y="175" type="curve" smooth="yes"/>
      <point x="294" y="175" type="line"/>
      <point x="294" y="300" type="line"/>
      <point x="427" y="300" type="line" smooth="yes"/>
      <point x="436" y="300"/>
      <point x="444" y="308"/>
      <point x="444" y="318" type="curve" smooth="yes"/>
      <point x="444" y="327"/>
      <point x="436" y="336"/>
      <point x="427" y="336" type="curve" smooth="yes"/>
      <point x="311" y="336" type="line"/>
    </contour>
  </outline>
</glyph>
<glyph name="section" format="1">
  <advance width="447"/>
  <unicode hex="00A7"/>
  <outline>
    <contour>
      <point x="311" y="376"/>
      <point x="365" y="354"/>
      <point x="365" y="293" type="curve" smooth="yes"/>
      <point x="365" y="277"/>
      <point x="361" y="260"/>
      <point x="351" y="239" type="curve"/>
      <point x="317" y="257"/>
      <point x="275" y="273"/>
      <point x="236" y="284" type="curve" smooth="yes"/>
      <point x="191" y="298"/>
      <point x="117" y="321"/>
      <point x="117" y="386" type="curve" smooth="yes"/>
      <point x="117" y="405"/>
      <point x="125" y="422"/>
      <point x="141" y="440" type="curve"/>
      <point x="177" y="421"/>
      <point x="201" y="411"/>
      <point x="222" y="404" type="curve" smooth="yes"/>
    </contour>
    <contour>
      <point x="366" y="533"/>
      <point x="364" y="529"/>
      <point x="364" y="524" type="curve" smooth="yes"/>
      <point x="364" y="515"/>
      <point x="370" y="506"/>
      <point x="382" y="506" type="curve" smooth="yes"/>
      <point x="395" y="506"/>
      <point x="401" y="520"/>
      <point x="401" y="544" type="curve" smooth="yes"/>
      <point x="401" y="608"/>
      <point x="349" y="650"/>
      <point x="251" y="650" type="curve" smooth="yes"/>
      <point x="181" y="650"/>
      <point x="83" y="627"/>
      <point x="83" y="537" type="curve" smooth="yes"/>
      <point x="83" y="508"/>
      <point x="93" y="483"/>
      <point x="113" y="460" type="curve"/>
      <point x="95" y="440"/>
      <point x="84" y="416"/>
      <point x="84" y="388" type="curve" smooth="yes"/>
      <point x="84" y="320"/>
      <point x="131" y="282"/>
      <point x="236" y="251" type="curve" smooth="yes"/>
      <point x="345" y="218"/>
      <point x="366" y="191"/>
      <point x="366" y="143" type="curve" smooth="yes"/>
      <point x="366" y="100"/>
      <point x="334" y="34"/>
      <point x="233" y="34" type="curve" smooth="yes"/>
      <point x="161" y="34"/>
      <point x="107" y="71"/>
      <point x="87" y="130" type="curve"/>
      <point x="85" y="137"/>
      <point x="80" y="143"/>
      <point x="71" y="143" type="curve" smooth="yes"/>
      <point x="61" y="143"/>
      <point x="54" y="134"/>
      <point x="54" y="125" type="curve" smooth="yes"/>
      <point x="54" y="93"/>
      <point x="112" y="0"/>
      <point x="233" y="0" type="curve" smooth="yes"/>
      <point x="336" y="0"/>
      <point x="401" y="72"/>
      <point x="401" y="136" type="curve" smooth="yes"/>
      <point x="401" y="169"/>
      <point x="391" y="195"/>
      <point x="376" y="217" type="curve"/>
      <point x="392" y="241"/>
      <point x="400" y="265"/>
      <point x="400" y="285" type="curve" smooth="yes"/>
      <point x="400" y="381"/>
      <point x="328" y="403"/>
      <point x="235" y="433" type="curve" smooth="yes"/>
      <point x="190" y="447"/>
      <point x="116" y="468"/>
      <point x="116" y="535" type="curve" smooth="yes"/>
      <point x="116" y="589"/>
      <point x="173" y="619"/>
      <point x="253" y="619" type="curve" smooth="yes"/>
      <point x="332" y="619"/>
      <point x="366" y="590"/>
      <point x="366" y="545" type="curve" smooth="yes"/>
    </contour>
  </outline>
</glyph>
<glyph name="copyright" format="1">
  <advance width="534"/>
  <unicode hex="00A9"/>
  <outline>
    <contour>
      <point x="395" y="246"/>
      <point x="494" y="348"/>
      <point x="494" y="472" type="curve" smooth="yes"/>
      <point x="494" y="596"/>
      <point x="395" y="698"/>
      <point x="273" y="698" type="curve" smooth="yes"/>
      <point x="151" y="698"/>
      <point x="52" y="596"/>
      <point x="52" y="472" type="curve" smooth="yes"/>
      <point x="52" y="348"/>
      <point x="151" y="246"/>
      <point x="273" y="246" type="curve" smooth="yes"/>
    </contour>
    <contour>
      <point x="380" y="671"/>
      <point x="467" y="582"/>
      <point x="467" y="472" type="curve" smooth="yes"/>
      <point x="467" y="362"/>
      <point x="380" y="273"/>
      <point x="273" y="273" type="curve" smooth="yes"/>
      <point x="165" y="273"/>
      <point x="79" y="362"/>
      <point x="79" y="472" type="curve" smooth="yes"/>
      <point x="79" y="582"/>
      <point x="165" y="671"/>
      <point x="273" y="671" type="curve" smooth="yes"/>
    </contour>
    <contour>
      <point x="376" y="420"/>
      <point x="377" y="424"/>
      <point x="377" y="427" type="curve" smooth="yes"/>
      <point x="377" y="435"/>
      <point x="371" y="441"/>
      <point x="363" y="441" type="curve" smooth="yes"/>
      <point x="358" y="441"/>
      <point x="355" y="439"/>
      <point x="349" y="430" type="curve" smooth="yes"/>
      <point x="331" y="401"/>
      <point x="298" y="390"/>
      <point x="264" y="390" type="curve" smooth="yes"/>
      <point x="224" y="390"/>
      <point x="180" y="423"/>
      <point x="180" y="473" type="curve" smooth="yes"/>
      <point x="180" y="502"/>
      <point x="189" y="568"/>
      <point x="275" y="568" type="curve" smooth="yes"/>
      <point x="298" y="568"/>
      <point x="319" y="557"/>
      <point x="330" y="548" type="curve" smooth="yes"/>
      <point x="335" y="544"/>
      <point x="339" y="543"/>
      <point x="342" y="543" type="curve" smooth="yes"/>
      <point x="350" y="543"/>
      <point x="355" y="549"/>
      <point x="355" y="556" type="curve" smooth="yes"/>
      <point x="355" y="561"/>
      <point x="354" y="565"/>
      <point x="347" y="570" type="curve" smooth="yes"/>
      <point x="329" y="582"/>
      <point x="305" y="595"/>
      <point x="275" y="595" type="curve" smooth="yes"/>
      <point x="201" y="595"/>
      <point x="152" y="547"/>
      <point x="152" y="473" type="curve" smooth="yes"/>
      <point x="152" y="413"/>
      <point x="203" y="363"/>
      <point x="264" y="363" type="curve" smooth="yes"/>
      <point x="321" y="363"/>
      <point x="354" y="390"/>
      <point x="373" y="416" type="curve" smooth="yes"/>
    </contour>
  </outline>
</glyph>
<glyph name="ordfeminine" format="1">
  <advance width="240"/>
  <unicode hex="00AA"/>
  <outline>
    <contour>
      <point x="235" y="356"/>
      <point x="242" y="362"/>
      <point x="242" y="372" type="curve"/>
      <point x="241" y="650" type="line"/>
      <point x="225" y="662"/>
      <point x="185" y="675"/>
      <point x="146" y="675" type="curve" smooth="yes"/>
      <point x="53" y="675"/>
      <point x="3" y="577"/>
      <point x="3" y="493" type="curve" smooth="yes"/>
      <point x="3" y="418"/>
      <point x="51" y="362"/>
      <point x="115" y="362" type="curve" smooth="yes"/>
      <point x="148" y="362"/>
      <point x="174" y="372"/>
      <point x="209" y="395" type="curve"/>
      <point x="209" y="361"/>
      <point x="218" y="356"/>
      <point x="227" y="356" type="curve" smooth="yes"/>
    </contour>
    <contour>
      <point x="168" y="644"/>
      <point x="198" y="638"/>
      <point x="211" y="630" type="curve"/>
      <point x="208" y="428" type="line"/>
      <point x="195" y="419"/>
      <point x="155" y="392"/>
      <point x="116" y="392" type="curve" smooth="yes"/>
      <point x="58" y="392"/>
      <point x="34" y="449"/>
      <point x="34" y="495" type="curve" smooth="yes"/>
      <point x="34" y="556"/>
      <point x="67" y="644"/>
      <point x="150" y="644" type="curve" smooth="yes"/>
    </contour>
  </outline>
</glyph>
<glyph name="logicalnot" format="1">
  <advance width="470"/>
  <unicode hex="00AC"/>
  <outline>
    <contour>
      <point x="409" y="130"/>
      <point x="416" y="138"/>
      <point x="416" y="146" type="curve" smooth="yes"/>
      <point x="417" y="305" type="line" smooth="yes"/>
      <point x="417" y="316"/>
      <point x="409" y="322"/>
      <point x="401" y="322" type="curve" smooth="yes"/>
      <point x="58" y="322" type="line" smooth="yes"/>
      <point x="50" y="322"/>
      <point x="42" y="315"/>
      <point x="42" y="305" type="curve" smooth="yes"/>
      <point x="42" y="297"/>
      <point x="50" y="290"/>
      <point x="58" y="290" type="curve" smooth="yes"/>
      <point x="385" y="290" type="line"/>
      <point x="384" y="146" type="line" smooth="yes"/>
      <point x="384" y="138"/>
      <point x="391" y="130"/>
      <point x="401" y="130" type="curve" smooth="yes"/>
    </contour>
  </outline>
</glyph>
<glyph name="registered" format="1">
  <advance width="534"/>
  <unicode hex="00AE"/>
  <outline>
    <contour>
      <point x="395" y="246"/>
      <point x="494" y="348"/>
      <point x="494" y="472" type="curve" smooth="yes"/>
      <point x="494" y="596"/>
      <point x="395" y="698"/>
      <point x="273" y="698" type="curve" smooth="yes"/>
      <point x="151" y="698"/>
      <point x="52" y="596"/>
      <point x="52" y="472" type="curve" smooth="yes"/>
      <point x="52" y="348"/>
      <point x="151" y="246"/>
      <point x="273" y="246" type="curve" smooth="yes"/>
    </contour>
    <contour>
      <point x="380" y="671"/>
      <point x="467" y="582"/>
      <point x="467" y="472" type="curve" smooth="yes"/>
      <point x="467" y="362"/>
      <point x="380" y="273"/>
      <point x="273" y="273" type="curve" smooth="yes"/>
      <point x="165" y="273"/>
      <point x="79" y="362"/>
      <point x="79" y="472" type="curve" smooth="yes"/>
      <point x="79" y="582"/>
      <point x="165" y="671"/>
      <point x="273" y="671" type="curve" smooth="yes"/>
    </contour>
    <contour>
      <point x="383" y="569"/>
      <point x="345" y="594"/>
      <point x="274" y="594" type="curve" smooth="yes"/>
      <point x="207" y="594"/>
      <point x="206" y="590"/>
      <point x="204" y="578" type="curve" smooth="yes"/>
      <point x="174" y="394" type="line"/>
      <point x="172" y="384"/>
      <point x="179" y="378"/>
      <point x="186" y="378" type="curve" smooth="yes"/>
      <point x="194" y="378"/>
      <point x="200" y="384"/>
      <point x="201" y="392" type="curve"/>
      <point x="213" y="463" type="line"/>
      <point x="334" y="379" type="line" smooth="yes"/>
      <point x="337" y="377"/>
      <point x="339" y="377"/>
      <point x="341" y="377" type="curve" smooth="yes"/>
      <point x="349" y="377"/>
      <point x="355" y="383"/>
      <point x="355" y="391" type="curve" smooth="yes"/>
      <point x="355" y="396"/>
      <point x="354" y="399"/>
      <point x="351" y="401" type="curve" smooth="yes"/>
      <point x="263" y="461" type="line"/>
      <point x="320" y="472"/>
      <point x="383" y="492"/>
      <point x="383" y="530" type="curve" smooth="yes"/>
    </contour>
    <contour>
      <point x="229" y="565" type="line"/>
      <point x="246" y="567"/>
      <point x="255" y="567"/>
      <point x="265" y="567" type="curve" smooth="yes"/>
      <point x="307" y="567"/>
      <point x="356" y="557"/>
      <point x="356" y="531" type="curve" smooth="yes"/>
      <point x="356" y="511"/>
      <point x="290" y="489"/>
      <point x="217" y="484" type="curve"/>
    </contour>
  </outline>
</glyph>
<glyph name="plusminus" format="1">
  <advance width="431"/>
  <unicode hex="00B1"/>
  <outline>
    <contour>
      <point x="202" y="281" type="line"/>
      <point x="202" y="158" type="line" smooth="yes"/>
      <point x="202" y="150"/>
      <point x="210" y="142"/>
      <point x="220" y="142" type="curve" smooth="yes"/>
      <point x="228" y="142"/>
      <point x="236" y="149"/>
      <point x="236" y="158" type="curve" smooth="yes"/>
      <point x="236" y="281" type="line"/>
      <point x="361" y="281" type="line" smooth="yes"/>
      <point x="370" y="281"/>
      <point x="378" y="289"/>
      <point x="378" y="298" type="curve" smooth="yes"/>
      <point x="378" y="307"/>
      <point x="370" y="316"/>
      <point x="361" y="316" type="curve" smooth="yes"/>
      <point x="236" y="316" type="line"/>
      <point x="236" y="428" type="line" smooth="yes"/>
      <point x="236" y="437"/>
      <point x="229" y="445"/>
      <point x="220" y="445" type="curve" smooth="yes"/>
      <point x="208" y="445"/>
      <point x="202" y="437"/>
      <point x="202" y="428" type="curve" smooth="yes"/>
      <point x="202" y="316" type="line"/>
      <point x="78" y="316" type="line" smooth="yes"/>
      <point x="69" y="316"/>
      <point x="61" y="307"/>
      <point x="61" y="298" type="curve" smooth="yes"/>
      <point x="61" y="289"/>
      <point x="69" y="281"/>
      <point x="78" y="281" type="curve" smooth="yes"/>
    </contour>
    <contour>
      <point x="78" y="5"/>
      <point x="86" y="-1"/>
      <point x="95" y="-1" type="curve" smooth="yes"/>
      <point x="344" y="-1" type="line" smooth="yes"/>
      <point x="353" y="-1"/>
      <point x="360" y="6"/>
      <point x="360" y="17" type="curve" smooth="yes"/>
      <point x="360" y="26"/>
      <point x="353" y="33"/>
      <point x="344" y="33" type="curve" smooth="yes"/>
      <point x="95" y="33" type="line" smooth="yes"/>
      <point x="86" y="33"/>
      <point x="78" y="26"/>
      <point x="78" y="17" type="curve" smooth="yes"/>
    </contour>
  </outline>
</glyph>
<glyph name="threesuperior" format="1">
  <advance width="226"/>
  <unicode hex="00B3"/>
  <outline>
    <contour>
      <point x="57" y="804"/>
      <point x="72" y="816"/>
      <point x="112" y="816" type="curve" smooth="yes"/>
      <point x="143" y="816"/>
      <point x="192" y="800"/>
      <point x="192" y="761" type="curve" smooth="yes"/>
      <point x="192" y="715"/>
      <point x="140" y="692"/>
      <point x="103" y="690" type="curve"/>
      <point x="95" y="689"/>
      <point x="89" y="686"/>
      <point x="89" y="675" type="curve" smooth="yes"/>
      <point x="89" y="667"/>
      <point x="95" y="663"/>
      <point x="103" y="662" type="curve"/>
      <point x="175" y="656"/>
      <point x="200" y="619"/>
      <point x="200" y="573" type="curve" smooth="yes"/>
      <point x="200" y="509"/>
      <point x="147" y="486"/>
      <point x="113" y="486" type="curve" smooth="yes"/>
      <point x="78" y="486"/>
      <point x="49" y="503"/>
      <point x="28" y="537" type="curve"/>
      <point x="26" y="541"/>
      <point x="22" y="543"/>
      <point x="17" y="543" type="curve" smooth="yes"/>
      <point x="8" y="543"/>
      <point x="3" y="537"/>
      <point x="3" y="529" type="curve" smooth="yes"/>
      <point x="3" y="525"/>
      <point x="4" y="522"/>
      <point x="6" y="518" type="curve"/>
      <point x="21" y="493"/>
      <point x="54" y="458"/>
      <point x="113" y="458" type="curve" smooth="yes"/>
      <point x="174" y="458"/>
      <point x="228" y="504"/>
      <point x="228" y="573" type="curve" smooth="yes"/>
      <point x="228" y="617"/>
      <point x="208" y="655"/>
      <point x="157" y="677" type="curve"/>
      <point x="195" y="696"/>
      <point x="219" y="728"/>
      <point x="219" y="761" type="curve" smooth="yes"/>
      <point x="219" y="814"/>
      <point x="167" y="844"/>
      <point x="114" y="844" type="curve" smooth="yes"/>
      <point x="63" y="844"/>
      <point x="20" y="821"/>
      <point x="20" y="802" type="curve" smooth="yes"/>
      <point x="20" y="794"/>
      <point x="27" y="789"/>
      <point x="33" y="789" type="curve" smooth="yes"/>
      <point x="36" y="789"/>
      <point x="40" y="790"/>
      <point x="45" y="794" type="curve" smooth="yes"/>
    </contour>
  </outline>
</glyph>
<glyph name="paragraph" format="1">
  <advance width="549"/>
  <unicode hex="00B6"/>
  <outline>
    <contour>
      <point x="451" y="152"/>
      <point x="482" y="402"/>
      <point x="482" y="650" type="curve" smooth="yes"/>
      <point x="482" y="677"/>
      <point x="483" y="705"/>
      <point x="481" y="734" type="curve"/>
      <point x="480" y="743"/>
      <point x="472" y="751"/>
      <point x="462" y="751" type="curve" smooth="yes"/>
      <point x="452" y="751"/>
      <point x="444" y="742"/>
      <point x="444" y="731" type="curve"/>
      <point x="445" y="704"/>
      <point x="445" y="677"/>
      <point x="445" y="650" type="curve" smooth="yes"/>
      <point x="445" y="377"/>
      <point x="411" y="139"/>
      <point x="374" y="-61" type="curve" smooth="yes"/>
      <point x="372" y="-71"/>
      <point x="375" y="-84"/>
      <point x="390" y="-84" type="curve" smooth="yes"/>
      <point x="399" y="-84"/>
      <point x="407" y="-79"/>
      <point x="409" y="-68" type="curve" smooth="yes"/>
    </contour>
    <contour>
      <point x="390" y="763" type="line" smooth="yes"/>
      <point x="403" y="766"/>
      <point x="405" y="774"/>
      <point x="405" y="782" type="curve" smooth="yes"/>
      <point x="405" y="793"/>
      <point x="397" y="800"/>
      <point x="388" y="798" type="curve" smooth="yes"/>
      <point x="227" y="768"/>
      <point x="72" y="683"/>
      <point x="72" y="538" type="curve" smooth="yes"/>
      <point x="72" y="413"/>
      <point x="175" y="364"/>
      <point x="284" y="364" type="curve" smooth="yes"/>
      <point x="315" y="364" type="line"/>
      <point x="310" y="278"/>
      <point x="278" y="22"/>
      <point x="256" y="-61" type="curve" smooth="yes"/>
      <point x="253" y="-71"/>
      <point x="258" y="-84"/>
      <point x="273" y="-84" type="curve" smooth="yes"/>
      <point x="282" y="-84"/>
      <point x="290" y="-80"/>
      <point x="292" y="-69" type="curve" smooth="yes"/>
      <point x="330" y="138"/>
      <point x="364" y="394"/>
      <point x="364" y="639" type="curve" smooth="yes"/>
      <point x="364" y="675"/>
      <point x="363" y="720"/>
      <point x="362" y="756" type="curve"/>
    </contour>
  </outline>
</glyph>
<glyph name="cedilla" format="1">
  <advance width="490"/>
  <unicode hex="00B8"/>
  <outline>
    <contour>
      <point x="203" y="-18"/>
      <point x="188" y="-65"/>
      <point x="188" y="-69" type="curve" smooth="yes"/>
      <point x="188" y="-75"/>
      <point x="193" y="-79"/>
      <point x="199" y="-79" type="curve" smooth="yes"/>
      <point x="201" y="-79"/>
      <point x="204" y="-78"/>
      <point x="208" y="-75" type="curve" smooth="yes"/>
      <point x="215" y="-70"/>
      <point x="226" y="-64"/>
      <point x="244" y="-64" type="curve" smooth="yes"/>
      <point x="278" y="-64"/>
      <point x="305" y="-91"/>
      <point x="305" y="-125" type="curve" smooth="yes"/>
      <point x="305" y="-159"/>
      <point x="278" y="-187"/>
      <point x="244" y="-187" type="curve" smooth="yes"/>
      <point x="215" y="-187"/>
      <point x="203" y="-174"/>
      <point x="194" y="-164" type="curve"/>
      <point x="190" y="-159"/>
      <point x="187" y="-154"/>
      <point x="182" y="-154" type="curve" smooth="yes"/>
      <point x="177" y="-154"/>
      <point x="172" y="-157"/>
      <point x="172" y="-163" type="curve" smooth="yes"/>
      <point x="172" y="-189"/>
      <point x="213" y="-209"/>
      <point x="244" y="-209" type="curve" smooth="yes"/>
      <point x="291" y="-209"/>
      <point x="328" y="-170"/>
      <point x="328" y="-123" type="curve" smooth="yes"/>
      <point x="328" y="-78"/>
      <point x="293" y="-41"/>
      <point x="222" y="-41" type="curve"/>
      <point x="224" y="13" type="line"/>
      <point x="224" y="21"/>
      <point x="223" y="23"/>
      <point x="221" y="23" type="curve" smooth="yes"/>
      <point x="218" y="23"/>
      <point x="216" y="17"/>
      <point x="206" y="-9" type="curve"/>
    </contour>
  </outline>
</glyph>
<glyph name="onesuperior" format="1">
  <advance width="156"/>
  <unicode hex="00B9"/>
  <outline>
    <contour>
      <point x="8" y="761" type="line"/>
      <point x="5" y="758"/>
      <point x="4" y="754"/>
      <point x="4" y="750" type="curve" smooth="yes"/>
      <point x="4" y="742"/>
      <point x="11" y="737"/>
      <point x="16" y="737" type="curve" smooth="yes"/>
      <point x="20" y="737"/>
      <point x="25" y="737"/>
      <point x="30" y="743" type="curve"/>
      <point x="76" y="793" type="line"/>
      <point x="71" y="490" type="line"/>
      <point x="19" y="490" type="line" smooth="yes"/>
      <point x="12" y="490"/>
      <point x="6" y="485"/>
      <point x="6" y="476" type="curve" smooth="yes"/>
      <point x="6" y="469"/>
      <point x="10" y="463"/>
      <point x="19" y="463" type="curve" smooth="yes"/>
      <point x="142" y="463" type="line" smooth="yes"/>
      <point x="149" y="463"/>
      <point x="156" y="468"/>
      <point x="156" y="476" type="curve" smooth="yes"/>
      <point x="156" y="483"/>
      <point x="150" y="490"/>
      <point x="142" y="490" type="curve" smooth="yes"/>
      <point x="98" y="490" type="line"/>
      <point x="104" y="828" type="line" smooth="yes"/>
      <point x="104" y="838"/>
      <point x="98" y="843"/>
      <point x="90" y="843" type="curve" smooth="yes"/>
      <point x="87" y="843"/>
      <point x="83" y="842"/>
      <point x="79" y="838" type="curve"/>
    </contour>
  </outline>
</glyph>
<glyph name="ordmasculine" format="1">
  <advance width="267"/>
  <unicode hex="00BA"/>
  <outline>
    <contour>
      <point x="223" y="362"/>
      <point x="270" y="462"/>
      <point x="270" y="526" type="curve" smooth="yes"/>
      <point x="270" y="613"/>
      <point x="213" y="670"/>
      <point x="146" y="670" type="curve" smooth="yes"/>
      <point x="57" y="670"/>
      <point x="3" y="580"/>
      <point x="3" y="501" type="curve" smooth="yes"/>
      <point x="3" y="422"/>
      <point x="60" y="362"/>
      <point x="127" y="362" type="curve" smooth="yes"/>
    </contour>
    <contour>
      <point x="197" y="644"/>
      <point x="238" y="586"/>
      <point x="238" y="526" type="curve" smooth="yes"/>
      <point x="238" y="446"/>
      <point x="181" y="388"/>
      <point x="127" y="388" type="curve" smooth="yes"/>
      <point x="73" y="388"/>
      <point x="35" y="442"/>
      <point x="35" y="504" type="curve" smooth="yes"/>
      <point x="35" y="580"/>
      <point x="88" y="644"/>
      <point x="143" y="644" type="curve" smooth="yes"/>
    </contour>
  </outline>
</glyph>
<glyph name="Agrave" format="1">
  <advance width="614"/>
  <unicode hex="00C0"/>
  <outline>
    <contour>
      <point x="53" y="27" type="line"/>
      <point x="52" y="25"/>
      <point x="51" y="21"/>
      <point x="51" y="18" type="curve" smooth="yes"/>
      <point x="51" y="8"/>
      <point x="60" y="0"/>
      <point x="72" y="0" type="curve" smooth="yes"/>
      <point x="80" y="0"/>
      <point x="86" y="4"/>
      <point x="89" y="11" type="curve" smooth="yes"/>
      <point x="167" y="211" type="line"/>
      <point x="444" y="272" type="line"/>
      <point x="533" y="11" type="line" smooth="yes"/>
      <point x="536" y="3"/>
      <point x="542" y="-1"/>
      <point x="550" y="-1" type="curve" smooth="yes"/>
      <point x="561" y="-1"/>
      <point x="571" y="4"/>
      <point x="571" y="15" type="curve" smooth="yes"/>
      <point x="571" y="18"/>
      <point x="571" y="23"/>
      <point x="568" y="32" type="curve" smooth="yes"/>
      <point x="346" y="677" type="line" smooth="yes"/>
      <point x="344" y="683"/>
      <point x="338" y="689"/>
      <point x="328" y="689" type="curve" smooth="yes"/>
      <point x="319" y="689"/>
      <point x="312" y="684"/>
      <point x="309" y="677" type="curve" smooth="yes"/>
      <point x="139" y="244" type="line"/>
      <point x="80" y="231" type="line" smooth="yes"/>
      <point x="72" y="229"/>
      <point x="65" y="222"/>
      <point x="65" y="212" type="curve" smooth="yes"/>
      <point x="65" y="202"/>
      <point x="73" y="192"/>
      <point x="85" y="194" type="curve"/>
      <point x="122" y="203" type="line"/>
    </contour>
    <contour>
      <point x="184" y="253" type="line"/>
      <point x="325" y="614" type="line"/>
      <point x="431" y="307" type="line"/>
    </contour>
    <contour>
      <point x="273" y="901" type="line" smooth="yes"/>
      <point x="267" y="909"/>
      <point x="260" y="912"/>
      <point x="252" y="912" type="curve" smooth="yes"/>
      <point x="238" y="912"/>
      <point x="225" y="901"/>
      <point x="225" y="887" type="curve" smooth="yes"/>
      <point x="225" y="880"/>
      <point x="228" y="874"/>
      <point x="233" y="868" type="curve"/>
      <point x="356" y="742" type="line" smooth="yes"/>
      <point x="360" y="738"/>
      <point x="365" y="736"/>
      <point x="369" y="736" type="curve" smooth="yes"/>
      <point x="378" y="736"/>
      <point x="388" y="742"/>
      <point x="388" y="752" type="curve" smooth="yes"/>
      <point x="388" y="756"/>
      <point x="386" y="760"/>
      <point x="382" y="765" type="curve" smooth="yes"/>
    </contour>
  </outline>
</glyph>
<glyph name="Acircumflex" format="1">
  <advance width="614"/>
  <unicode hex="00C2"/>
  <outline>
    <contour>
      <point x="332" y="902"/>
      <point x="327" y="900"/>
      <point x="323" y="897" type="curve"/>
      <point x="188" y="784" type="line"/>
      <point x="184" y="781"/>
      <point x="181" y="776"/>
      <point x="181" y="771" type="curve" smooth="yes"/>
      <point x="181" y="762"/>
      <point x="189" y="753"/>
      <point x="199" y="753" type="curve" smooth="yes"/>
      <point x="203" y="753"/>
      <point x="207" y="755"/>
      <point x="210" y="757" type="curve"/>
      <point x="334" y="853" type="line"/>
      <point x="439" y="758" type="line"/>
      <point x="443" y="755"/>
      <point x="447" y="753"/>
      <point x="452" y="753" type="curve" smooth="yes"/>
      <point x="461" y="753"/>
      <point x="469" y="762"/>
      <point x="469" y="771" type="curve" smooth="yes"/>
      <point x="469" y="776"/>
      <point x="467" y="779"/>
      <point x="463" y="783" type="curve" smooth="yes"/>
      <point x="351" y="896" type="line" smooth="yes"/>
      <point x="347" y="900"/>
      <point x="341" y="902"/>
      <point x="336" y="902" type="curve" smooth="yes"/>
    </contour>
    <contour>
      <point x="53" y="27" type="line"/>
      <point x="52" y="25"/>
      <point x="51" y="21"/>
      <point x="51" y="18" type="curve" smooth="yes"/>
      <point x="51" y="8"/>
      <point x="60" y="0"/>
      <point x="72" y="0" type="curve" smooth="yes"/>
      <point x="80" y="0"/>
      <point x="86" y="4"/>
      <point x="89" y="11" type="curve" smooth="yes"/>
      <point x="167" y="211" type="line"/>
      <point x="444" y="272" type="line"/>
      <point x="533" y="11" type="line" smooth="yes"/>
      <point x="536" y="3"/>
      <point x="542" y="-1"/>
      <point x="550" y="-1" type="curve" smooth="yes"/>
      <point x="561" y="-1"/>
      <point x="571" y="4"/>
      <point x="571" y="15" type="curve" smooth="yes"/>
      <point x="571" y="18"/>
      <point x="571" y="23"/>
      <point x="568" y="32" type="curve" smooth="yes"/>
      <point x="346" y="677" type="line" smooth="yes"/>
      <point x="344" y="683"/>
      <point x="338" y="689"/>
      <point x="328" y="689" type="curve" smooth="yes"/>
      <point x="319" y="689"/>
      <point x="312" y="684"/>
      <point x="309" y="677" type="curve" smooth="yes"/>
      <point x="139" y="244" type="line"/>
      <point x="80" y="231" type="line" smooth="yes"/>
      <point x="72" y="229"/>
      <point x="65" y="222"/>
      <point x="65" y="212" type="curve" smooth="yes"/>
      <point x="65" y="202"/>
      <point x="73" y="192"/>
      <point x="85" y="194" type="curve"/>
      <point x="122" y="203" type="line"/>
    </contour>
    <contour>
      <point x="184" y="253" type="line"/>
      <point x="325" y="614" type="line"/>
      <point x="431" y="307" type="line"/>
    </contour>
  </outline>
</glyph>
<glyph name="Atilde" format="1">
  <advance width="614"/>
  <unicode hex="00C3"/>
  <outline>
    <contour>
      <point x="455" y="812"/>
      <point x="434" y="761"/>
      <point x="396" y="761" type="curve" smooth="yes"/>
      <point x="375" y="761"/>
      <point x="354" y="786"/>
      <point x="337" y="811" type="curve" smooth="yes"/>
      <point x="318" y="839"/>
      <point x="297" y="869"/>
      <point x="256" y="869" type="curve" smooth="yes"/>
      <point x="209" y="869"/>
      <point x="155" y="816"/>
      <point x="155" y="774" type="curve" smooth="yes"/>
      <point x="155" y="766"/>
      <point x="158" y="758"/>
      <point x="168" y="758" type="curve" smooth="yes"/>
      <point x="175" y="758"/>
      <point x="180" y="762"/>
      <point x="183" y="771" type="curve"/>
      <point x="200" y="829"/>
      <point x="240" y="842"/>
      <point x="256" y="842" type="curve" smooth="yes"/>
      <point x="276" y="842"/>
      <point x="287" y="829"/>
      <point x="313" y="792" type="curve" smooth="yes"/>
      <point x="332" y="766"/>
      <point x="353" y="735"/>
      <point x="394" y="735" type="curve" smooth="yes"/>
      <point x="448" y="735"/>
      <point x="497" y="803"/>
      <point x="497" y="841" type="curve" smooth="yes"/>
      <point x="497" y="849"/>
      <point x="492" y="855"/>
      <point x="483" y="855" type="curve" smooth="yes"/>
      <point x="474" y="855"/>
      <point x="469" y="850"/>
      <point x="467" y="844" type="curve"/>
    </contour>
    <contour>
      <point x="53" y="27" type="line"/>
      <point x="52" y="25"/>
      <point x="51" y="21"/>
      <point x="51" y="18" type="curve" smooth="yes"/>
      <point x="51" y="8"/>
      <point x="60" y="0"/>
      <point x="72" y="0" type="curve" smooth="yes"/>
      <point x="80" y="0"/>
      <point x="86" y="4"/>
      <point x="89" y="11" type="curve" smooth="yes"/>
      <point x="167" y="211" type="line"/>
      <point x="444" y="272" type="line"/>
      <point x="533" y="11" type="line" smooth="yes"/>
      <point x="536" y="3"/>
      <point x="542" y="-1"/>
      <point x="550" y="-1" type="curve" smooth="yes"/>
      <point x="561" y="-1"/>
      <point x="571" y="4"/>
      <point x="571" y="15" type="curve" smooth="yes"/>
      <point x="571" y="18"/>
      <point x="571" y="23"/>
      <point x="568" y="32" type="curve" smooth="yes"/>
      <point x="346" y="677" type="line" smooth="yes"/>
      <point x="344" y="683"/>
      <point x="338" y="689"/>
      <point x="328" y="689" type="curve" smooth="yes"/>
      <point x="319" y="689"/>
      <point x="312" y="684"/>
      <point x="309" y="677" type="curve" smooth="yes"/>
      <point x="139" y="244" type="line"/>
      <point x="80" y="231" type="line" smooth="yes"/>
      <point x="72" y="229"/>
      <point x="65" y="222"/>
      <point x="65" y="212" type="curve" smooth="yes"/>
      <point x="65" y="202"/>
      <point x="73" y="192"/>
      <point x="85" y="194" type="curve"/>
      <point x="122" y="203" type="line"/>
    </contour>
    <contour>
      <point x="184" y="253" type="line"/>
      <point x="325" y="614" type="line"/>
      <point x="431" y="307" type="line"/>
    </contour>
  </outline>
</glyph>
<glyph name="Adieresis" format="1">
  <advance width="614"/>
  <unicode hex="00C4"/>
  <outline>
    <contour>
      <point x="283" y="807"/>
      <point x="265" y="820"/>
      <point x="247" y="820" type="curve" smooth="yes"/>
      <point x="223" y="820"/>
      <point x="205" y="804"/>
      <point x="205" y="785" type="curve" smooth="yes"/>
      <point x="205" y="768"/>
      <point x="221" y="755"/>
      <point x="241" y="755" type="curve" smooth="yes"/>
      <point x="264" y="755"/>
      <point x="283" y="771"/>
      <point x="283" y="790" type="curve" smooth="yes"/>
    </contour>
    <contour>
      <point x="447" y="807"/>
      <point x="429" y="820"/>
      <point x="411" y="820" type="curve" smooth="yes"/>
      <point x="387" y="820"/>
      <point x="368" y="804"/>
      <point x="368" y="785" type="curve" smooth="yes"/>
      <point x="368" y="768"/>
      <point x="385" y="755"/>
      <point x="404" y="755" type="curve" smooth="yes"/>
      <point x="428" y="755"/>
      <point x="447" y="771"/>
      <point x="447" y="790" type="curve" smooth="yes"/>
    </contour>
    <contour>
      <point x="53" y="27" type="line"/>
      <point x="52" y="25"/>
      <point x="51" y="21"/>
      <point x="51" y="18" type="curve" smooth="yes"/>
      <point x="51" y="8"/>
      <point x="60" y="0"/>
      <point x="72" y="0" type="curve" smooth="yes"/>
      <point x="80" y="0"/>
      <point x="86" y="4"/>
      <point x="89" y="11" type="curve" smooth="yes"/>
      <point x="167" y="211" type="line"/>
      <point x="444" y="272" type="line"/>
      <point x="533" y="11" type="line" smooth="yes"/>
      <point x="536" y="3"/>
      <point x="542" y="-1"/>
      <point x="550" y="-1" type="curve" smooth="yes"/>
      <point x="561" y="-1"/>
      <point x="571" y="4"/>
      <point x="571" y="15" type="curve" smooth="yes"/>
      <point x="571" y="18"/>
      <point x="571" y="23"/>
      <point x="568" y="32" type="curve" smooth="yes"/>
      <point x="346" y="677" type="line" smooth="yes"/>
      <point x="344" y="683"/>
      <point x="338" y="689"/>
      <point x="328" y="689" type="curve" smooth="yes"/>
      <point x="319" y="689"/>
      <point x="312" y="684"/>
      <point x="309" y="677" type="curve" smooth="yes"/>
      <point x="139" y="244" type="line"/>
      <point x="80" y="231" type="line" smooth="yes"/>
      <point x="72" y="229"/>
      <point x="65" y="222"/>
      <point x="65" y="212" type="curve" smooth="yes"/>
      <point x="65" y="202"/>
      <point x="73" y="192"/>
      <point x="85" y="194" type="curve"/>
      <point x="122" y="203" type="line"/>
    </contour>
    <contour>
      <point x="184" y="253" type="line"/>
      <point x="325" y="614" type="line"/>
      <point x="431" y="307" type="line"/>
    </contour>
  </outline>
</glyph>
<glyph name="Aring" format="1">
  <advance width="614"/>
  <unicode hex="00C5"/>
  <outline>
    <contour>
      <point x="386" y="743"/>
      <point x="451" y="787"/>
      <point x="451" y="852" type="curve" smooth="yes"/>
      <point x="451" y="906"/>
      <point x="401" y="948"/>
      <point x="345" y="948" type="curve" smooth="yes"/>
      <point x="280" y="948"/>
      <point x="215" y="902"/>
      <point x="215" y="838" type="curve" smooth="yes"/>
      <point x="215" y="785"/>
      <point x="263" y="743"/>
      <point x="322" y="743" type="curve" smooth="yes"/>
    </contour>
    <contour>
      <point x="391" y="920"/>
      <point x="428" y="885"/>
      <point x="428" y="850" type="curve" smooth="yes"/>
      <point x="428" y="801"/>
      <point x="371" y="770"/>
      <point x="331" y="770" type="curve" smooth="yes"/>
      <point x="278" y="770"/>
      <point x="238" y="795"/>
      <point x="238" y="838" type="curve" smooth="yes"/>
      <point x="238" y="873"/>
      <point x="279" y="920"/>
      <point x="341" y="920" type="curve" smooth="yes"/>
    </contour>
    <contour>
      <point x="53" y="27" type="line"/>
      <point x="52" y="25"/>
      <point x="51" y="21"/>
      <point x="51" y="18" type="curve" smooth="yes"/>
      <point x="51" y="8"/>
      <point x="60" y="0"/>
      <point x="72" y="0" type="curve" smooth="yes"/>
      <point x="80" y="0"/>
      <point x="86" y="4"/>
      <point x="89" y="11" type="curve" smooth="yes"/>
      <point x="167" y="211" type="line"/>
      <point x="444" y="272" type="line"/>
      <point x="533" y="11" type="line" smooth="yes"/>
      <point x="536" y="3"/>
      <point x="542" y="-1"/>
      <point x="550" y="-1" type="curve" smooth="yes"/>
      <point x="561" y="-1"/>
      <point x="571" y="4"/>
      <point x="571" y="15" type="curve" smooth="yes"/>
      <point x="571" y="18"/>
      <point x="571" y="23"/>
      <point x="568" y="32" type="curve" smooth="yes"/>
      <point x="346" y="677" type="line" smooth="yes"/>
      <point x="344" y="683"/>
      <point x="338" y="689"/>
      <point x="328" y="689" type="curve" smooth="yes"/>
      <point x="319" y="689"/>
      <point x="312" y="684"/>
      <point x="309" y="677" type="curve" smooth="yes"/>
      <point x="139" y="244" type="line"/>
      <point x="80" y="231" type="line" smooth="yes"/>
      <point x="72" y="229"/>
      <point x="65" y="222"/>
      <point x="65" y="212" type="curve" smooth="yes"/>
      <point x="65" y="202"/>
      <point x="73" y="192"/>
      <point x="85" y="194" type="curve"/>
      <point x="122" y="203" type="line"/>
    </contour>
    <contour>
      <point x="184" y="253" type="line"/>
      <point x="325" y="614" type="line"/>
      <point x="431" y="307" type="line"/>
    </contour>
  </outline>
</glyph>
<glyph name="Ecircumflex" format="1">
  <advance width="600"/>
  <unicode hex="00CA"/>
  <outline>
    <contour>
      <point x="324" y="902"/>
      <point x="319" y="900"/>
      <point x="315" y="897" type="curve"/>
      <point x="180" y="784" type="line"/>
      <point x="176" y="781"/>
      <point x="173" y="776"/>
      <point x="173" y="771" type="curve" smooth="yes"/>
      <point x="173" y="762"/>
      <point x="181" y="753"/>
      <point x="191" y="753" type="curve" smooth="yes"/>
      <point x="195" y="753"/>
      <point x="199" y="755"/>
      <point x="202" y="757" type="curve"/>
      <point x="326" y="853" type="line"/>
      <point x="431" y="758" type="line"/>
      <point x="435" y="755"/>
      <point x="439" y="753"/>
      <point x="444" y="753" type="curve" smooth="yes"/>
      <point x="453" y="753"/>
      <point x="461" y="762"/>
      <point x="461" y="771" type="curve" smooth="yes"/>
      <point x="461" y="776"/>
      <point x="459" y="779"/>
      <point x="455" y="783" type="curve" smooth="yes"/>
      <point x="343" y="896" type="line" smooth="yes"/>
      <point x="339" y="900"/>
      <point x="333" y="902"/>
      <point x="328" y="902" type="curve" smooth="yes"/>
    </contour>
    <contour>
      <point x="106" y="38" type="line"/>
      <point x="106" y="334" type="line"/>
      <point x="478" y="334" type="line" smooth="yes"/>
      <point x="488" y="334"/>
      <point x="496" y="343"/>
      <point x="496" y="353" type="curve" smooth="yes"/>
      <point x="496" y="364"/>
      <point x="488" y="372"/>
      <point x="478" y="372" type="curve" smooth="yes"/>
      <point x="106" y="372" type="line"/>
      <point x="106" y="644" type="line"/>
      <point x="528" y="644" type="line" smooth="yes"/>
      <point x="538" y="644"/>
      <point x="547" y="653"/>
      <point x="547" y="664" type="curve" smooth="yes"/>
      <point x="547" y="674"/>
      <point x="538" y="682"/>
      <point x="528" y="682" type="curve" smooth="yes"/>
      <point x="87" y="682" type="line" smooth="yes"/>
      <point x="77" y="682"/>
      <point x="68" y="674"/>
      <point x="68" y="664" type="curve" smooth="yes"/>
      <point x="68" y="20" type="line" smooth="yes"/>
      <point x="68" y="9"/>
      <point x="77" y="0"/>
      <point x="87" y="0" type="curve" smooth="yes"/>
      <point x="526" y="0" type="line" smooth="yes"/>
      <point x="536" y="0"/>
      <point x="545" y="9"/>
      <point x="545" y="20" type="curve" smooth="yes"/>
      <point x="545" y="30"/>
      <point x="536" y="38"/>
      <point x="526" y="38" type="curve" smooth="yes"/>
    </contour>
  </outline>
</glyph>
<glyph name="Igrave" format="1">
  <advance width="423"/>
  <unicode hex="00CC"/>
  <outline>
    <contour>
      <point x="235" y="37" type="line"/>
      <point x="235" y="643" type="line"/>
      <point x="347" y="643" type="line" smooth="yes"/>
      <point x="357" y="643"/>
      <point x="366" y="652"/>
      <point x="366" y="662" type="curve" smooth="yes"/>
      <point x="366" y="673"/>
      <point x="357" y="681"/>
      <point x="347" y="681" type="curve" smooth="yes"/>
      <point x="83" y="681" type="line" smooth="yes"/>
      <point x="73" y="681"/>
      <point x="64" y="673"/>
      <point x="64" y="662" type="curve" smooth="yes"/>
      <point x="64" y="652"/>
      <point x="73" y="643"/>
      <point x="83" y="643" type="curve" smooth="yes"/>
      <point x="197" y="643" type="line"/>
      <point x="197" y="37" type="line"/>
      <point x="83" y="37" type="line" smooth="yes"/>
      <point x="73" y="37"/>
      <point x="64" y="29"/>
      <point x="64" y="19" type="curve" smooth="yes"/>
      <point x="64" y="8"/>
      <point x="73" y="-1"/>
      <point x="83" y="-1" type="curve" smooth="yes"/>
      <point x="347" y="-1" type="line" smooth="yes"/>
      <point x="357" y="-1"/>
      <point x="366" y="8"/>
      <point x="366" y="19" type="curve" smooth="yes"/>
      <point x="366" y="29"/>
      <point x="359" y="37"/>
      <point x="347" y="37" type="curve" smooth="yes"/>
    </contour>
    <contour>
      <point x="175" y="901" type="line" smooth="yes"/>
      <point x="169" y="909"/>
      <point x="162" y="912"/>
      <point x="154" y="912" type="curve" smooth="yes"/>
      <point x="140" y="912"/>
      <point x="127" y="901"/>
      <point x="127" y="887" type="curve" smooth="yes"/>
      <point x="127" y="880"/>
      <point x="130" y="874"/>
      <point x="135" y="868" type="curve"/>
      <point x="258" y="742" type="line" smooth="yes"/>
      <point x="262" y="738"/>
      <point x="267" y="736"/>
      <point x="271" y="736" type="curve" smooth="yes"/>
      <point x="280" y="736"/>
      <point x="290" y="742"/>
      <point x="290" y="752" type="curve" smooth="yes"/>
      <point x="290" y="756"/>
      <point x="288" y="760"/>
      <point x="284" y="765" type="curve" smooth="yes"/>
    </contour>
  </outline>
</glyph>
<glyph name="Icircumflex" format="1">
  <advance width="423"/>
  <unicode hex="00CE"/>
  <outline>
    <contour>
      <point x="228" y="902"/>
      <point x="223" y="900"/>
      <point x="219" y="897" type="curve"/>
      <point x="84" y="784" type="line"/>
      <point x="80" y="781"/>
      <point x="77" y="776"/>
      <point x="77" y="771" type="curve" smooth="yes"/>
      <point x="77" y="762"/>
      <point x="85" y="753"/>
      <point x="95" y="753" type="curve" smooth="yes"/>
      <point x="99" y="753"/>
      <point x="103" y="755"/>
      <point x="106" y="757" type="curve"/>
      <point x="230" y="853" type="line"/>
      <point x="335" y="758" type="line"/>
      <point x="339" y="755"/>
      <point x="343" y="753"/>
      <point x="348" y="753" type="curve" smooth="yes"/>
      <point x="357" y="753"/>
      <point x="365" y="762"/>
      <point x="365" y="771" type="curve" smooth="yes"/>
      <point x="365" y="776"/>
      <point x="363" y="779"/>
      <point x="359" y="783" type="curve" smooth="yes"/>
      <point x="247" y="896" type="line" smooth="yes"/>
      <point x="243" y="900"/>
      <point x="237" y="902"/>
      <point x="232" y="902" type="curve" smooth="yes"/>
    </contour>
    <contour>
      <point x="235" y="37" type="line"/>
      <point x="235" y="643" type="line"/>
      <point x="347" y="643" type="line" smooth="yes"/>
      <point x="357" y="643"/>
      <point x="366" y="652"/>
      <point x="366" y="662" type="curve" smooth="yes"/>
      <point x="366" y="673"/>
      <point x="357" y="681"/>
      <point x="347" y="681" type="curve" smooth="yes"/>
      <point x="83" y="681" type="line" smooth="yes"/>
      <point x="73" y="681"/>
      <point x="64" y="673"/>
      <point x="64" y="662" type="curve" smooth="yes"/>
      <point x="64" y="652"/>
      <point x="73" y="643"/>
      <point x="83" y="643" type="curve" smooth="yes"/>
      <point x="197" y="643" type="line"/>
      <point x="197" y="37" type="line"/>
      <point x="83" y="37" type="line" smooth="yes"/>
      <point x="73" y="37"/>
      <point x="64" y="29"/>
      <point x="64" y="19" type="curve" smooth="yes"/>
      <point x="64" y="8"/>
      <point x="73" y="-1"/>
      <point x="83" y="-1" type="curve" smooth="yes"/>
      <point x="347" y="-1" type="line" smooth="yes"/>
      <point x="357" y="-1"/>
      <point x="366" y="8"/>
      <point x="366" y="19" type="curve" smooth="yes"/>
      <point x="366" y="29"/>
      <point x="359" y="37"/>
      <point x="347" y="37" type="curve" smooth="yes"/>
    </contour>
  </outline>
</glyph>
<glyph name="Idieresis" format="1">
  <advance width="423"/>
  <unicode hex="00CF"/>
  <outline>
    <contour>
      <point x="177" y="807"/>
      <point x="160" y="820"/>
      <point x="141" y="820" type="curve" smooth="yes"/>
      <point x="117" y="820"/>
      <point x="99" y="804"/>
      <point x="99" y="785" type="curve" smooth="yes"/>
      <point x="99" y="768"/>
      <point x="115" y="755"/>
      <point x="135" y="755" type="curve" smooth="yes"/>
      <point x="159" y="755"/>
      <point x="177" y="771"/>
      <point x="177" y="790" type="curve" smooth="yes"/>
    </contour>
    <contour>
      <point x="341" y="807"/>
      <point x="323" y="820"/>
      <point x="305" y="820" type="curve" smooth="yes"/>
      <point x="281" y="820"/>
      <point x="263" y="804"/>
      <point x="263" y="785" type="curve" smooth="yes"/>
      <point x="263" y="768"/>
      <point x="279" y="755"/>
      <point x="299" y="755" type="curve" smooth="yes"/>
      <point x="322" y="755"/>
      <point x="341" y="771"/>
      <point x="341" y="790" type="curve" smooth="yes"/>
    </contour>
    <contour>
      <point x="235" y="37" type="line"/>
      <point x="235" y="643" type="line"/>
      <point x="347" y="643" type="line" smooth="yes"/>
      <point x="357" y="643"/>
      <point x="366" y="652"/>
      <point x="366" y="662" type="curve" smooth="yes"/>
      <point x="366" y="673"/>
      <point x="357" y="681"/>
      <point x="347" y="681" type="curve" smooth="yes"/>
      <point x="83" y="681" type="line" smooth="yes"/>
      <point x="73" y="681"/>
      <point x="64" y="673"/>
      <point x="64" y="662" type="curve" smooth="yes"/>
      <point x="64" y="652"/>
      <point x="73" y="643"/>
      <point x="83" y="643" type="curve" smooth="yes"/>
      <point x="197" y="643" type="line"/>
      <point x="197" y="37" type="line"/>
      <point x="83" y="37" type="line" smooth="yes"/>
      <point x="73" y="37"/>
      <point x="64" y="29"/>
      <point x="64" y="19" type="curve" smooth="yes"/>
      <point x="64" y="8"/>
      <point x="73" y="-1"/>
      <point x="83" y="-1" type="curve" smooth="yes"/>
      <point x="347" y="-1" type="line" smooth="yes"/>
      <point x="357" y="-1"/>
      <point x="366" y="8"/>
      <point x="366" y="19" type="curve" smooth="yes"/>
      <point x="366" y="29"/>
      <point x="359" y="37"/>
      <point x="347" y="37" type="curve" smooth="yes"/>
    </contour>
  </outline>
</glyph>
<glyph name="Oacute" format="1">
  <advance width="650"/>
  <unicode hex="00D3"/>
  <outline>
    <contour>
      <point x="464" y="-2"/>
      <point x="598" y="167"/>
      <point x="598" y="368" type="curve" smooth="yes"/>
      <point x="598" y="540"/>
      <point x="494" y="682"/>
      <point x="352" y="682" type="curve" smooth="yes"/>
      <point x="196" y="682"/>
      <point x="62" y="513"/>
      <point x="62" y="312" type="curve" smooth="yes"/>
      <point x="62" y="142"/>
      <point x="165" y="-2"/>
      <point x="308" y="-2" type="curve" smooth="yes"/>
    </contour>
    <contour>
      <point x="473" y="649"/>
      <point x="564" y="508"/>
      <point x="564" y="364" type="curve" smooth="yes"/>
      <point x="564" y="183"/>
      <point x="440" y="31"/>
      <point x="308" y="31" type="curve" smooth="yes"/>
      <point x="185" y="31"/>
      <point x="96" y="159"/>
      <point x="96" y="312" type="curve" smooth="yes"/>
      <point x="96" y="500"/>
      <point x="213" y="649"/>
      <point x="344" y="649" type="curve" smooth="yes"/>
    </contour>
    <contour>
      <point x="451" y="857" type="line" smooth="yes"/>
      <point x="458" y="862"/>
      <point x="459" y="866"/>
      <point x="459" y="873" type="curve" smooth="yes"/>
      <point x="459" y="887"/>
      <point x="446" y="900"/>
      <point x="435" y="900" type="curve" smooth="yes"/>
      <point x="425" y="900"/>
      <point x="418" y="893"/>
      <point x="409" y="886" type="curve" smooth="yes"/>
      <point x="281" y="782" type="line" smooth="yes"/>
      <point x="275" y="777"/>
      <point x="275" y="772"/>
      <point x="275" y="769" type="curve" smooth="yes"/>
      <point x="275" y="760"/>
      <point x="283" y="752"/>
      <point x="292" y="752" type="curve" smooth="yes"/>
      <point x="296" y="752"/>
      <point x="301" y="754"/>
      <point x="308" y="759" type="curve" smooth="yes"/>
    </contour>
  </outline>
</glyph>
<glyph name="Otilde" format="1">
  <advance width="650"/>
  <unicode hex="00D5"/>
  <outline>
    <contour>
      <point x="464" y="-2"/>
      <point x="598" y="167"/>
      <point x="598" y="368" type="curve" smooth="yes"/>
      <point x="598" y="540"/>
      <point x="494" y="682"/>
      <point x="352" y="682" type="curve" smooth="yes"/>
      <point x="196" y="682"/>
      <point x="62" y="513"/>
      <point x="62" y="312" type="curve" smooth="yes"/>
      <point x="62" y="142"/>
      <point x="165" y="-2"/>
      <point x="308" y="-2" type="curve" smooth="yes"/>
    </contour>
    <contour>
      <point x="473" y="649"/>
      <point x="564" y="508"/>
      <point x="564" y="364" type="curve" smooth="yes"/>
      <point x="564" y="183"/>
      <point x="440" y="31"/>
      <point x="308" y="31" type="curve" smooth="yes"/>
      <point x="185" y="31"/>
      <point x="96" y="159"/>
      <point x="96" y="312" type="curve" smooth="yes"/>
      <point x="96" y="500"/>
      <point x="213" y="649"/>
      <point x="344" y="649" type="curve" smooth="yes"/>
    </contour>
    <contour>
      <point x="498" y="812"/>
      <point x="477" y="761"/>
      <point x="439" y="761" type="curve" smooth="yes"/>
      <point x="418" y="761"/>
      <point x="397" y="786"/>
      <point x="380" y="811" type="curve" smooth="yes"/>
      <point x="361" y="839"/>
      <point x="340" y="869"/>
      <point x="299" y="869" type="curve" smooth="yes"/>
      <point x="252" y="869"/>
      <point x="198" y="816"/>
      <point x="198" y="774" type="curve" smooth="yes"/>
      <point x="198" y="766"/>
      <point x="201" y="758"/>
      <point x="211" y="758" type="curve" smooth="yes"/>
      <point x="218" y="758"/>
      <point x="223" y="762"/>
      <point x="226" y="771" type="curve"/>
      <point x="243" y="829"/>
      <point x="283" y="842"/>
      <point x="299" y="842" type="curve" smooth="yes"/>
      <point x="319" y="842"/>
      <point x="330" y="829"/>
      <point x="356" y="792" type="curve" smooth="yes"/>
      <point x="375" y="766"/>
      <point x="396" y="735"/>
      <point x="437" y="735" type="curve" smooth="yes"/>
      <point x="491" y="735"/>
      <point x="540" y="803"/>
      <point x="540" y="841" type="curve" smooth="yes"/>
      <point x="540" y="849"/>
      <point x="535" y="855"/>
      <point x="526" y="855" type="curve" smooth="yes"/>
      <point x="517" y="855"/>
      <point x="512" y="850"/>
      <point x="510" y="844" type="curve"/>
    </contour>
  </outline>
</glyph>
<glyph name="Odieresis" format="1">
  <advance width="650"/>
  <unicode hex="00D6"/>
  <outline>
    <contour>
      <point x="464" y="-2"/>
      <point x="598" y="167"/>
      <point x="598" y="368" type="curve" smooth="yes"/>
      <point x="598" y="540"/>
      <point x="494" y="682"/>
      <point x="352" y="682" type="curve" smooth="yes"/>
      <point x="196" y="682"/>
      <point x="62" y="513"/>
      <point x="62" y="312" type="curve" smooth="yes"/>
      <point x="62" y="142"/>
      <point x="165" y="-2"/>
      <point x="308" y="-2" type="curve" smooth="yes"/>
    </contour>
    <contour>
      <point x="473" y="649"/>
      <point x="564" y="508"/>
      <point x="564" y="364" type="curve" smooth="yes"/>
      <point x="564" y="183"/>
      <point x="440" y="31"/>
      <point x="308" y="31" type="curve" smooth="yes"/>
      <point x="185" y="31"/>
      <point x="96" y="159"/>
      <point x="96" y="312" type="curve" smooth="yes"/>
      <point x="96" y="500"/>
      <point x="213" y="649"/>
      <point x="344" y="649" type="curve" smooth="yes"/>
    </contour>
    <contour>
      <point x="321" y="807"/>
      <point x="303" y="820"/>
      <point x="285" y="820" type="curve" smooth="yes"/>
      <point x="261" y="820"/>
      <point x="242" y="804"/>
      <point x="242" y="785" type="curve" smooth="yes"/>
      <point x="242" y="768"/>
      <point x="259" y="755"/>
      <point x="278" y="755" type="curve" smooth="yes"/>
      <point x="302" y="755"/>
      <point x="321" y="771"/>
      <point x="321" y="790" type="curve" smooth="yes"/>
    </contour>
    <contour>
      <point x="485" y="807"/>
      <point x="467" y="820"/>
      <point x="448" y="820" type="curve" smooth="yes"/>
      <point x="425" y="820"/>
      <point x="406" y="804"/>
      <point x="406" y="785" type="curve" smooth="yes"/>
      <point x="406" y="768"/>
      <point x="423" y="755"/>
      <point x="442" y="755" type="curve" smooth="yes"/>
      <point x="466" y="755"/>
      <point x="485" y="771"/>
      <point x="485" y="790" type="curve" smooth="yes"/>
    </contour>
  </outline>
</glyph>
<glyph name="Oslash" format="1">
  <advance width="650"/>
  <unicode hex="00D8"/>
  <outline>
    <contour>
      <point x="95" y="-6" type="line"/>
      <point x="93" y="-9"/>
      <point x="92" y="-13"/>
      <point x="92" y="-16" type="curve" smooth="yes"/>
      <point x="92" y="-26"/>
      <point x="98" y="-33"/>
      <point x="110" y="-33" type="curve" smooth="yes"/>
      <point x="116" y="-33"/>
      <point x="120" y="-30"/>
      <point x="123" y="-25" type="curve"/>
      <point x="166" y="53" type="line"/>
      <point x="209" y="18"/>
      <point x="258" y="-2"/>
      <point x="308" y="-2" type="curve" smooth="yes"/>
      <point x="464" y="-2"/>
      <point x="598" y="167"/>
      <point x="598" y="368" type="curve" smooth="yes"/>
      <point x="598" y="474"/>
      <point x="556" y="570"/>
      <point x="488" y="632" type="curve"/>
      <point x="537" y="720" type="line"/>
      <point x="538" y="722"/>
      <point x="539" y="726"/>
      <point x="539" y="729" type="curve" smooth="yes"/>
      <point x="539" y="740"/>
      <point x="530" y="745"/>
      <point x="523" y="745" type="curve" smooth="yes"/>
      <point x="516" y="745"/>
      <point x="511" y="742"/>
      <point x="508" y="737" type="curve"/>
      <point x="461" y="650" type="line"/>
      <point x="424" y="671"/>
      <point x="387" y="682"/>
      <point x="352" y="682" type="curve" smooth="yes"/>
      <point x="196" y="682"/>
      <point x="62" y="513"/>
      <point x="62" y="312" type="curve" smooth="yes"/>
      <point x="62" y="223"/>
      <point x="92" y="139"/>
      <point x="141" y="78" type="curve"/>
    </contour>
    <contour>
      <point x="262" y="31"/>
      <point x="220" y="49"/>
      <point x="183" y="82" type="curve"/>
      <point x="470" y="599" type="line"/>
      <point x="529" y="538"/>
      <point x="564" y="448"/>
      <point x="564" y="364" type="curve" smooth="yes"/>
      <point x="564" y="183"/>
      <point x="440" y="31"/>
      <point x="308" y="31" type="curve" smooth="yes"/>
    </contour>
    <contour>
      <point x="377" y="649"/>
      <point x="410" y="639"/>
      <point x="443" y="619" type="curve"/>
      <point x="159" y="109" type="line"/>
      <point x="119" y="169"/>
      <point x="96" y="240"/>
      <point x="96" y="312" type="curve" smooth="yes"/>
      <point x="96" y="500"/>
      <point x="213" y="649"/>
      <point x="344" y="649" type="curve" smooth="yes"/>
    </contour>
  </outline>
</glyph>
<glyph name="Uacute" format="1">
  <advance width="673"/>
  <unicode hex="00DA"/>
  <outline>
    <contour>
      <point x="614" y="668"/>
      <point x="611" y="681"/>
      <point x="596" y="681" type="curve" smooth="yes"/>
      <point x="578" y="681"/>
      <point x="577" y="667"/>
      <point x="577" y="651" type="curve" smooth="yes"/>
      <point x="577" y="518"/>
      <point x="583" y="397"/>
      <point x="570" y="277" type="curve" smooth="yes"/>
      <point x="554" y="139"/>
      <point x="490" y="31"/>
      <point x="330" y="31" type="curve" smooth="yes"/>
      <point x="145" y="31"/>
      <point x="110" y="236"/>
      <point x="105" y="381" type="curve" smooth="yes"/>
      <point x="102" y="474"/>
      <point x="104" y="565"/>
      <point x="106" y="654" type="curve" smooth="yes"/>
      <point x="106" y="670"/>
      <point x="103" y="681"/>
      <point x="88" y="681" type="curve" smooth="yes"/>
      <point x="74" y="681"/>
      <point x="68" y="671"/>
      <point x="68" y="655" type="curve" smooth="yes"/>
      <point x="67" y="570"/>
      <point x="65" y="474"/>
      <point x="69" y="367" type="curve" smooth="yes"/>
      <point x="78" y="125"/>
      <point x="171" y="0"/>
      <point x="329" y="0" type="curve" smooth="yes"/>
      <point x="502" y="0"/>
      <point x="585" y="110"/>
      <point x="606" y="270" type="curve" smooth="yes"/>
      <point x="623" y="400"/>
      <point x="618" y="527"/>
      <point x="614" y="653" type="curve"/>
    </contour>
    <contour>
      <point x="448" y="857" type="line" smooth="yes"/>
      <point x="455" y="862"/>
      <point x="456" y="866"/>
      <point x="456" y="873" type="curve" smooth="yes"/>
      <point x="456" y="887"/>
      <point x="443" y="900"/>
      <point x="432" y="900" type="curve" smooth="yes"/>
      <point x="422" y="900"/>
      <point x="415" y="893"/>
      <point x="406" y="886" type="curve" smooth="yes"/>
      <point x="278" y="782" type="line" smooth="yes"/>
      <point x="272" y="777"/>
      <point x="272" y="772"/>
      <point x="272" y="769" type="curve" smooth="yes"/>
      <point x="272" y="760"/>
      <point x="280" y="752"/>
      <point x="289" y="752" type="curve" smooth="yes"/>
      <point x="293" y="752"/>
      <point x="298" y="754"/>
      <point x="305" y="759" type="curve" smooth="yes"/>
    </contour>
  </outline>
</glyph>
<glyph name="Udieresis" format="1">
  <advance width="673"/>
  <unicode hex="00DC"/>
  <outline>
    <contour>
      <point x="301" y="807"/>
      <point x="283" y="820"/>
      <point x="265" y="820" type="curve" smooth="yes"/>
      <point x="241" y="820"/>
      <point x="223" y="804"/>
      <point x="223" y="785" type="curve" smooth="yes"/>
      <point x="223" y="768"/>
      <point x="239" y="755"/>
      <point x="259" y="755" type="curve" smooth="yes"/>
      <point x="282" y="755"/>
      <point x="301" y="771"/>
      <point x="301" y="790" type="curve" smooth="yes"/>
    </contour>
    <contour>
      <point x="465" y="807"/>
      <point x="447" y="820"/>
      <point x="429" y="820" type="curve" smooth="yes"/>
      <point x="405" y="820"/>
      <point x="386" y="804"/>
      <point x="386" y="785" type="curve" smooth="yes"/>
      <point x="386" y="768"/>
      <point x="403" y="755"/>
      <point x="423" y="755" type="curve" smooth="yes"/>
      <point x="446" y="755"/>
      <point x="465" y="771"/>
      <point x="465" y="790" type="curve" smooth="yes"/>
    </contour>
    <contour>
      <point x="614" y="668"/>
      <point x="611" y="681"/>
      <point x="596" y="681" type="curve" smooth="yes"/>
      <point x="578" y="681"/>
      <point x="577" y="667"/>
      <point x="577" y="651" type="curve" smooth="yes"/>
      <point x="577" y="518"/>
      <point x="583" y="397"/>
      <point x="570" y="277" type="curve" smooth="yes"/>
      <point x="554" y="139"/>
      <point x="490" y="31"/>
      <point x="330" y="31" type="curve" smooth="yes"/>
      <point x="145" y="31"/>
      <point x="110" y="236"/>
      <point x="105" y="381" type="curve" smooth="yes"/>
      <point x="102" y="474"/>
      <point x="104" y="565"/>
      <point x="106" y="654" type="curve" smooth="yes"/>
      <point x="106" y="670"/>
      <point x="103" y="681"/>
      <point x="88" y="681" type="curve" smooth="yes"/>
      <point x="74" y="681"/>
      <point x="68" y="671"/>
      <point x="68" y="655" type="curve" smooth="yes"/>
      <point x="67" y="570"/>
      <point x="65" y="474"/>
      <point x="69" y="367" type="curve" smooth="yes"/>
      <point x="78" y="125"/>
      <point x="171" y="0"/>
      <point x="329" y="0" type="curve" smooth="yes"/>
      <point x="502" y="0"/>
      <point x="585" y="110"/>
      <point x="606" y="270" type="curve" smooth="yes"/>
      <point x="623" y="400"/>
      <point x="618" y="527"/>
      <point x="614" y="653" type="curve"/>
    </contour>
  </outline>
</glyph>
<glyph name="Thorn" format="1">
  <advance width="537"/>
  <unicode hex="00DE"/>
  <outline>
    <contour>
      <point x="101" y="664" type="line" smooth="yes"/>
      <point x="101" y="673"/>
      <point x="95" y="680"/>
      <point x="86" y="680" type="curve" smooth="yes"/>
      <point x="77" y="680"/>
      <point x="70" y="673"/>
      <point x="70" y="665" type="curve" smooth="yes"/>
      <point x="68" y="16" type="line" smooth="yes"/>
      <point x="68" y="7"/>
      <point x="75" y="0"/>
      <point x="84" y="0" type="curve" smooth="yes"/>
      <point x="93" y="0"/>
      <point x="100" y="7"/>
      <point x="100" y="15" type="curve" smooth="yes"/>
      <point x="100" y="147" type="line"/>
      <point x="246" y="150"/>
      <point x="469" y="202"/>
      <point x="469" y="376" type="curve" smooth="yes"/>
      <point x="469" y="550"/>
      <point x="250" y="569"/>
      <point x="101" y="569" type="curve"/>
    </contour>
    <contour>
      <point x="101" y="533" type="line"/>
      <point x="122" y="535"/>
      <point x="135" y="535"/>
      <point x="150" y="535" type="curve" smooth="yes"/>
      <point x="331" y="535"/>
      <point x="437" y="476"/>
      <point x="437" y="376" type="curve" smooth="yes"/>
      <point x="437" y="225"/>
      <point x="210" y="184"/>
      <point x="101" y="183" type="curve"/>
    </contour>
  </outline>
</glyph>
<glyph name="germandbls" format="1">
  <advance width="515"/>
  <unicode hex="00DF"/>
  <outline>
    <contour>
      <point x="198" y="28"/>
      <point x="195" y="28"/>
      <point x="193" y="28" type="curve" smooth="yes"/>
      <point x="185" y="28"/>
      <point x="178" y="21"/>
      <point x="178" y="11" type="curve" smooth="yes"/>
      <point x="178" y="-15"/>
      <point x="244" y="-26"/>
      <point x="279" y="-26" type="curve" smooth="yes"/>
      <point x="385" y="-26"/>
      <point x="474" y="63"/>
      <point x="474" y="169" type="curve" smooth="yes"/>
      <point x="474" y="257"/>
      <point x="408" y="339"/>
      <point x="321" y="358" type="curve"/>
      <point x="357" y="388"/>
      <point x="385" y="443"/>
      <point x="385" y="486" type="curve" smooth="yes"/>
      <point x="385" y="573"/>
      <point x="314" y="645"/>
      <point x="227" y="645" type="curve" smooth="yes"/>
      <point x="139" y="645"/>
      <point x="67" y="573"/>
      <point x="67" y="486" type="curve" smooth="yes"/>
      <point x="67" y="16" type="line" smooth="yes"/>
      <point x="67" y="6"/>
      <point x="75" y="-1"/>
      <point x="84" y="-1" type="curve" smooth="yes"/>
      <point x="94" y="-1"/>
      <point x="101" y="6"/>
      <point x="101" y="16" type="curve" smooth="yes"/>
      <point x="101" y="486" type="line" smooth="yes"/>
      <point x="101" y="554"/>
      <point x="158" y="612"/>
      <point x="227" y="612" type="curve" smooth="yes"/>
      <point x="297" y="612"/>
      <point x="352" y="554"/>
      <point x="352" y="486" type="curve" smooth="yes"/>
      <point x="352" y="423"/>
      <point x="308" y="367"/>
      <point x="240" y="362" type="curve" smooth="yes"/>
      <point x="225" y="361" type="line" smooth="yes"/>
      <point x="214" y="360"/>
      <point x="210" y="352"/>
      <point x="210" y="343" type="curve" smooth="yes"/>
      <point x="210" y="334"/>
      <point x="217" y="327"/>
      <point x="227" y="327" type="curve" smooth="yes"/>
      <point x="238" y="327"/>
      <point x="247" y="329"/>
      <point x="256" y="330" type="curve" smooth="yes"/>
      <point x="370" y="341"/>
      <point x="441" y="257"/>
      <point x="441" y="170" type="curve" smooth="yes"/>
      <point x="441" y="81"/>
      <point x="365" y="7"/>
      <point x="279" y="7" type="curve" smooth="yes"/>
      <point x="252" y="7"/>
      <point x="228" y="13"/>
      <point x="202" y="26" type="curve" smooth="yes"/>
    </contour>
  </outline>
</glyph>
<glyph name="atilde" format="1">
  <advance width="495"/>
  <unicode hex="00E3"/>
  <outline>
    <contour>
      <point x="438" y="476" type="line"/>
      <point x="413" y="489"/>
      <point x="352" y="515"/>
      <point x="291" y="515" type="curve" smooth="yes"/>
      <point x="117" y="515"/>
      <point x="52" y="327"/>
      <point x="52" y="223" type="curve" smooth="yes"/>
      <point x="52" y="95"/>
      <point x="132" y="8"/>
      <point x="238" y="8" type="curve" smooth="yes"/>
      <point x="293" y="8"/>
      <point x="357" y="39"/>
      <point x="400" y="66" type="curve"/>
      <point x="400" y="23" type="line" smooth="yes"/>
      <point x="400" y="10"/>
      <point x="407" y="0"/>
      <point x="419" y="0" type="curve" smooth="yes"/>
      <point x="430" y="0"/>
      <point x="438" y="9"/>
      <point x="438" y="21" type="curve" smooth="yes"/>
    </contour>
    <contour>
      <point x="398" y="110" type="line"/>
      <point x="372" y="93"/>
      <point x="301" y="45"/>
      <point x="236" y="45" type="curve" smooth="yes"/>
      <point x="129" y="45"/>
      <point x="91" y="148"/>
      <point x="91" y="225" type="curve" smooth="yes"/>
      <point x="91" y="316"/>
      <point x="144" y="478"/>
      <point x="294" y="478" type="curve" smooth="yes"/>
      <point x="331" y="478"/>
      <point x="380" y="463"/>
      <point x="402" y="452" type="curve"/>
    </contour>
    <contour>
      <point x="396" y="658"/>
      <point x="375" y="607"/>
      <point x="337" y="607" type="curve" smooth="yes"/>
      <point x="316" y="607"/>
      <point x="295" y="632"/>
      <point x="278" y="657" type="curve" smooth="yes"/>
      <point x="259" y="685"/>
      <point x="238" y="715"/>
      <point x="197" y="715" type="curve" smooth="yes"/>
      <point x="150" y="715"/>
      <point x="96" y="662"/>
      <point x="96" y="620" type="curve" smooth="yes"/>
      <point x="96" y="612"/>
      <point x="99" y="604"/>
      <point x="109" y="604" type="curve" smooth="yes"/>
      <point x="116" y="604"/>
      <point x="121" y="608"/>
      <point x="124" y="617" type="curve"/>
      <point x="141" y="675"/>
      <point x="181" y="688"/>
      <point x="197" y="688" type="curve" smooth="yes"/>
      <point x="217" y="688"/>
      <point x="228" y="675"/>
      <point x="254" y="638" type="curve" smooth="yes"/>
      <point x="273" y="612"/>
      <point x="294" y="581"/>
      <point x="335" y="581" type="curve" smooth="yes"/>
      <point x="389" y="581"/>
      <point x="438" y="649"/>
      <point x="438" y="687" type="curve" smooth="yes"/>
      <point x="438" y="695"/>
      <point x="433" y="701"/>
      <point x="424" y="701" type="curve" smooth="yes"/>
      <point x="415" y="701"/>
      <point x="410" y="696"/>
      <point x="408" y="690" type="curve"/>
    </contour>
  </outline>
</glyph>
<glyph name="ae" format="1">
  <advance width="822"/>
  <unicode hex="00E6"/>
  <outline>
    <contour>
      <point x="733" y="60"/>
      <point x="680" y="33"/>
      <point x="631" y="33" type="curve" smooth="yes"/>
      <point x="543" y="33"/>
      <point x="475" y="65"/>
      <point x="431" y="147" type="curve"/>
      <point x="763" y="338" type="line" smooth="yes"/>
      <point x="775" y="345"/>
      <point x="780" y="352"/>
      <point x="780" y="358" type="curve" smooth="yes"/>
      <point x="780" y="400"/>
      <point x="724" y="482"/>
      <point x="606" y="482" type="curve" smooth="yes"/>
      <point x="546" y="482"/>
      <point x="463" y="444"/>
      <point x="420" y="374" type="curve"/>
      <point x="420" y="462" type="line"/>
      <point x="393" y="475"/>
      <point x="327" y="498"/>
      <point x="273" y="498" type="curve" smooth="yes"/>
      <point x="154" y="498"/>
      <point x="49" y="379"/>
      <point x="49" y="213" type="curve" smooth="yes"/>
      <point x="49" y="85"/>
      <point x="127" y="8"/>
      <point x="229" y="8" type="curve" smooth="yes"/>
      <point x="281" y="8"/>
      <point x="343" y="38"/>
      <point x="384" y="64" type="curve"/>
      <point x="384" y="18" type="line" smooth="yes"/>
      <point x="384" y="9"/>
      <point x="392" y="0"/>
      <point x="403" y="0" type="curve" smooth="yes"/>
      <point x="412" y="0"/>
      <point x="421" y="9"/>
      <point x="421" y="18" type="curve" smooth="yes"/>
      <point x="421" y="104" type="line"/>
      <point x="478" y="34"/>
      <point x="547" y="0"/>
      <point x="624" y="0" type="curve" smooth="yes"/>
      <point x="684" y="0"/>
      <point x="751" y="32"/>
      <point x="784" y="72" type="curve" smooth="yes"/>
      <point x="788" y="77"/>
      <point x="789" y="79"/>
      <point x="789" y="85" type="curve" smooth="yes"/>
      <point x="789" y="93"/>
      <point x="782" y="100"/>
      <point x="773" y="100" type="curve" smooth="yes"/>
      <point x="768" y="100"/>
      <point x="766" y="98"/>
      <point x="763" y="95" type="curve"/>
    </contour>
    <contour>
      <point x="382" y="106" type="line"/>
      <point x="352" y="81"/>
      <point x="281" y="43"/>
      <point x="225" y="43" type="curve" smooth="yes"/>
      <point x="136" y="43"/>
      <point x="84" y="120"/>
      <point x="84" y="216" type="curve" smooth="yes"/>
      <point x="84" y="304"/>
      <point x="135" y="464"/>
      <point x="281" y="464" type="curve" smooth="yes"/>
      <point x="318" y="464"/>
      <point x="367" y="447"/>
      <point x="387" y="438" type="curve"/>
    </contour>
    <contour>
      <point x="678" y="448"/>
      <point x="717" y="424"/>
      <point x="748" y="362" type="curve"/>
      <point x="421" y="179" type="line"/>
      <point x="416" y="207"/>
      <point x="416" y="217"/>
      <point x="416" y="228" type="curve" smooth="yes"/>
      <point x="416" y="355"/>
      <point x="499" y="448"/>
      <point x="606" y="448" type="curve" smooth="yes"/>
    </contour>
  </outline>
</glyph>
<glyph name="ccedilla" format="1">
  <advance width="499"/>
  <unicode hex="00E7"/>
  <outline>
    <contour>
      <point x="243" y="-9" type="line" smooth="yes"/>
      <point x="240" y="-18"/>
      <point x="225" y="-65"/>
      <point x="225" y="-69" type="curve" smooth="yes"/>
      <point x="225" y="-75"/>
      <point x="230" y="-79"/>
      <point x="236" y="-79" type="curve" smooth="yes"/>
      <point x="238" y="-79"/>
      <point x="241" y="-78"/>
      <point x="245" y="-75" type="curve" smooth="yes"/>
      <point x="252" y="-70"/>
      <point x="263" y="-64"/>
      <point x="281" y="-64" type="curve" smooth="yes"/>
      <point x="315" y="-64"/>
      <point x="342" y="-91"/>
      <point x="342" y="-125" type="curve" smooth="yes"/>
      <point x="342" y="-159"/>
      <point x="315" y="-187"/>
      <point x="281" y="-187" type="curve" smooth="yes"/>
      <point x="252" y="-187"/>
      <point x="240" y="-174"/>
      <point x="231" y="-164" type="curve"/>
      <point x="227" y="-159"/>
      <point x="224" y="-154"/>
      <point x="219" y="-154" type="curve" smooth="yes"/>
      <point x="214" y="-154"/>
      <point x="209" y="-157"/>
      <point x="209" y="-163" type="curve" smooth="yes"/>
      <point x="209" y="-189"/>
      <point x="250" y="-209"/>
      <point x="281" y="-209" type="curve" smooth="yes"/>
      <point x="328" y="-209"/>
      <point x="365" y="-170"/>
      <point x="365" y="-123" type="curve" smooth="yes"/>
      <point x="365" y="-78"/>
      <point x="330" y="-41"/>
      <point x="259" y="-41" type="curve"/>
      <point x="260" y="0" type="line"/>
      <point x="277" y="0" type="line"/>
      <point x="351" y="3"/>
      <point x="417" y="43"/>
      <point x="451" y="93" type="curve"/>
      <point x="454" y="97"/>
      <point x="458" y="103"/>
      <point x="458" y="108" type="curve" smooth="yes"/>
      <point x="458" y="117"/>
      <point x="449" y="124"/>
      <point x="440" y="124" type="curve" smooth="yes"/>
      <point x="431" y="124"/>
      <point x="425" y="117"/>
      <point x="421" y="111" type="curve"/>
      <point x="391" y="71"/>
      <point x="342" y="33"/>
      <point x="263" y="33" type="curve" smooth="yes"/>
      <point x="214" y="33"/>
      <point x="87" y="75"/>
      <point x="87" y="217" type="curve" smooth="yes"/>
      <point x="87" y="246"/>
      <point x="92" y="281"/>
      <point x="108" y="323" type="curve" smooth="yes"/>
      <point x="133" y="386"/>
      <point x="201" y="467"/>
      <point x="275" y="467" type="curve" smooth="yes"/>
      <point x="332" y="467"/>
      <point x="366" y="441"/>
      <point x="396" y="405" type="curve"/>
      <point x="399" y="402"/>
      <point x="404" y="400"/>
      <point x="409" y="400" type="curve" smooth="yes"/>
      <point x="418" y="400"/>
      <point x="426" y="408"/>
      <point x="426" y="418" type="curve" smooth="yes"/>
      <point x="426" y="422"/>
      <point x="424" y="427"/>
      <point x="421" y="430" type="curve"/>
      <point x="383" y="474"/>
      <point x="345" y="500"/>
      <point x="273" y="500" type="curve" smooth="yes"/>
      <point x="180" y="500"/>
      <point x="104" y="401"/>
      <point x="76" y="334" type="curve" smooth="yes"/>
      <point x="66" y="308"/>
      <point x="52" y="263"/>
      <point x="52" y="215" type="curve" smooth="yes"/>
      <point x="52" y="100"/>
      <point x="142" y="17"/>
      <point x="246" y="0" type="curve"/>
    </contour>
  </outline>
</glyph>
<glyph name="egrave" format="1">
  <advance width="511"/>
  <unicode hex="00E8"/>
  <outline>
    <contour>
      <point x="470" y="93"/>
      <point x="463" y="100"/>
      <point x="453" y="100" type="curve" smooth="yes"/>
      <point x="449" y="100"/>
      <point x="446" y="98"/>
      <point x="443" y="95" type="curve"/>
      <point x="414" y="60"/>
      <point x="349" y="33"/>
      <point x="301" y="33" type="curve" smooth="yes"/>
      <point x="213" y="33"/>
      <point x="146" y="74"/>
      <point x="102" y="155" type="curve"/>
      <point x="443" y="350" type="line" smooth="yes"/>
      <point x="455" y="357"/>
      <point x="461" y="365"/>
      <point x="461" y="371" type="curve" smooth="yes"/>
      <point x="461" y="413"/>
      <point x="403" y="499"/>
      <point x="276" y="499" type="curve" smooth="yes"/>
      <point x="141" y="499"/>
      <point x="53" y="376"/>
      <point x="53" y="238" type="curve" smooth="yes"/>
      <point x="53" y="114"/>
      <point x="149" y="0"/>
      <point x="302" y="0" type="curve" smooth="yes"/>
      <point x="363" y="0"/>
      <point x="430" y="32"/>
      <point x="465" y="72" type="curve"/>
      <point x="468" y="75"/>
      <point x="470" y="79"/>
      <point x="470" y="83" type="curve" smooth="yes"/>
    </contour>
    <contour>
      <point x="358" y="465"/>
      <point x="404" y="432"/>
      <point x="427" y="373" type="curve"/>
      <point x="91" y="188" type="line"/>
      <point x="85" y="216"/>
      <point x="85" y="225"/>
      <point x="85" y="237" type="curve" smooth="yes"/>
      <point x="85" y="364"/>
      <point x="164" y="465"/>
      <point x="276" y="465" type="curve" smooth="yes"/>
    </contour>
    <contour>
      <point x="242" y="747" type="line" smooth="yes"/>
      <point x="236" y="755"/>
      <point x="229" y="758"/>
      <point x="221" y="758" type="curve" smooth="yes"/>
      <point x="207" y="758"/>
      <point x="194" y="747"/>
      <point x="194" y="733" type="curve" smooth="yes"/>
      <point x="194" y="726"/>
      <point x="197" y="720"/>
      <point x="202" y="714" type="curve"/>
      <point x="325" y="588" type="line" smooth="yes"/>
      <point x="329" y="584"/>
      <point x="334" y="582"/>
      <point x="338" y="582" type="curve" smooth="yes"/>
      <point x="347" y="582"/>
      <point x="357" y="588"/>
      <point x="357" y="598" type="curve" smooth="yes"/>
      <point x="357" y="602"/>
      <point x="355" y="606"/>
      <point x="351" y="611" type="curve" smooth="yes"/>
    </contour>
  </outline>
</glyph>
<glyph name="eacute" format="1">
  <advance width="511"/>
  <unicode hex="00E9"/>
  <outline>
    <contour>
      <point x="470" y="93"/>
      <point x="463" y="100"/>
      <point x="453" y="100" type="curve" smooth="yes"/>
      <point x="449" y="100"/>
      <point x="446" y="98"/>
      <point x="443" y="95" type="curve"/>
      <point x="414" y="60"/>
      <point x="349" y="33"/>
      <point x="301" y="33" type="curve" smooth="yes"/>
      <point x="213" y="33"/>
      <point x="146" y="74"/>
      <point x="102" y="155" type="curve"/>
      <point x="443" y="350" type="line" smooth="yes"/>
      <point x="455" y="357"/>
      <point x="461" y="365"/>
      <point x="461" y="371" type="curve" smooth="yes"/>
      <point x="461" y="413"/>
      <point x="403" y="499"/>
      <point x="276" y="499" type="curve" smooth="yes"/>
      <point x="141" y="499"/>
      <point x="53" y="376"/>
      <point x="53" y="238" type="curve" smooth="yes"/>
      <point x="53" y="114"/>
      <point x="149" y="0"/>
      <point x="302" y="0" type="curve" smooth="yes"/>
      <point x="363" y="0"/>
      <point x="430" y="32"/>
      <point x="465" y="72" type="curve"/>
      <point x="468" y="75"/>
      <point x="470" y="79"/>
      <point x="470" y="83" type="curve" smooth="yes"/>
    </contour>
    <contour>
      <point x="358" y="465"/>
      <point x="404" y="432"/>
      <point x="427" y="373" type="curve"/>
      <point x="91" y="188" type="line"/>
      <point x="85" y="216"/>
      <point x="85" y="225"/>
      <point x="85" y="237" type="curve" smooth="yes"/>
      <point x="85" y="364"/>
      <point x="164" y="465"/>
      <point x="276" y="465" type="curve" smooth="yes"/>
    </contour>
    <contour>
      <point x="391" y="692" type="line" smooth="yes"/>
      <point x="398" y="697"/>
      <point x="399" y="701"/>
      <point x="399" y="708" type="curve" smooth="yes"/>
      <point x="399" y="722"/>
      <point x="386" y="735"/>
      <point x="375" y="735" type="curve" smooth="yes"/>
      <point x="365" y="735"/>
      <point x="358" y="728"/>
      <point x="349" y="721" type="curve" smooth="yes"/>
      <point x="221" y="617" type="line" smooth="yes"/>
      <point x="215" y="612"/>
      <point x="215" y="607"/>
      <point x="215" y="604" type="curve" smooth="yes"/>
      <point x="215" y="595"/>
      <point x="223" y="587"/>
      <point x="232" y="587" type="curve" smooth="yes"/>
      <point x="236" y="587"/>
      <point x="241" y="589"/>
      <point x="248" y="594" type="curve" smooth="yes"/>
    </contour>
  </outline>
</glyph>
<glyph name="ecircumflex" format="1">
  <advance width="511"/>
  <unicode hex="00EA"/>
  <outline>
    <contour>
      <point x="470" y="93"/>
      <point x="463" y="100"/>
      <point x="453" y="100" type="curve" smooth="yes"/>
      <point x="449" y="100"/>
      <point x="446" y="98"/>
      <point x="443" y="95" type="curve"/>
      <point x="414" y="60"/>
      <point x="349" y="33"/>
      <point x="301" y="33" type="curve" smooth="yes"/>
      <point x="213" y="33"/>
      <point x="146" y="74"/>
      <point x="102" y="155" type="curve"/>
      <point x="443" y="350" type="line" smooth="yes"/>
      <point x="455" y="357"/>
      <point x="461" y="365"/>
      <point x="461" y="371" type="curve" smooth="yes"/>
      <point x="461" y="413"/>
      <point x="403" y="499"/>
      <point x="276" y="499" type="curve" smooth="yes"/>
      <point x="141" y="499"/>
      <point x="53" y="376"/>
      <point x="53" y="238" type="curve" smooth="yes"/>
      <point x="53" y="114"/>
      <point x="149" y="0"/>
      <point x="302" y="0" type="curve" smooth="yes"/>
      <point x="363" y="0"/>
      <point x="430" y="32"/>
      <point x="465" y="72" type="curve"/>
      <point x="468" y="75"/>
      <point x="470" y="79"/>
      <point x="470" y="83" type="curve" smooth="yes"/>
    </contour>
    <contour>
      <point x="358" y="465"/>
      <point x="404" y="432"/>
      <point x="427" y="373" type="curve"/>
      <point x="91" y="188" type="line"/>
      <point x="85" y="216"/>
      <point x="85" y="225"/>
      <point x="85" y="237" type="curve" smooth="yes"/>
      <point x="85" y="364"/>
      <point x="164" y="465"/>
      <point x="276" y="465" type="curve" smooth="yes"/>
    </contour>
    <contour>
      <point x="298" y="748"/>
      <point x="293" y="746"/>
      <point x="289" y="743" type="curve"/>
      <point x="154" y="630" type="line"/>
      <point x="150" y="627"/>
      <point x="147" y="622"/>
      <point x="147" y="617" type="curve" smooth="yes"/>
      <point x="147" y="608"/>
      <point x="155" y="599"/>
      <point x="165" y="599" type="curve" smooth="yes"/>
      <point x="169" y="599"/>
      <point x="173" y="601"/>
      <point x="176" y="603" type="curve"/>
      <point x="300" y="699" type="line"/>
      <point x="405" y="604" type="line"/>
      <point x="409" y="601"/>
      <point x="413" y="599"/>
      <point x="418" y="599" type="curve" smooth="yes"/>
      <point x="427" y="599"/>
      <point x="435" y="608"/>
      <point x="435" y="617" type="curve" smooth="yes"/>
      <point x="435" y="622"/>
      <point x="433" y="625"/>
      <point x="429" y="629" type="curve" smooth="yes"/>
      <point x="317" y="742" type="line" smooth="yes"/>
      <point x="313" y="746"/>
      <point x="307" y="748"/>
      <point x="302" y="748" type="curve" smooth="yes"/>
    </contour>
  </outline>
</glyph>
<glyph name="edieresis" format="1">
  <advance width="511"/>
  <unicode hex="00EB"/>
  <outline>
    <contour>
      <point x="470" y="93"/>
      <point x="463" y="100"/>
      <point x="453" y="100" type="curve" smooth="yes"/>
      <point x="449" y="100"/>
      <point x="446" y="98"/>
      <point x="443" y="95" type="curve"/>
      <point x="414" y="60"/>
      <point x="349" y="33"/>
      <point x="301" y="33" type="curve" smooth="yes"/>
      <point x="213" y="33"/>
      <point x="146" y="74"/>
      <point x="102" y="155" type="curve"/>
      <point x="443" y="350" type="line" smooth="yes"/>
      <point x="455" y="357"/>
      <point x="461" y="365"/>
      <point x="461" y="371" type="curve" smooth="yes"/>
      <point x="461" y="413"/>
      <point x="403" y="499"/>
      <point x="276" y="499" type="curve" smooth="yes"/>
      <point x="141" y="499"/>
      <point x="53" y="376"/>
      <point x="53" y="238" type="curve" smooth="yes"/>
      <point x="53" y="114"/>
      <point x="149" y="0"/>
      <point x="302" y="0" type="curve" smooth="yes"/>
      <point x="363" y="0"/>
      <point x="430" y="32"/>
      <point x="465" y="72" type="curve"/>
      <point x="468" y="75"/>
      <point x="470" y="79"/>
      <point x="470" y="83" type="curve" smooth="yes"/>
    </contour>
    <contour>
      <point x="358" y="465"/>
      <point x="404" y="432"/>
      <point x="427" y="373" type="curve"/>
      <point x="91" y="188" type="line"/>
      <point x="85" y="216"/>
      <point x="85" y="225"/>
      <point x="85" y="237" type="curve" smooth="yes"/>
      <point x="85" y="364"/>
      <point x="164" y="465"/>
      <point x="276" y="465" type="curve" smooth="yes"/>
    </contour>
    <contour>
      <point x="249" y="652"/>
      <point x="231" y="666"/>
      <point x="213" y="666" type="curve" smooth="yes"/>
      <point x="189" y="666"/>
      <point x="170" y="649"/>
      <point x="170" y="630" type="curve" smooth="yes"/>
      <point x="170" y="613"/>
      <point x="186" y="600"/>
      <point x="206" y="600" type="curve" smooth="yes"/>
      <point x="230" y="600"/>
      <point x="249" y="616"/>
      <point x="249" y="636" type="curve" smooth="yes"/>
    </contour>
    <contour>
      <point x="415" y="652"/>
      <point x="397" y="666"/>
      <point x="378" y="666" type="curve" smooth="yes"/>
      <point x="354" y="666"/>
      <point x="335" y="649"/>
      <point x="335" y="630" type="curve" smooth="yes"/>
      <point x="335" y="613"/>
      <point x="352" y="600"/>
      <point x="372" y="600" type="curve" smooth="yes"/>
      <point x="396" y="600"/>
      <point x="415" y="616"/>
      <point x="415" y="636" type="curve" smooth="yes"/>
    </contour>
  </outline>
</glyph>
<glyph name="iacute" format="1">
  <advance width="184"/>
  <unicode hex="00ED"/>
  <outline>
    <contour>
      <point x="117" y="476" type="line" smooth="yes"/>
      <point x="117" y="487"/>
      <point x="107" y="496"/>
      <point x="97" y="496" type="curve" smooth="yes"/>
      <point x="87" y="496"/>
      <point x="77" y="487"/>
      <point x="77" y="476" type="curve" smooth="yes"/>
      <point x="71" y="20" type="line" smooth="yes"/>
      <point x="71" y="9"/>
      <point x="80" y="0"/>
      <point x="91" y="0" type="curve" smooth="yes"/>
      <point x="101" y="0"/>
      <point x="111" y="9"/>
      <point x="111" y="20" type="curve" smooth="yes"/>
    </contour>
    <contour>
      <point x="185" y="692" type="line" smooth="yes"/>
      <point x="192" y="697"/>
      <point x="193" y="701"/>
      <point x="193" y="708" type="curve" smooth="yes"/>
      <point x="193" y="722"/>
      <point x="180" y="735"/>
      <point x="169" y="735" type="curve" smooth="yes"/>
      <point x="159" y="735"/>
      <point x="152" y="728"/>
      <point x="143" y="721" type="curve" smooth="yes"/>
      <point x="15" y="617" type="line" smooth="yes"/>
      <point x="9" y="612"/>
      <point x="9" y="607"/>
      <point x="9" y="604" type="curve" smooth="yes"/>
      <point x="9" y="595"/>
      <point x="17" y="587"/>
      <point x="26" y="587" type="curve" smooth="yes"/>
      <point x="30" y="587"/>
      <point x="35" y="589"/>
      <point x="42" y="594" type="curve" smooth="yes"/>
    </contour>
  </outline>
</glyph>
<glyph name="icircumflex" format="1">
  <advance width="224"/>
  <unicode hex="00EE"/>
  <outline>
    <contour>
      <point x="141" y="476" type="line" smooth="yes"/>
      <point x="141" y="487"/>
      <point x="132" y="496"/>
      <point x="122" y="496" type="curve" smooth="yes"/>
      <point x="111" y="496"/>
      <point x="102" y="487"/>
      <point x="102" y="476" type="curve" smooth="yes"/>
      <point x="96" y="20" type="line" smooth="yes"/>
      <point x="96" y="9"/>
      <point x="105" y="0"/>
      <point x="115" y="0" type="curve" smooth="yes"/>
      <point x="126" y="0"/>
      <point x="135" y="9"/>
      <point x="135" y="20" type="curve" smooth="yes"/>
    </contour>
    <contour>
      <point x="130" y="748"/>
      <point x="125" y="746"/>
      <point x="121" y="743" type="curve"/>
      <point x="-14" y="630" type="line"/>
      <point x="-18" y="627"/>
      <point x="-21" y="622"/>
      <point x="-21" y="617" type="curve" smooth="yes"/>
      <point x="-21" y="608"/>
      <point x="-13" y="599"/>
      <point x="-3" y="599" type="curve" smooth="yes"/>
      <point x="1" y="599"/>
      <point x="5" y="601"/>
      <point x="8" y="603" type="curve"/>
      <point x="132" y="699" type="line"/>
      <point x="237" y="604" type="line"/>
      <point x="241" y="601"/>
      <point x="245" y="599"/>
      <point x="250" y="599" type="curve" smooth="yes"/>
      <point x="259" y="599"/>
      <point x="267" y="608"/>
      <point x="267" y="617" type="curve" smooth="yes"/>
      <point x="267" y="622"/>
      <point x="265" y="625"/>
      <point x="261" y="629" type="curve" smooth="yes"/>
      <point x="149" y="742" type="line" smooth="yes"/>
      <point x="145" y="746"/>
      <point x="139" y="748"/>
      <point x="134" y="748" type="curve" smooth="yes"/>
    </contour>
  </outline>
</glyph>
<glyph name="ntilde" format="1">
  <advance width="525"/>
  <unicode hex="00F1"/>
  <outline>
    <contour>
      <point x="105" y="482" type="line" smooth="yes"/>
      <point x="105" y="492"/>
      <point x="97" y="500"/>
      <point x="86" y="500" type="curve" smooth="yes"/>
      <point x="76" y="500"/>
      <point x="68" y="492"/>
      <point x="68" y="482" type="curve" smooth="yes"/>
      <point x="68" y="17" type="line" smooth="yes"/>
      <point x="68" y="7"/>
      <point x="76" y="0"/>
      <point x="86" y="0" type="curve" smooth="yes"/>
      <point x="98" y="0"/>
      <point x="104" y="9"/>
      <point x="104" y="21" type="curve" smooth="yes"/>
      <point x="105" y="105" type="line" smooth="yes"/>
      <point x="106" y="179"/>
      <point x="127" y="269"/>
      <point x="162" y="334" type="curve" smooth="yes"/>
      <point x="219" y="438"/>
      <point x="280" y="464"/>
      <point x="328" y="464" type="curve" smooth="yes"/>
      <point x="430" y="464"/>
      <point x="431" y="357"/>
      <point x="432" y="145" type="curve" smooth="yes"/>
      <point x="432" y="106"/>
      <point x="432" y="65"/>
      <point x="433" y="19" type="curve" smooth="yes"/>
      <point x="433" y="8"/>
      <point x="442" y="0"/>
      <point x="451" y="0" type="curve" smooth="yes"/>
      <point x="461" y="0"/>
      <point x="468" y="9"/>
      <point x="468" y="20" type="curve" smooth="yes"/>
      <point x="469" y="66"/>
      <point x="469" y="108"/>
      <point x="469" y="148" type="curve" smooth="yes"/>
      <point x="469" y="388"/>
      <point x="453" y="499"/>
      <point x="333" y="499" type="curve" smooth="yes"/>
      <point x="229" y="499"/>
      <point x="125" y="380"/>
      <point x="105" y="265" type="curve"/>
    </contour>
    <contour>
      <point x="421" y="658"/>
      <point x="400" y="607"/>
      <point x="362" y="607" type="curve" smooth="yes"/>
      <point x="341" y="607"/>
      <point x="320" y="632"/>
      <point x="303" y="657" type="curve" smooth="yes"/>
      <point x="284" y="685"/>
      <point x="263" y="715"/>
      <point x="222" y="715" type="curve" smooth="yes"/>
      <point x="175" y="715"/>
      <point x="121" y="662"/>
      <point x="121" y="620" type="curve" smooth="yes"/>
      <point x="121" y="612"/>
      <point x="124" y="604"/>
      <point x="134" y="604" type="curve" smooth="yes"/>
      <point x="141" y="604"/>
      <point x="146" y="608"/>
      <point x="149" y="617" type="curve"/>
      <point x="166" y="675"/>
      <point x="206" y="688"/>
      <point x="222" y="688" type="curve" smooth="yes"/>
      <point x="242" y="688"/>
      <point x="253" y="675"/>
      <point x="279" y="638" type="curve" smooth="yes"/>
      <point x="298" y="612"/>
      <point x="319" y="581"/>
      <point x="360" y="581" type="curve" smooth="yes"/>
      <point x="414" y="581"/>
      <point x="463" y="649"/>
      <point x="463" y="687" type="curve" smooth="yes"/>
      <point x="463" y="695"/>
      <point x="458" y="701"/>
      <point x="449" y="701" type="curve" smooth="yes"/>
      <point x="440" y="701"/>
      <point x="435" y="696"/>
      <point x="433" y="690" type="curve"/>
    </contour>
  </outline>
</glyph>
<glyph name="odieresis" format="1">
  <advance width="525"/>
  <unicode hex="00F6"/>
  <outline>
    <contour>
      <point x="378" y="0"/>
      <point x="484" y="123"/>
      <point x="484" y="271" type="curve" smooth="yes"/>
      <point x="484" y="395"/>
      <point x="397" y="500"/>
      <point x="284" y="500" type="curve" smooth="yes"/>
      <point x="158" y="500"/>
      <point x="52" y="376"/>
      <point x="52" y="229" type="curve" smooth="yes"/>
      <point x="52" y="103"/>
      <point x="138" y="0"/>
      <point x="252" y="0" type="curve" smooth="yes"/>
    </contour>
    <contour>
      <point x="372" y="471"/>
      <point x="445" y="375"/>
      <point x="445" y="266" type="curve" smooth="yes"/>
      <point x="445" y="140"/>
      <point x="352" y="29"/>
      <point x="252" y="29" type="curve" smooth="yes"/>
      <point x="155" y="29"/>
      <point x="90" y="123"/>
      <point x="90" y="231" type="curve" smooth="yes"/>
      <point x="90" y="358"/>
      <point x="177" y="471"/>
      <point x="279" y="471" type="curve" smooth="yes"/>
    </contour>
    <contour>
      <point x="258" y="652"/>
      <point x="241" y="666"/>
      <point x="222" y="666" type="curve" smooth="yes"/>
      <point x="198" y="666"/>
      <point x="179" y="649"/>
      <point x="179" y="630" type="curve" smooth="yes"/>
      <point x="179" y="613"/>
      <point x="196" y="600"/>
      <point x="216" y="600" type="curve" smooth="yes"/>
      <point x="239" y="600"/>
      <point x="258" y="616"/>
      <point x="258" y="636" type="curve" smooth="yes"/>
    </contour>
    <contour>
      <point x="424" y="652"/>
      <point x="406" y="666"/>
      <point x="387" y="666" type="curve" smooth="yes"/>
      <point x="363" y="666"/>
      <point x="345" y="649"/>
      <point x="345" y="630" type="curve" smooth="yes"/>
      <point x="345" y="613"/>
      <point x="361" y="600"/>
      <point x="381" y="600" type="curve" smooth="yes"/>
      <point x="405" y="600"/>
      <point x="424" y="616"/>
      <point x="424" y="636" type="curve" smooth="yes"/>
    </contour>
  </outline>
</glyph>
<glyph name="oslash" format="1">
  <advance width="525"/>
  <unicode hex="00F8"/>
  <outline>
    <contour>
      <point x="150" y="30" type="line"/>
      <point x="183" y="11"/>
      <point x="219" y="0"/>
      <point x="252" y="0" type="curve" smooth="yes"/>
      <point x="378" y="0"/>
      <point x="484" y="123"/>
      <point x="484" y="271" type="curve" smooth="yes"/>
      <point x="484" y="343"/>
      <point x="452" y="411"/>
      <point x="401" y="457" type="curve"/>
      <point x="438" y="522" type="line"/>
      <point x="440" y="526"/>
      <point x="440" y="529"/>
      <point x="440" y="531" type="curve" smooth="yes"/>
      <point x="440" y="541"/>
      <point x="432" y="546"/>
      <point x="423" y="546" type="curve" smooth="yes"/>
      <point x="418" y="546"/>
      <point x="414" y="544"/>
      <point x="411" y="539" type="curve" smooth="yes"/>
      <point x="374" y="475" type="line"/>
      <point x="343" y="492"/>
      <point x="311" y="500"/>
      <point x="284" y="500" type="curve" smooth="yes"/>
      <point x="158" y="500"/>
      <point x="52" y="376"/>
      <point x="52" y="229" type="curve" smooth="yes"/>
      <point x="52" y="160"/>
      <point x="80" y="96"/>
      <point x="126" y="49" type="curve"/>
      <point x="89" y="-11" type="line"/>
      <point x="87" y="-15"/>
      <point x="86" y="-17"/>
      <point x="86" y="-21" type="curve" smooth="yes"/>
      <point x="86" y="-29"/>
      <point x="95" y="-36"/>
      <point x="103" y="-36" type="curve" smooth="yes"/>
      <point x="109" y="-36"/>
      <point x="114" y="-34"/>
      <point x="117" y="-28" type="curve"/>
    </contour>
    <contour>
      <point x="224" y="29"/>
      <point x="195" y="40"/>
      <point x="167" y="57" type="curve"/>
      <point x="382" y="427" type="line"/>
      <point x="420" y="382"/>
      <point x="445" y="324"/>
      <point x="445" y="266" type="curve" smooth="yes"/>
      <point x="445" y="140"/>
      <point x="352" y="29"/>
      <point x="252" y="29" type="curve" smooth="yes"/>
    </contour>
    <contour>
      <point x="305" y="471"/>
      <point x="332" y="463"/>
      <point x="357" y="447" type="curve"/>
      <point x="143" y="79" type="line"/>
      <point x="109" y="125"/>
      <point x="90" y="178"/>
      <point x="90" y="231" type="curve" smooth="yes"/>
      <point x="90" y="358"/>
      <point x="177" y="471"/>
      <point x="279" y="471" type="curve" smooth="yes"/>
    </contour>
  </outline>
</glyph>
<glyph name="ugrave" format="1">
  <advance width="502"/>
  <unicode hex="00F9"/>
  <outline>
    <contour>
      <point x="368" y="89"/>
      <point x="313" y="27"/>
      <point x="216" y="27" type="curve" smooth="yes"/>
      <point x="102" y="27"/>
      <point x="103" y="162"/>
      <point x="103" y="294" type="curve" smooth="yes"/>
      <point x="103" y="370"/>
      <point x="112" y="427"/>
      <point x="116" y="462" type="curve" smooth="yes"/>
      <point x="117" y="471"/>
      <point x="118" y="479"/>
      <point x="118" y="483" type="curve"/>
      <point x="119" y="493"/>
      <point x="110" y="500"/>
      <point x="100" y="500" type="curve" smooth="yes"/>
      <point x="91" y="500"/>
      <point x="84" y="496"/>
      <point x="81" y="474" type="curve" smooth="yes"/>
      <point x="76" y="435"/>
      <point x="67" y="372"/>
      <point x="68" y="293" type="curve" smooth="yes"/>
      <point x="69" y="144"/>
      <point x="68" y="-3"/>
      <point x="216" y="-3" type="curve" smooth="yes"/>
      <point x="293" y="-3"/>
      <point x="369" y="34"/>
      <point x="402" y="82" type="curve"/>
      <point x="402" y="24" type="line" smooth="yes"/>
      <point x="402" y="10"/>
      <point x="411" y="0"/>
      <point x="424" y="0" type="curve" smooth="yes"/>
      <point x="436" y="0"/>
      <point x="445" y="8"/>
      <point x="445" y="19" type="curve" smooth="yes"/>
      <point x="445" y="483" type="line" smooth="yes"/>
      <point x="445" y="492"/>
      <point x="436" y="500"/>
      <point x="426" y="500" type="curve" smooth="yes"/>
      <point x="417" y="500"/>
      <point x="408" y="492"/>
      <point x="408" y="483" type="curve" smooth="yes"/>
      <point x="406" y="167" type="line" smooth="yes"/>
      <point x="406" y="143"/>
      <point x="402" y="127"/>
      <point x="391" y="115" type="curve" smooth="yes"/>
    </contour>
    <contour>
      <point x="231" y="747" type="line" smooth="yes"/>
      <point x="225" y="755"/>
      <point x="218" y="758"/>
      <point x="210" y="758" type="curve" smooth="yes"/>
      <point x="196" y="758"/>
      <point x="183" y="747"/>
      <point x="183" y="733" type="curve" smooth="yes"/>
      <point x="183" y="726"/>
      <point x="186" y="720"/>
      <point x="191" y="714" type="curve"/>
      <point x="314" y="588" type="line" smooth="yes"/>
      <point x="318" y="584"/>
      <point x="323" y="582"/>
      <point x="327" y="582" type="curve" smooth="yes"/>
      <point x="336" y="582"/>
      <point x="346" y="588"/>
      <point x="346" y="598" type="curve" smooth="yes"/>
      <point x="346" y="602"/>
      <point x="344" y="606"/>
      <point x="340" y="611" type="curve" smooth="yes"/>
    </contour>
  </outline>
</glyph>
<glyph name="uacute" format="1">
  <advance width="502"/>
  <unicode hex="00FA"/>
  <outline>
    <contour>
      <point x="368" y="89"/>
      <point x="313" y="27"/>
      <point x="216" y="27" type="curve" smooth="yes"/>
      <point x="102" y="27"/>
      <point x="103" y="162"/>
      <point x="103" y="294" type="curve" smooth="yes"/>
      <point x="103" y="370"/>
      <point x="112" y="427"/>
      <point x="116" y="462" type="curve" smooth="yes"/>
      <point x="117" y="471"/>
      <point x="118" y="479"/>
      <point x="118" y="483" type="curve"/>
      <point x="119" y="493"/>
      <point x="110" y="500"/>
      <point x="100" y="500" type="curve" smooth="yes"/>
      <point x="91" y="500"/>
      <point x="84" y="496"/>
      <point x="81" y="474" type="curve" smooth="yes"/>
      <point x="76" y="435"/>
      <point x="67" y="372"/>
      <point x="68" y="293" type="curve" smooth="yes"/>
      <point x="69" y="144"/>
      <point x="68" y="-3"/>
      <point x="216" y="-3" type="curve" smooth="yes"/>
      <point x="293" y="-3"/>
      <point x="369" y="34"/>
      <point x="402" y="82" type="curve"/>
      <point x="402" y="24" type="line" smooth="yes"/>
      <point x="402" y="10"/>
      <point x="411" y="0"/>
      <point x="424" y="0" type="curve" smooth="yes"/>
      <point x="436" y="0"/>
      <point x="445" y="8"/>
      <point x="445" y="19" type="curve" smooth="yes"/>
      <point x="445" y="483" type="line" smooth="yes"/>
      <point x="445" y="492"/>
      <point x="436" y="500"/>
      <point x="426" y="500" type="curve" smooth="yes"/>
      <point x="417" y="500"/>
      <point x="408" y="492"/>
      <point x="408" y="483" type="curve" smooth="yes"/>
      <point x="406" y="167" type="line" smooth="yes"/>
      <point x="406" y="143"/>
      <point x="402" y="127"/>
      <point x="391" y="115" type="curve" smooth="yes"/>
    </contour>
    <contour>
      <point x="389" y="692" type="line" smooth="yes"/>
      <point x="396" y="697"/>
      <point x="397" y="701"/>
      <point x="397" y="708" type="curve" smooth="yes"/>
      <point x="397" y="722"/>
      <point x="384" y="735"/>
      <point x="373" y="735" type="curve" smooth="yes"/>
      <point x="363" y="735"/>
      <point x="356" y="728"/>
      <point x="347" y="721" type="curve" smooth="yes"/>
      <point x="219" y="617" type="line" smooth="yes"/>
      <point x="213" y="612"/>
      <point x="213" y="607"/>
      <point x="213" y="604" type="curve" smooth="yes"/>
      <point x="213" y="595"/>
      <point x="221" y="587"/>
      <point x="230" y="587" type="curve" smooth="yes"/>
      <point x="234" y="587"/>
      <point x="239" y="589"/>
      <point x="246" y="594" type="curve" smooth="yes"/>
    </contour>
  </outline>
</glyph>
<glyph name="Abreve" format="1">
  <advance width="614"/>
  <unicode hex="0102"/>
  <outline>
    <contour>
      <point x="53" y="27" type="line"/>
      <point x="52" y="25"/>
      <point x="51" y="21"/>
      <point x="51" y="18" type="curve" smooth="yes"/>
      <point x="51" y="8"/>
      <point x="60" y="0"/>
      <point x="72" y="0" type="curve" smooth="yes"/>
      <point x="80" y="0"/>
      <point x="86" y="4"/>
      <point x="89" y="11" type="curve" smooth="yes"/>
      <point x="167" y="211" type="line"/>
      <point x="444" y="272" type="line"/>
      <point x="533" y="11" type="line" smooth="yes"/>
      <point x="536" y="3"/>
      <point x="542" y="-1"/>
      <point x="550" y="-1" type="curve" smooth="yes"/>
      <point x="561" y="-1"/>
      <point x="571" y="4"/>
      <point x="571" y="15" type="curve" smooth="yes"/>
      <point x="571" y="18"/>
      <point x="571" y="23"/>
      <point x="568" y="32" type="curve" smooth="yes"/>
      <point x="346" y="677" type="line" smooth="yes"/>
      <point x="344" y="683"/>
      <point x="338" y="689"/>
      <point x="328" y="689" type="curve" smooth="yes"/>
      <point x="319" y="689"/>
      <point x="312" y="684"/>
      <point x="309" y="677" type="curve" smooth="yes"/>
      <point x="139" y="244" type="line"/>
      <point x="80" y="231" type="line" smooth="yes"/>
      <point x="72" y="229"/>
      <point x="65" y="222"/>
      <point x="65" y="212" type="curve" smooth="yes"/>
      <point x="65" y="202"/>
      <point x="73" y="192"/>
      <point x="85" y="194" type="curve"/>
      <point x="122" y="203" type="line"/>
    </contour>
    <contour>
      <point x="184" y="253" type="line"/>
      <point x="325" y="614" type="line"/>
      <point x="431" y="307" type="line"/>
    </contour>
    <contour>
      <point x="186" y="870"/>
      <point x="181" y="878"/>
      <point x="175" y="878" type="curve" smooth="yes"/>
      <point x="168" y="878"/>
      <point x="167" y="873"/>
      <point x="167" y="869" type="curve" smooth="yes"/>
      <point x="167" y="849"/>
      <point x="206" y="762"/>
      <point x="321" y="762" type="curve" smooth="yes"/>
      <point x="414" y="762"/>
      <point x="465" y="833"/>
      <point x="465" y="876" type="curve" smooth="yes"/>
      <point x="465" y="880"/>
      <point x="462" y="883"/>
      <point x="458" y="883" type="curve" smooth="yes"/>
      <point x="451" y="883"/>
      <point x="447" y="876"/>
      <point x="443" y="868" type="curve"/>
      <point x="420" y="816"/>
      <point x="380" y="790"/>
      <point x="324" y="790" type="curve" smooth="yes"/>
      <point x="282" y="790"/>
      <point x="220" y="807"/>
      <point x="189" y="865" type="curve"/>
    </contour>
  </outline>
</glyph>
<glyph name="cacute" format="1">
  <advance width="499"/>
  <unicode hex="0107"/>
  <outline>
    <contour>
      <point x="458" y="117"/>
      <point x="449" y="124"/>
      <point x="440" y="124" type="curve" smooth="yes"/>
      <point x="431" y="124"/>
      <point x="425" y="117"/>
      <point x="421" y="111" type="curve"/>
      <point x="391" y="71"/>
      <point x="342" y="33"/>
      <point x="263" y="33" type="curve" smooth="yes"/>
      <point x="214" y="33"/>
      <point x="87" y="75"/>
      <point x="87" y="217" type="curve" smooth="yes"/>
      <point x="87" y="246"/>
      <point x="92" y="281"/>
      <point x="108" y="323" type="curve" smooth="yes"/>
      <point x="133" y="386"/>
      <point x="201" y="467"/>
      <point x="275" y="467" type="curve" smooth="yes"/>
      <point x="332" y="467"/>
      <point x="366" y="441"/>
      <point x="396" y="405" type="curve"/>
      <point x="399" y="402"/>
      <point x="404" y="400"/>
      <point x="409" y="400" type="curve" smooth="yes"/>
      <point x="418" y="400"/>
      <point x="426" y="408"/>
      <point x="426" y="418" type="curve" smooth="yes"/>
      <point x="426" y="422"/>
      <point x="424" y="427"/>
      <point x="421" y="430" type="curve"/>
      <point x="383" y="474"/>
      <point x="345" y="500"/>
      <point x="273" y="500" type="curve" smooth="yes"/>
      <point x="180" y="500"/>
      <point x="104" y="401"/>
      <point x="76" y="334" type="curve" smooth="yes"/>
      <point x="66" y="308"/>
      <point x="52" y="263"/>
      <point x="52" y="215" type="curve" smooth="yes"/>
      <point x="52" y="89"/>
      <point x="161" y="-6"/>
      <point x="277" y="0" type="curve" smooth="yes"/>
      <point x="351" y="3"/>
      <point x="417" y="43"/>
      <point x="451" y="93" type="curve"/>
      <point x="454" y="97"/>
      <point x="458" y="103"/>
      <point x="458" y="108" type="curve" smooth="yes"/>
    </contour>
    <contour>
      <point x="389" y="692" type="line" smooth="yes"/>
      <point x="396" y="697"/>
      <point x="397" y="701"/>
      <point x="397" y="708" type="curve" smooth="yes"/>
      <point x="397" y="722"/>
      <point x="384" y="735"/>
      <point x="373" y="735" type="curve" smooth="yes"/>
      <point x="363" y="735"/>
      <point x="356" y="728"/>
      <point x="347" y="721" type="curve" smooth="yes"/>
      <point x="219" y="617" type="line" smooth="yes"/>
      <point x="213" y="612"/>
      <point x="213" y="607"/>
      <point x="213" y="604" type="curve" smooth="yes"/>
      <point x="213" y="595"/>
      <point x="221" y="587"/>
      <point x="230" y="587" type="curve" smooth="yes"/>
      <point x="234" y="587"/>
      <point x="239" y="589"/>
      <point x="246" y="594" type="curve" smooth="yes"/>
    </contour>
  </outline>
</glyph>
<glyph name="dcaron" format="1">
  <advance width="535"/>
  <unicode hex="010F"/>
  <outline>
    <contour>
      <point x="523" y="563" type="line" smooth="yes"/>
      <point x="521" y="558"/>
      <point x="521" y="556"/>
      <point x="521" y="553" type="curve" smooth="yes"/>
      <point x="521" y="548"/>
      <point x="527" y="543"/>
      <point x="534" y="543" type="curve" smooth="yes"/>
      <point x="545" y="543"/>
      <point x="556" y="572"/>
      <point x="572" y="612" type="curve" smooth="yes"/>
      <point x="587" y="650"/>
      <point x="590" y="657"/>
      <point x="590" y="675" type="curve" smooth="yes"/>
      <point x="590" y="686"/>
      <point x="580" y="698"/>
      <point x="567" y="698" type="curve" smooth="yes"/>
      <point x="551" y="698"/>
      <point x="536" y="682"/>
      <point x="536" y="662" type="curve" smooth="yes"/>
      <point x="536" y="653"/>
      <point x="541" y="642"/>
      <point x="550" y="634" type="curve"/>
    </contour>
    <contour>
      <point x="464" y="685" type="line" smooth="yes"/>
      <point x="464" y="695"/>
      <point x="456" y="705"/>
      <point x="445" y="705" type="curve" smooth="yes"/>
      <point x="435" y="705"/>
      <point x="425" y="696"/>
      <point x="425" y="686" type="curve" smooth="yes"/>
      <point x="420" y="461" type="line"/>
      <point x="380" y="478"/>
      <point x="323" y="498"/>
      <point x="266" y="498" type="curve" smooth="yes"/>
      <point x="111" y="498"/>
      <point x="53" y="368"/>
      <point x="53" y="225" type="curve" smooth="yes"/>
      <point x="53" y="116"/>
      <point x="106" y="4"/>
      <point x="222" y="4" type="curve" smooth="yes"/>
      <point x="300" y="4"/>
      <point x="368" y="55"/>
      <point x="412" y="96" type="curve"/>
      <point x="410" y="22" type="line" smooth="yes"/>
      <point x="410" y="9"/>
      <point x="416" y="0"/>
      <point x="428" y="0" type="curve" smooth="yes"/>
      <point x="439" y="0"/>
      <point x="448" y="7"/>
      <point x="448" y="18" type="curve" smooth="yes"/>
    </contour>
    <contour>
      <point x="90" y="323"/>
      <point x="118" y="463"/>
      <point x="268" y="463" type="curve" smooth="yes"/>
      <point x="331" y="463"/>
      <point x="397" y="430"/>
      <point x="419" y="419" type="curve"/>
      <point x="414" y="157" type="line" smooth="yes"/>
      <point x="413" y="122"/>
      <point x="336" y="34"/>
      <point x="222" y="34" type="curve" smooth="yes"/>
      <point x="118" y="34"/>
      <point x="90" y="148"/>
      <point x="90" y="228" type="curve" smooth="yes"/>
    </contour>
  </outline>
</glyph>
<glyph name="Ecaron" format="1">
  <advance width="600"/>
  <unicode hex="011A"/>
  <outline>
    <contour>
      <point x="106" y="38" type="line"/>
      <point x="106" y="334" type="line"/>
      <point x="478" y="334" type="line" smooth="yes"/>
      <point x="488" y="334"/>
      <point x="496" y="343"/>
      <point x="496" y="353" type="curve" smooth="yes"/>
      <point x="496" y="364"/>
      <point x="488" y="372"/>
      <point x="478" y="372" type="curve" smooth="yes"/>
      <point x="106" y="372" type="line"/>
      <point x="106" y="644" type="line"/>
      <point x="528" y="644" type="line" smooth="yes"/>
      <point x="538" y="644"/>
      <point x="547" y="653"/>
      <point x="547" y="664" type="curve" smooth="yes"/>
      <point x="547" y="674"/>
      <point x="538" y="682"/>
      <point x="528" y="682" type="curve" smooth="yes"/>
      <point x="87" y="682" type="line" smooth="yes"/>
      <point x="77" y="682"/>
      <point x="68" y="674"/>
      <point x="68" y="664" type="curve" smooth="yes"/>
      <point x="68" y="20" type="line" smooth="yes"/>
      <point x="68" y="9"/>
      <point x="77" y="0"/>
      <point x="87" y="0" type="curve" smooth="yes"/>
      <point x="526" y="0" type="line" smooth="yes"/>
      <point x="536" y="0"/>
      <point x="545" y="9"/>
      <point x="545" y="20" type="curve" smooth="yes"/>
      <point x="545" y="30"/>
      <point x="536" y="38"/>
      <point x="526" y="38" type="curve" smooth="yes"/>
    </contour>
    <contour>
      <point x="305" y="743"/>
      <point x="310" y="745"/>
      <point x="314" y="748" type="curve"/>
      <point x="449" y="861" type="line"/>
      <point x="453" y="864"/>
      <point x="456" y="869"/>
      <point x="456" y="874" type="curve" smooth="yes"/>
      <point x="456" y="883"/>
      <point x="448" y="892"/>
      <point x="438" y="892" type="curve" smooth="yes"/>
      <point x="434" y="892"/>
      <point x="430" y="890"/>
      <point x="427" y="888" type="curve"/>
      <point x="303" y="792" type="line"/>
      <point x="198" y="887" type="line"/>
      <point x="194" y="890"/>
      <point x="190" y="892"/>
      <point x="185" y="892" type="curve" smooth="yes"/>
      <point x="176" y="892"/>
      <point x="168" y="883"/>
      <point x="168" y="874" type="curve" smooth="yes"/>
      <point x="168" y="869"/>
      <point x="170" y="866"/>
      <point x="174" y="862" type="curve" smooth="yes"/>
      <point x="286" y="749" type="line" smooth="yes"/>
      <point x="290" y="745"/>
      <point x="296" y="743"/>
      <point x="301" y="743" type="curve" smooth="yes"/>
    </contour>
  </outline>
</glyph>
<glyph name="Lacute" format="1">
  <advance width="467"/>
  <unicode hex="0139"/>
  <outline>
    <contour>
      <point x="443" y="25" type="line" smooth="yes"/>
      <point x="454" y="26"/>
      <point x="461" y="34"/>
      <point x="461" y="43" type="curve" smooth="yes"/>
      <point x="461" y="54"/>
      <point x="452" y="63"/>
      <point x="441" y="62" type="curve" smooth="yes"/>
      <point x="105" y="38" type="line"/>
      <point x="105" y="662" type="line" smooth="yes"/>
      <point x="105" y="673"/>
      <point x="97" y="681"/>
      <point x="87" y="681" type="curve" smooth="yes"/>
      <point x="76" y="681"/>
      <point x="68" y="673"/>
      <point x="68" y="662" type="curve" smooth="yes"/>
      <point x="68" y="19" type="line" smooth="yes"/>
      <point x="68" y="7"/>
      <point x="77" y="-1"/>
      <point x="87" y="0" type="curve" smooth="yes"/>
    </contour>
    <contour>
      <point x="328" y="857" type="line" smooth="yes"/>
      <point x="335" y="862"/>
      <point x="336" y="866"/>
      <point x="336" y="873" type="curve" smooth="yes"/>
      <point x="336" y="887"/>
      <point x="323" y="900"/>
      <point x="312" y="900" type="curve" smooth="yes"/>
      <point x="302" y="900"/>
      <point x="295" y="893"/>
      <point x="286" y="886" type="curve" smooth="yes"/>
      <point x="158" y="782" type="line" smooth="yes"/>
      <point x="152" y="777"/>
      <point x="152" y="772"/>
      <point x="152" y="769" type="curve" smooth="yes"/>
      <point x="152" y="760"/>
      <point x="160" y="752"/>
      <point x="169" y="752" type="curve" smooth="yes"/>
      <point x="173" y="752"/>
      <point x="178" y="754"/>
      <point x="185" y="759" type="curve" smooth="yes"/>
    </contour>
  </outline>
</glyph>
<glyph name="lacute" format="1">
  <advance width="216"/>
  <unicode hex="013A"/>
  <outline>
    <contour>
      <point x="129" y="680" type="line" smooth="yes"/>
      <point x="129" y="690"/>
      <point x="120" y="698"/>
      <point x="110" y="698" type="curve" smooth="yes"/>
      <point x="100" y="698"/>
      <point x="91" y="690"/>
      <point x="91" y="680" type="curve" smooth="yes"/>
      <point x="91" y="16" type="line" smooth="yes"/>
      <point x="91" y="7"/>
      <point x="101" y="0"/>
      <point x="110" y="0" type="curve" smooth="yes"/>
      <point x="119" y="0"/>
      <point x="129" y="7"/>
      <point x="129" y="16" type="curve" smooth="yes"/>
    </contour>
    <contour>
      <point x="205" y="857" type="line" smooth="yes"/>
      <point x="212" y="862"/>
      <point x="213" y="866"/>
      <point x="213" y="873" type="curve" smooth="yes"/>
      <point x="213" y="887"/>
      <point x="200" y="900"/>
      <point x="189" y="900" type="curve" smooth="yes"/>
      <point x="179" y="900"/>
      <point x="172" y="893"/>
      <point x="163" y="886" type="curve" smooth="yes"/>
      <point x="35" y="782" type="line" smooth="yes"/>
      <point x="29" y="777"/>
      <point x="29" y="772"/>
      <point x="29" y="769" type="curve" smooth="yes"/>
      <point x="29" y="760"/>
      <point x="37" y="752"/>
      <point x="46" y="752" type="curve" smooth="yes"/>
      <point x="50" y="752"/>
      <point x="55" y="754"/>
      <point x="62" y="759" type="curve" smooth="yes"/>
    </contour>
  </outline>
</glyph>
<glyph name="Lcaron" format="1">
  <advance width="467"/>
  <unicode hex="013D"/>
  <outline>
    <contour>
      <point x="149" y="743"/>
      <point x="154" y="745"/>
      <point x="158" y="748" type="curve"/>
      <point x="293" y="861" type="line"/>
      <point x="297" y="864"/>
      <point x="300" y="869"/>
      <point x="300" y="874" type="curve" smooth="yes"/>
      <point x="300" y="883"/>
      <point x="292" y="892"/>
      <point x="282" y="892" type="curve" smooth="yes"/>
      <point x="278" y="892"/>
      <point x="274" y="890"/>
      <point x="271" y="888" type="curve"/>
      <point x="147" y="792" type="line"/>
      <point x="42" y="887" type="line"/>
      <point x="38" y="890"/>
      <point x="34" y="892"/>
      <point x="29" y="892" type="curve" smooth="yes"/>
      <point x="20" y="892"/>
      <point x="12" y="883"/>
      <point x="12" y="874" type="curve" smooth="yes"/>
      <point x="12" y="869"/>
      <point x="14" y="866"/>
      <point x="18" y="862" type="curve" smooth="yes"/>
      <point x="130" y="749" type="line" smooth="yes"/>
      <point x="134" y="745"/>
      <point x="140" y="743"/>
      <point x="145" y="743" type="curve" smooth="yes"/>
    </contour>
    <contour>
      <point x="443" y="25" type="line" smooth="yes"/>
      <point x="454" y="26"/>
      <point x="461" y="34"/>
      <point x="461" y="43" type="curve" smooth="yes"/>
      <point x="461" y="54"/>
      <point x="452" y="63"/>
      <point x="441" y="62" type="curve" smooth="yes"/>
      <point x="105" y="38" type="line"/>
      <point x="105" y="662" type="line" smooth="yes"/>
      <point x="105" y="673"/>
      <point x="97" y="681"/>
      <point x="87" y="681" type="curve" smooth="yes"/>
      <point x="76" y="681"/>
      <point x="68" y="673"/>
      <point x="68" y="662" type="curve" smooth="yes"/>
      <point x="68" y="19" type="line" smooth="yes"/>
      <point x="68" y="7"/>
      <point x="77" y="-1"/>
      <point x="87" y="0" type="curve" smooth="yes"/>
    </contour>
  </outline>
</glyph>
<glyph name="lcaron" format="1">
  <advance width="247"/>
  <unicode hex="013E"/>
  <outline>
    <contour>
      <point x="194" y="563" type="line" smooth="yes"/>
      <point x="192" y="558"/>
      <point x="192" y="556"/>
      <point x="192" y="553" type="curve" smooth="yes"/>
      <point x="192" y="548"/>
      <point x="198" y="543"/>
      <point x="205" y="543" type="curve" smooth="yes"/>
      <point x="216" y="543"/>
      <point x="227" y="572"/>
      <point x="243" y="612" type="curve" smooth="yes"/>
      <point x="258" y="650"/>
      <point x="261" y="657"/>
      <point x="261" y="675" type="curve" smooth="yes"/>
      <point x="261" y="686"/>
      <point x="251" y="698"/>
      <point x="238" y="698" type="curve" smooth="yes"/>
      <point x="222" y="698"/>
      <point x="207" y="682"/>
      <point x="207" y="662" type="curve" smooth="yes"/>
      <point x="207" y="653"/>
      <point x="212" y="642"/>
      <point x="221" y="634" type="curve"/>
    </contour>
    <contour>
      <point x="129" y="680" type="line" smooth="yes"/>
      <point x="129" y="690"/>
      <point x="120" y="698"/>
      <point x="110" y="698" type="curve" smooth="yes"/>
      <point x="100" y="698"/>
      <point x="91" y="690"/>
      <point x="91" y="680" type="curve" smooth="yes"/>
      <point x="91" y="16" type="line" smooth="yes"/>
      <point x="91" y="7"/>
      <point x="101" y="0"/>
      <point x="110" y="0" type="curve" smooth="yes"/>
      <point x="119" y="0"/>
      <point x="129" y="7"/>
      <point x="129" y="16" type="curve" smooth="yes"/>
    </contour>
  </outline>
</glyph>
<glyph name="Lslash" format="1">
  <advance width="518"/>
  <unicode hex="0141"/>
  <outline>
    <contour>
      <point x="27" y="298" type="line" smooth="yes"/>
      <point x="21" y="294"/>
      <point x="19" y="287"/>
      <point x="19" y="280" type="curve" smooth="yes"/>
      <point x="19" y="269"/>
      <point x="29" y="263"/>
      <point x="37" y="263" type="curve" smooth="yes"/>
      <point x="40" y="263"/>
      <point x="46" y="264"/>
      <point x="49" y="266" type="curve" smooth="yes"/>
      <point x="121" y="313" type="line"/>
      <point x="121" y="19" type="line" smooth="yes"/>
      <point x="121" y="9"/>
      <point x="130" y="-1"/>
      <point x="138" y="0" type="curve"/>
      <point x="496" y="25" type="line" smooth="yes"/>
      <point x="506" y="26"/>
      <point x="512" y="34"/>
      <point x="513" y="44" type="curve"/>
      <point x="512" y="55"/>
      <point x="502" y="63"/>
      <point x="494" y="62" type="curve"/>
      <point x="158" y="38" type="line"/>
      <point x="158" y="335" type="line"/>
      <point x="253" y="395" type="line" smooth="yes"/>
      <point x="258" y="398"/>
      <point x="261" y="404"/>
      <point x="261" y="410" type="curve" smooth="yes"/>
      <point x="261" y="421"/>
      <point x="252" y="430"/>
      <point x="241" y="430" type="curve" smooth="yes"/>
      <point x="238" y="430"/>
      <point x="234" y="429"/>
      <point x="231" y="427" type="curve" smooth="yes"/>
      <point x="158" y="379" type="line"/>
      <point x="158" y="662" type="line" smooth="yes"/>
      <point x="158" y="673"/>
      <point x="150" y="681"/>
      <point x="139" y="681" type="curve" smooth="yes"/>
      <point x="129" y="681"/>
      <point x="121" y="673"/>
      <point x="121" y="662" type="curve" smooth="yes"/>
      <point x="121" y="358" type="line"/>
    </contour>
  </outline>
</glyph>
<glyph name="Nacute" format="1">
  <advance width="609"/>
  <unicode hex="0143"/>
  <outline>
    <contour>
      <point x="517" y="7" type="line"/>
      <point x="520" y="2"/>
      <point x="525" y="0"/>
      <point x="532" y="0" type="curve" smooth="yes"/>
      <point x="543" y="0"/>
      <point x="551" y="8"/>
      <point x="551" y="19" type="curve" smooth="yes"/>
      <point x="551" y="664" type="line" smooth="yes"/>
      <point x="551" y="674"/>
      <point x="543" y="682"/>
      <point x="532" y="682" type="curve" smooth="yes"/>
      <point x="522" y="682"/>
      <point x="514" y="674"/>
      <point x="514" y="664" type="curve" smooth="yes"/>
      <point x="514" y="77" type="line"/>
      <point x="105" y="670" type="line"/>
      <point x="100" y="678"/>
      <point x="94" y="681"/>
      <point x="86" y="681" type="curve" smooth="yes"/>
      <point x="76" y="681"/>
      <point x="69" y="673"/>
      <point x="69" y="662" type="curve" smooth="yes"/>
      <point x="68" y="19" type="line" smooth="yes"/>
      <point x="68" y="8"/>
      <point x="76" y="0"/>
      <point x="86" y="0" type="curve" smooth="yes"/>
      <point x="96" y="0"/>
      <point x="105" y="8"/>
      <point x="105" y="19" type="curve" smooth="yes"/>
      <point x="106" y="603" type="line"/>
    </contour>
    <contour>
      <point x="415" y="857" type="line" smooth="yes"/>
      <point x="422" y="862"/>
      <point x="423" y="866"/>
      <point x="423" y="873" type="curve" smooth="yes"/>
      <point x="423" y="887"/>
      <point x="410" y="900"/>
      <point x="399" y="900" type="curve" smooth="yes"/>
      <point x="389" y="900"/>
      <point x="382" y="893"/>
      <point x="373" y="886" type="curve" smooth="yes"/>
      <point x="245" y="782" type="line" smooth="yes"/>
      <point x="239" y="777"/>
      <point x="239" y="772"/>
      <point x="239" y="769" type="curve" smooth="yes"/>
      <point x="239" y="760"/>
      <point x="247" y="752"/>
      <point x="256" y="752" type="curve" smooth="yes"/>
      <point x="260" y="752"/>
      <point x="265" y="754"/>
      <point x="272" y="759" type="curve" smooth="yes"/>
    </contour>
  </outline>
</glyph>
<glyph name="ncaron" format="1">
  <advance width="525"/>
  <unicode hex="0148"/>
  <outline>
    <contour>
      <point x="291" y="589"/>
      <point x="296" y="591"/>
      <point x="300" y="594" type="curve"/>
      <point x="435" y="707" type="line"/>
      <point x="439" y="710"/>
      <point x="442" y="715"/>
      <point x="442" y="720" type="curve" smooth="yes"/>
      <point x="442" y="729"/>
      <point x="434" y="738"/>
      <point x="424" y="738" type="curve" smooth="yes"/>
      <point x="420" y="738"/>
      <point x="416" y="736"/>
      <point x="413" y="734" type="curve"/>
      <point x="289" y="638" type="line"/>
      <point x="184" y="733" type="line"/>
      <point x="180" y="736"/>
      <point x="176" y="738"/>
      <point x="171" y="738" type="curve" smooth="yes"/>
      <point x="162" y="738"/>
      <point x="154" y="729"/>
      <point x="154" y="720" type="curve" smooth="yes"/>
      <point x="154" y="715"/>
      <point x="156" y="712"/>
      <point x="160" y="708" type="curve" smooth="yes"/>
      <point x="272" y="595" type="line" smooth="yes"/>
      <point x="276" y="591"/>
      <point x="282" y="589"/>
      <point x="287" y="589" type="curve" smooth="yes"/>
    </contour>
    <contour>
      <point x="105" y="482" type="line" smooth="yes"/>
      <point x="105" y="492"/>
      <point x="97" y="500"/>
      <point x="86" y="500" type="curve" smooth="yes"/>
      <point x="76" y="500"/>
      <point x="68" y="492"/>
      <point x="68" y="482" type="curve" smooth="yes"/>
      <point x="68" y="17" type="line" smooth="yes"/>
      <point x="68" y="7"/>
      <point x="76" y="0"/>
      <point x="86" y="0" type="curve" smooth="yes"/>
      <point x="98" y="0"/>
      <point x="104" y="9"/>
      <point x="104" y="21" type="curve" smooth="yes"/>
      <point x="105" y="105" type="line" smooth="yes"/>
      <point x="106" y="179"/>
      <point x="127" y="269"/>
      <point x="162" y="334" type="curve" smooth="yes"/>
      <point x="219" y="438"/>
      <point x="280" y="464"/>
      <point x="328" y="464" type="curve" smooth="yes"/>
      <point x="430" y="464"/>
      <point x="431" y="357"/>
      <point x="432" y="145" type="curve" smooth="yes"/>
      <point x="432" y="106"/>
      <point x="432" y="65"/>
      <point x="433" y="19" type="curve" smooth="yes"/>
      <point x="433" y="8"/>
      <point x="442" y="0"/>
      <point x="451" y="0" type="curve" smooth="yes"/>
      <point x="461" y="0"/>
      <point x="468" y="9"/>
      <point x="468" y="20" type="curve" smooth="yes"/>
      <point x="469" y="66"/>
      <point x="469" y="108"/>
      <point x="469" y="148" type="curve" smooth="yes"/>
      <point x="469" y="388"/>
      <point x="453" y="499"/>
      <point x="333" y="499" type="curve" smooth="yes"/>
      <point x="229" y="499"/>
      <point x="125" y="380"/>
      <point x="105" y="265" type="curve"/>
    </contour>
  </outline>
</glyph>
<glyph name="Ohungarumlaut" format="1">
  <advance width="650"/>
  <unicode hex="0150"/>
  <outline>
    <contour>
      <point x="464" y="-2"/>
      <point x="598" y="167"/>
      <point x="598" y="368" type="curve" smooth="yes"/>
      <point x="598" y="540"/>
      <point x="494" y="682"/>
      <point x="352" y="682" type="curve" smooth="yes"/>
      <point x="196" y="682"/>
      <point x="62" y="513"/>
      <point x="62" y="312" type="curve" smooth="yes"/>
      <point x="62" y="142"/>
      <point x="165" y="-2"/>
      <point x="308" y="-2" type="curve" smooth="yes"/>
    </contour>
    <contour>
      <point x="473" y="649"/>
      <point x="564" y="508"/>
      <point x="564" y="364" type="curve" smooth="yes"/>
      <point x="564" y="183"/>
      <point x="440" y="31"/>
      <point x="308" y="31" type="curve" smooth="yes"/>
      <point x="185" y="31"/>
      <point x="96" y="159"/>
      <point x="96" y="312" type="curve" smooth="yes"/>
      <point x="96" y="500"/>
      <point x="213" y="649"/>
      <point x="344" y="649" type="curve" smooth="yes"/>
    </contour>
    <contour>
      <point x="428" y="846" type="line" smooth="yes"/>
      <point x="435" y="851"/>
      <point x="435" y="856"/>
      <point x="435" y="862" type="curve" smooth="yes"/>
      <point x="435" y="876"/>
      <point x="423" y="889"/>
      <point x="410" y="889" type="curve" smooth="yes"/>
      <point x="402" y="889"/>
      <point x="393" y="881"/>
      <point x="386" y="875" type="curve" smooth="yes"/>
      <point x="260" y="773" type="line"/>
      <point x="252" y="766"/>
      <point x="252" y="761"/>
      <point x="252" y="758" type="curve" smooth="yes"/>
      <point x="252" y="749"/>
      <point x="260" y="741"/>
      <point x="269" y="741" type="curve" smooth="yes"/>
      <point x="273" y="741"/>
      <point x="279" y="744"/>
      <point x="285" y="748" type="curve" smooth="yes"/>
    </contour>
    <contour>
      <point x="590" y="842" type="line" smooth="yes"/>
      <point x="600" y="849"/>
      <point x="601" y="856"/>
      <point x="601" y="862" type="curve" smooth="yes"/>
      <point x="601" y="876"/>
      <point x="590" y="889"/>
      <point x="576" y="889" type="curve" smooth="yes"/>
      <point x="569" y="889"/>
      <point x="560" y="881"/>
      <point x="552" y="875" type="curve"/>
      <point x="426" y="772" type="line" smooth="yes"/>
      <point x="419" y="766"/>
      <point x="419" y="761"/>
      <point x="419" y="758" type="curve" smooth="yes"/>
      <point x="419" y="749"/>
      <point x="426" y="741"/>
      <point x="436" y="741" type="curve" smooth="yes"/>
      <point x="440" y="741"/>
      <point x="446" y="744"/>
      <point x="451" y="748" type="curve"/>
    </contour>
  </outline>
</glyph>
<glyph name="Rcaron" format="1">
  <advance width="587"/>
  <unicode hex="0158"/>
  <outline>
    <contour>
      <point x="289" y="743"/>
      <point x="294" y="745"/>
      <point x="298" y="748" type="curve"/>
      <point x="433" y="861" type="line"/>
      <point x="437" y="864"/>
      <point x="440" y="869"/>
      <point x="440" y="874" type="curve" smooth="yes"/>
      <point x="440" y="883"/>
      <point x="432" y="892"/>
      <point x="422" y="892" type="curve" smooth="yes"/>
      <point x="418" y="892"/>
      <point x="414" y="890"/>
      <point x="411" y="888" type="curve"/>
      <point x="287" y="792" type="line"/>
      <point x="182" y="887" type="line"/>
      <point x="178" y="890"/>
      <point x="174" y="892"/>
      <point x="169" y="892" type="curve" smooth="yes"/>
      <point x="160" y="892"/>
      <point x="152" y="883"/>
      <point x="152" y="874" type="curve" smooth="yes"/>
      <point x="152" y="869"/>
      <point x="154" y="866"/>
      <point x="158" y="862" type="curve" smooth="yes"/>
      <point x="270" y="749" type="line" smooth="yes"/>
      <point x="274" y="745"/>
      <point x="280" y="743"/>
      <point x="285" y="743" type="curve" smooth="yes"/>
    </contour>
    <contour>
      <point x="473" y="161"/>
      <point x="359" y="246"/>
      <point x="309" y="276" type="curve"/>
      <point x="413" y="311"/>
      <point x="517" y="373"/>
      <point x="517" y="482" type="curve" smooth="yes"/>
      <point x="517" y="613"/>
      <point x="391" y="688"/>
      <point x="166" y="688" type="curve" smooth="yes"/>
      <point x="82" y="688"/>
      <point x="68" y="689"/>
      <point x="68" y="657" type="curve" smooth="yes"/>
      <point x="68" y="19" type="line" smooth="yes"/>
      <point x="68" y="8"/>
      <point x="76" y="0"/>
      <point x="86" y="0" type="curve" smooth="yes"/>
      <point x="96" y="0"/>
      <point x="105" y="8"/>
      <point x="105" y="19" type="curve" smooth="yes"/>
      <point x="105" y="247" type="line"/>
      <point x="144" y="253"/>
      <point x="193" y="258"/>
      <point x="214" y="258" type="curve" smooth="yes"/>
      <point x="259" y="258"/>
      <point x="372" y="241"/>
      <point x="508" y="11" type="curve"/>
      <point x="512" y="5"/>
      <point x="517" y="0"/>
      <point x="524" y="0" type="curve" smooth="yes"/>
      <point x="537" y="0"/>
      <point x="543" y="9"/>
      <point x="543" y="19" type="curve" smooth="yes"/>
      <point x="543" y="22"/>
      <point x="542" y="24"/>
      <point x="541" y="27" type="curve"/>
    </contour>
    <contour>
      <point x="105" y="649" type="line"/>
      <point x="120" y="650"/>
      <point x="152" y="651"/>
      <point x="162" y="651" type="curve" smooth="yes"/>
      <point x="362" y="651"/>
      <point x="480" y="594"/>
      <point x="480" y="482" type="curve" smooth="yes"/>
      <point x="480" y="342"/>
      <point x="261" y="288"/>
      <point x="105" y="285" type="curve"/>
    </contour>
  </outline>
</glyph>
<glyph name="scedilla" format="1">
  <advance width="448"/>
  <unicode hex="015F"/>
  <outline>
    <contour>
      <point x="204" y="-9"/>
      <point x="186" y="-65"/>
      <point x="186" y="-69" type="curve" smooth="yes"/>
      <point x="186" y="-75"/>
      <point x="191" y="-79"/>
      <point x="197" y="-79" type="curve" smooth="yes"/>
      <point x="199" y="-79"/>
      <point x="202" y="-78"/>
      <point x="206" y="-75" type="curve" smooth="yes"/>
      <point x="213" y="-70"/>
      <point x="224" y="-64"/>
      <point x="242" y="-64" type="curve" smooth="yes"/>
      <point x="276" y="-64"/>
      <point x="303" y="-91"/>
      <point x="303" y="-125" type="curve" smooth="yes"/>
      <point x="303" y="-159"/>
      <point x="276" y="-187"/>
      <point x="242" y="-187" type="curve" smooth="yes"/>
      <point x="213" y="-187"/>
      <point x="201" y="-174"/>
      <point x="192" y="-164" type="curve"/>
      <point x="188" y="-159"/>
      <point x="185" y="-154"/>
      <point x="180" y="-154" type="curve" smooth="yes"/>
      <point x="175" y="-154"/>
      <point x="170" y="-157"/>
      <point x="170" y="-163" type="curve" smooth="yes"/>
      <point x="170" y="-189"/>
      <point x="211" y="-209"/>
      <point x="242" y="-209" type="curve" smooth="yes"/>
      <point x="289" y="-209"/>
      <point x="326" y="-170"/>
      <point x="326" y="-123" type="curve" smooth="yes"/>
      <point x="326" y="-78"/>
      <point x="291" y="-41"/>
      <point x="220" y="-41" type="curve"/>
      <point x="221" y="-2" type="line"/>
      <point x="233" y="-2" type="line" smooth="yes"/>
      <point x="336" y="-2"/>
      <point x="401" y="70"/>
      <point x="401" y="134" type="curve" smooth="yes"/>
      <point x="401" y="230"/>
      <point x="329" y="252"/>
      <point x="236" y="282" type="curve" smooth="yes"/>
      <point x="191" y="296"/>
      <point x="117" y="317"/>
      <point x="117" y="385" type="curve" smooth="yes"/>
      <point x="117" y="438"/>
      <point x="173" y="468"/>
      <point x="254" y="468" type="curve" smooth="yes"/>
      <point x="333" y="468"/>
      <point x="367" y="439"/>
      <point x="367" y="394" type="curve" smooth="yes"/>
      <point x="367" y="382"/>
      <point x="365" y="378"/>
      <point x="365" y="373" type="curve" smooth="yes"/>
      <point x="365" y="364"/>
      <point x="371" y="355"/>
      <point x="383" y="355" type="curve" smooth="yes"/>
      <point x="396" y="355"/>
      <point x="402" y="369"/>
      <point x="402" y="393" type="curve" smooth="yes"/>
      <point x="402" y="457"/>
      <point x="348" y="499"/>
      <point x="251" y="499" type="curve" smooth="yes"/>
      <point x="181" y="499"/>
      <point x="84" y="476"/>
      <point x="84" y="386" type="curve" smooth="yes"/>
      <point x="84" y="319"/>
      <point x="134" y="280"/>
      <point x="236" y="249" type="curve" smooth="yes"/>
      <point x="341" y="217"/>
      <point x="366" y="188"/>
      <point x="366" y="135" type="curve" smooth="yes"/>
      <point x="366" y="102"/>
      <point x="334" y="32"/>
      <point x="233" y="32" type="curve" smooth="yes"/>
      <point x="161" y="32"/>
      <point x="107" y="69"/>
      <point x="87" y="128" type="curve"/>
      <point x="85" y="135"/>
      <point x="80" y="141"/>
      <point x="71" y="141" type="curve" smooth="yes"/>
      <point x="62" y="141"/>
      <point x="54" y="132"/>
      <point x="54" y="123" type="curve" smooth="yes"/>
      <point x="54" y="93"/>
      <point x="108" y="14"/>
      <point x="207" y="0" type="curve"/>
    </contour>
  </outline>
</glyph>
